<svg width="16" height="10" viewBox="0 0 16 10" fill="none" xmlns="http://www.w3.org/2000/svg">
<path d="M0.727236 5.72729L13.5169 5.7273L11.1221 8.12216C10.8381 8.40613 10.8381 8.86664 11.1221 9.15067C11.4061 9.43464 11.8666 9.43464 12.1506 9.15067L15.787 5.5143C16.071 5.23033 16.071 4.76982 15.787 4.48579L12.1506 0.849429C12.0086 0.707417 11.8225 0.636387 11.6363 0.636386C11.4502 0.636386 11.2641 0.707417 11.1221 0.849429C10.8381 1.1334 10.8381 1.59391 11.1221 1.87794L13.5169 4.27275L0.727236 4.27275C0.325587 4.27275 -3.77304e-05 4.59837 -3.77655e-05 5.00002C-3.78006e-05 5.40167 0.325587 5.72729 0.727236 5.72729Z" fill="white"/>
</svg>
