<svg width="10" height="16" viewBox="0 0 10 16" fill="none" xmlns="http://www.w3.org/2000/svg">
<path d="M9.44471 7.37568L2.3245 0.255608C2.15982 0.090796 1.93999 0 1.70558 0C1.47118 0 1.25134 0.090796 1.08666 0.255608L0.562306 0.779831C0.221105 1.12142 0.221105 1.6766 0.562306 2.01767L6.54132 7.99668L0.555672 13.9823C0.39099 14.1471 0.300064 14.3668 0.300064 14.6011C0.300064 14.8357 0.39099 15.0554 0.555672 15.2203L1.08003 15.7444C1.24484 15.9092 1.46454 16 1.69895 16C1.93335 16 2.15319 15.9092 2.31787 15.7444L9.44471 8.61782C9.60978 8.45248 9.70045 8.23174 9.69992 7.99707C9.70045 7.7615 9.60978 7.54088 9.44471 7.37568Z" fill="#EE6E45"/>
</svg>
