<svg width="10" height="16" viewBox="0 0 10 16" fill="none" xmlns="http://www.w3.org/2000/svg">
<path d="M0.555294 8.62432L7.6755 15.7444C7.84018 15.9092 8.06001 16 8.29442 16C8.52882 16 8.74866 15.9092 8.91334 15.7444L9.43769 15.2202C9.77889 14.8786 9.77889 14.3234 9.43769 13.9823L3.45869 8.00332L9.44433 2.01768C9.60901 1.85286 9.69994 1.63316 9.69994 1.39888C9.69994 1.16435 9.60901 0.944643 9.44433 0.779701L8.91998 0.255608C8.75516 0.0907964 8.53546 8.51872e-07 8.30105 8.3138e-07C8.06665 8.10888e-07 7.84681 0.0907963 7.68213 0.255607L0.555294 7.38218C0.390221 7.54752 0.299556 7.76826 0.300076 8.00293C0.299556 8.2385 0.390221 8.45912 0.555294 8.62432Z" fill="#EE6E45"/>
</svg>
