<svg width="140" height="134" viewBox="0 0 140 134" fill="none" xmlns="http://www.w3.org/2000/svg">
<path d="M37.3193 46.9442C33.041 51.2154 21.995 43.1389 18.7668 49.3128C15.5386 55.4867 10.0934 76.2604 1.42004 77.5029C0.292109 77.6582 -0.0968322 78.2406 0.0198501 78.9784C0.564368 82.2401 10.1712 88.1421 22.5395 76.804C34.3245 65.9706 40.5864 57.234 40.5864 57.234L37.3193 46.9442Z" fill="url(#paint0_linear_24_4015)"/>
<path d="M33.78 50.0123L36.8527 59.9138L33.3522 65.8546C32.5743 66.7089 31.7575 67.602 30.863 68.5339L28.3348 67.9514C27.6736 57.7005 22.5007 48.5756 19.2725 56.4968C17.4834 60.9621 11.6104 69.8929 11.6104 69.8929L9.39343 70.4365C13.6329 63.4472 17.25 54.2447 19.3503 50.2453C21.9173 45.3139 28.6849 50.3618 33.78 50.0123Z" fill="url(#paint1_linear_24_4015)"/>
<path d="M35.2192 64.2237C31.5631 42.5182 20.4394 46.3623 18.767 49.2745C21.9952 43.1006 33.0411 51.1771 37.3195 46.9059L40.5477 57.1956C40.5477 57.1956 38.8363 61.0397 35.4136 66.1264C35.4136 65.5439 35.3359 64.8838 35.2192 64.2237Z" fill="url(#paint2_linear_24_4015)"/>
<path d="M35.219 64.2232C35.3357 64.8833 35.4135 65.5046 35.4524 66.1647C35.1412 66.5918 34.869 67.0189 34.5578 67.4849L33.2354 64.8445C31.7186 59.4472 31.0963 51.3319 24.3287 49.3516C15.7331 46.8665 16.4332 76.4933 0.0976618 79.2113C-0.174597 78.3182 0.214344 77.6581 1.42006 77.464C10.0934 76.2215 15.5386 55.409 18.7668 49.2739C20.4393 46.4006 31.563 42.5565 35.219 64.2232Z" fill="url(#paint3_linear_24_4015)"/>
<path d="M53.8883 0C41.2867 0 30.3963 28.3066 37.0083 64.2237C43.6203 100.141 69.5627 67.5241 69.5627 67.5241C69.5627 67.5241 63.0285 50.9829 63.8063 14.6386C64.0397 4.42654 58.0889 0 53.8883 0Z" fill="url(#paint4_radial_24_4015)"/>
<path d="M53.8883 0C41.2867 0 30.3963 28.3066 37.0083 64.2237C43.6203 100.141 69.5627 67.5241 69.5627 67.5241C69.5627 67.5241 63.0285 50.9829 63.8063 14.6386C64.0397 4.42654 58.0889 0 53.8883 0Z" fill="url(#paint5_linear_24_4015)"/>
<path opacity="0.5" d="M56.2999 72.3387H56.3388C56.3777 72.2999 56.4166 72.261 56.3777 72.1834C45.6429 48.4587 48.5989 17.6282 53.305 7.02785C53.3439 6.98902 53.305 6.91136 53.2661 6.87253C53.2272 6.8337 53.1495 6.87253 53.1106 6.91136C48.4044 17.5506 45.4484 48.4587 56.1832 72.2222C56.2221 72.2999 56.261 72.3387 56.2999 72.3387Z" fill="#D6B58C"/>
<path opacity="0.5" d="M48.6377 76.5711H48.6766C48.7155 76.5323 48.7544 76.4934 48.7155 76.4158C41.9868 61.816 40.8978 46.7502 41.1311 36.6934C41.3256 28.0733 42.9203 16.3857 45.9929 9.74586C46.0318 9.70703 45.9929 9.62938 45.954 9.59055C45.9151 9.55172 45.8373 9.59055 45.7984 9.62938C43.737 14.0947 41.2089 23.8409 40.8978 36.6546C40.6644 46.7502 41.7923 61.816 48.521 76.4934C48.5599 76.5711 48.5988 76.5711 48.6377 76.5711Z" fill="#D6B58C"/>
<path opacity="0.5" d="M65.9066 75.6005C65.9066 75.6005 65.9455 75.6005 65.9066 75.6005C65.9844 75.5617 66.0233 75.5228 66.0233 75.4452C54.355 41.2366 56.1053 28.8112 57.3888 19.764C57.8166 16.6965 58.2055 14.0172 57.9722 10.9886C57.9722 10.9497 57.9333 10.8721 57.8555 10.8721C57.7777 10.8721 57.7388 10.9109 57.7388 10.9886C57.9722 13.9784 57.5832 16.6188 57.1554 19.6863C55.8719 28.7724 54.1217 41.1978 65.7899 75.4452C65.8288 75.5617 65.8677 75.6005 65.9066 75.6005Z" fill="#D6B58C"/>
<path d="M53.8883 0C41.2867 0 30.3963 28.3066 37.0083 64.2237C43.6203 100.141 69.5627 67.5241 69.5627 67.5241C69.5627 67.5241 63.0285 50.9829 63.8063 14.6386C64.0397 4.42654 58.0889 0 53.8883 0Z" fill="url(#paint6_linear_24_4015)"/>
<path d="M46.7705 69.5822C55.055 64.845 58.7499 70.7471 58.7499 70.7471C58.9833 68.7279 59.3722 66.8641 59.8389 65.1556C66.6065 59.0594 75.9411 52.9632 83.7977 58.0499C77.808 56.4191 74.8521 60.069 74.8521 63.0589C74.8521 87.5213 124.092 110.003 129.382 113.731C133.349 116.527 135.799 122.545 138.638 124.526C141.517 126.506 139.3 131.67 136.888 131.36C134.36 131.01 123.625 134 118.141 134C112.657 134 64.0395 128.913 41.0531 82.9395C41.0531 82.9395 40.353 73.271 46.7705 69.5822Z" fill="url(#paint7_linear_24_4015)"/>
<path d="M121.875 118.119C121.875 118.119 128.059 119.206 130.471 124.953C132.882 130.699 134.204 130.894 136.888 131.36C134.36 131.01 123.625 134 118.141 134C112.657 134 64.0394 128.913 41.053 82.9395C41.053 82.9395 40.314 73.2321 46.7315 69.5822C55.016 64.845 58.7109 70.7471 58.7109 70.7471C64.2339 83.7549 80.3749 106.897 121.875 118.119Z" fill="url(#paint8_linear_24_4015)"/>
<path d="M41.9866 84.6865C78.0025 134 118.141 134 133.621 130.117C134.593 130.932 135.566 131.087 136.888 131.32C134.36 130.971 123.625 133.961 118.141 133.961C112.657 134 65.2841 129.03 41.9866 84.6865Z" fill="url(#paint9_linear_24_4015)"/>
<path d="M46.7705 69.5822C55.055 64.845 58.7499 70.7471 58.7499 70.7471C58.9833 68.7279 59.3722 66.8641 59.8389 65.1556C66.6065 59.0594 75.9411 52.9632 83.7977 58.0499C77.808 56.4191 74.8521 60.069 74.8521 63.0589C74.8521 87.5213 124.092 110.003 129.382 113.731C133.349 116.527 135.799 122.545 138.638 124.526C141.517 126.506 139.3 131.67 136.888 131.36C134.36 131.01 123.625 134 118.141 134C112.657 134 64.0395 128.913 41.0531 82.9395C41.0531 82.9395 40.353 73.271 46.7705 69.5822Z" fill="url(#paint10_linear_24_4015)"/>
<path d="M135.76 125.846C136.383 123.71 138.561 124.448 138.639 124.526C141.517 126.506 139.3 131.67 136.888 131.36C136.733 131.321 134.593 129.884 135.76 125.846Z" fill="url(#paint11_linear_24_4015)"/>
<path d="M60.8501 68.6112C59.3721 70.0867 61.0057 65.8543 62.0947 63.2139C63.4949 62.0879 64.9729 60.9618 66.4898 59.9911L77.2245 56.147C77.7691 56.147 78.3136 56.147 78.8581 56.2246L81.3084 56.8071C82.1641 57.1177 83.0198 57.506 83.8365 58.0496C77.8468 56.4188 74.8909 60.0687 74.8909 63.0586C74.8909 63.641 74.9298 64.1846 74.9687 64.7671C68.7845 63.0586 62.4059 67.0968 60.8501 68.6112Z" fill="url(#paint12_linear_24_4015)"/>
<path d="M45.9537 69.1935C40.0029 72.1056 41.053 82.939 41.053 82.939C39.8084 95.2867 29.657 125.108 20.4002 123.399C11.1435 121.691 21.8004 106.858 18.7667 92.0251C15.9663 78.2018 19.0779 62.7866 31.2906 62.7866C39.9251 62.7866 47.315 64.9999 52.8379 67.5238C52.8379 67.5626 49.5319 67.4461 45.9537 69.1935Z" fill="url(#paint13_radial_24_4015)"/>
<path d="M81.3473 54.5942C95.7381 55.0602 113.474 78.7072 119.386 75.4067C119.269 76.2998 118.919 76.9599 118.297 77.3482C111.724 81.5029 100.755 65.9712 86.6758 59.1372C84.4977 58.0888 82.6308 57.6617 81.0361 57.6229H80.9973C56.844 57.6229 60.5779 74.669 60.5779 74.669L58.7109 70.7084C58.7498 67.5244 59.4499 53.8564 81.3473 54.5942Z" fill="url(#paint14_linear_24_4015)"/>
<path d="M80.1415 54.866C69.2511 54.866 63.0281 58.9819 60.6555 62.7483C65.984 49.0804 77.73 44.5374 89.5149 45.3916C106.006 46.6342 120.514 68.0679 119.386 75.4066C112.462 80.6486 96.0881 54.866 80.1415 54.866Z" fill="url(#paint15_linear_24_4015)"/>
<path opacity="0.5" d="M20.828 112.139C20.8669 112.139 20.9447 112.1 20.9447 112.061C20.9836 111.945 23.3561 99.7911 22.8505 88.6859C22.4226 79.4445 24.7174 71.5234 29.0346 67.4851C31.7572 64.9224 35.2188 63.8352 39.3805 64.2623C39.4583 64.2623 39.4971 64.2235 39.4971 64.1458C39.4971 64.0681 39.4583 64.0293 39.3805 64.0293C35.1799 63.6022 31.6405 64.6894 28.8791 67.291C24.484 71.4457 22.1893 79.2116 22.6171 88.6471C23.1227 99.7134 20.7113 111.867 20.7113 111.983C20.7113 112.061 20.7502 112.139 20.828 112.139Z" fill="#D6B58C"/>
<path opacity="0.5" d="M25.5342 108.761C25.5731 108.761 25.612 108.722 25.6509 108.683C25.6898 108.567 29.7736 95.9085 29.3458 86.5894C28.9958 79.0177 30.9405 72.8827 34.8688 69.3104C37.9803 66.437 42.2975 65.311 47.3149 66.0099C47.3927 66.0099 47.4316 65.9711 47.4316 65.9322C47.4316 65.8546 47.3927 65.8158 47.3538 65.8158C42.2586 65.1168 37.9025 66.2817 34.7521 69.1939C30.7849 72.805 28.8013 79.0177 29.1513 86.6671C29.5792 95.9473 25.5342 108.528 25.4953 108.683C25.4175 108.683 25.4564 108.722 25.5342 108.761Z" fill="#D6B58C"/>
<path opacity="0.5" d="M113.707 71.7174C113.746 71.7174 113.746 71.7174 113.785 71.6786C113.824 71.6398 113.824 71.5621 113.785 71.5233C107.99 65.1164 101.106 57.9719 93.1324 54.1666C83.7589 49.7012 74.6577 50.5555 65.2453 56.807C65.2064 56.8458 65.1675 56.9235 65.2064 56.9623C65.2453 57.0011 65.3231 57.04 65.362 57.0011C74.6966 50.7884 83.7589 49.9342 93.0546 54.3996C100.989 58.2048 107.834 65.3106 113.63 71.6786C113.63 71.7174 113.668 71.7174 113.707 71.7174Z" fill="#D6B58C"/>
<path opacity="0.5" d="M111.724 66.2812C111.763 66.2812 111.763 66.2812 111.763 66.2812C111.802 66.2423 111.84 66.1647 111.802 66.1259C108.496 60.8062 102.856 53.7005 94.5326 50.167C86.5204 46.75 78.0415 47.449 69.3292 52.3026C69.2903 52.3415 69.2514 52.3803 69.2903 52.4579C69.3292 52.4968 69.407 52.5356 69.4459 52.4968C78.0804 47.6819 86.5204 46.983 94.4548 50.3612C102.7 53.8946 108.34 60.9227 111.607 66.2423C111.646 66.2423 111.685 66.2812 111.724 66.2812Z" fill="#D6B58C"/>
<path d="M39.2249 78.0469C40.5862 65.2333 54.0825 62.7482 58.7109 70.7082C58.4775 70.3587 54.7826 64.9615 46.7315 69.5821C46.3426 69.7763 46.0314 70.0093 45.6814 70.2811C40.3918 74.3581 41.0141 82.9394 41.0141 82.9394C39.7695 95.2871 29.6181 125.108 20.3613 123.4C19.8946 123.322 19.4667 123.167 19.1167 122.972C28.6846 121.536 37.4747 94.8212 39.2249 78.0469Z" fill="url(#paint16_linear_24_4015)"/>
<path d="M46.7705 69.5822C55.055 64.845 58.7499 70.7471 58.7499 70.7471C58.9833 68.7279 59.3722 66.8641 59.8389 65.1556C66.6065 59.0594 75.9411 52.9632 83.7977 58.0499C77.808 56.4191 74.8521 60.069 74.8521 63.0589C74.8521 87.5213 124.092 110.003 129.382 113.731C133.349 116.527 135.799 122.545 138.638 124.526C141.517 126.506 139.3 131.67 136.888 131.36C134.36 131.01 123.625 134 118.141 134C112.657 134 64.0395 128.913 41.0531 82.9395C41.0531 82.9395 40.353 73.271 46.7705 69.5822Z" fill="url(#paint17_radial_24_4015)"/>
<path d="M46.7705 69.5822C55.055 64.845 58.7499 70.7471 58.7499 70.7471C58.9444 71.213 60.3835 74.2029 60.6168 74.7076C49.6098 69.1551 43.5423 79.4836 42.7255 86.1234C42.1421 85.0751 41.5976 84.0655 41.0531 82.9783C41.0531 82.9394 40.353 73.271 46.7705 69.5822Z" fill="url(#paint18_linear_24_4015)"/>
<path d="M46.7705 69.5822C55.055 64.845 58.7499 70.7471 58.7499 70.7471C58.9833 68.7279 59.3722 66.8641 59.8389 65.1556C66.6065 59.0594 75.9411 52.9632 83.7977 58.0499C77.808 56.4191 74.8521 60.069 74.8521 63.0589C74.8521 87.5213 124.092 110.003 129.382 113.731C133.349 116.527 135.799 122.545 138.638 124.526C141.517 126.506 139.3 131.67 136.888 131.36C134.36 131.01 123.625 134 118.141 134C112.657 134 64.0395 128.913 41.0531 82.9395C41.0531 82.9395 40.353 73.271 46.7705 69.5822Z" fill="url(#paint19_radial_24_4015)"/>
<defs>
<linearGradient id="paint0_linear_24_4015" x1="13.2274" y1="33.2371" x2="24.7215" y2="90.2551" gradientUnits="userSpaceOnUse">
<stop stop-color="#EEAA00"/>
<stop offset="0.4643" stop-color="#F9D85B"/>
<stop offset="0.8361" stop-color="#FEF0A3"/>
</linearGradient>
<linearGradient id="paint1_linear_24_4015" x1="10.5806" y1="74.9803" x2="47.6791" y2="34.817" gradientUnits="userSpaceOnUse">
<stop stop-color="#D86D00" stop-opacity="0"/>
<stop offset="1" stop-color="#D86D00"/>
</linearGradient>
<linearGradient id="paint2_linear_24_4015" x1="23.6743" y1="34.6061" x2="33.138" y2="63.9265" gradientUnits="userSpaceOnUse">
<stop stop-color="#F1DAB9"/>
<stop offset="0.663" stop-color="#F1DAB9"/>
<stop offset="1" stop-color="#D6B58C"/>
</linearGradient>
<linearGradient id="paint3_linear_24_4015" x1="44.3402" y1="66.5371" x2="11.8907" y2="63.1099" gradientUnits="userSpaceOnUse">
<stop stop-color="#EEAA00"/>
<stop offset="0.4643" stop-color="#F9D85B"/>
</linearGradient>
<radialGradient id="paint4_radial_24_4015" cx="0" cy="0" r="1" gradientUnits="userSpaceOnUse" gradientTransform="translate(103.547 47.8222) rotate(166.671) scale(68.3301 100.642)">
<stop offset="0.6204" stop-color="#F1DAB9"/>
<stop offset="0.7658" stop-color="#FAF1DF"/>
<stop offset="0.8881" stop-color="#F1DAB9"/>
<stop offset="1" stop-color="#D6B58C"/>
</radialGradient>
<linearGradient id="paint5_linear_24_4015" x1="53.2208" y1="103.389" x2="50.5806" y2="-29.5034" gradientUnits="userSpaceOnUse">
<stop stop-color="#D6B58C"/>
<stop offset="0.0522819" stop-color="#DBBC95" stop-opacity="0.899"/>
<stop offset="0.2085" stop-color="#E7CDA9" stop-opacity="0.5972"/>
<stop offset="0.3642" stop-color="#EFD7B5" stop-opacity="0.2965"/>
<stop offset="0.5177" stop-color="#F1DAB9" stop-opacity="0"/>
<stop offset="0.6532" stop-color="#EDD5B3" stop-opacity="0.2808"/>
<stop offset="0.8418" stop-color="#E2C6A0" stop-opacity="0.672"/>
<stop offset="1" stop-color="#D6B58C"/>
</linearGradient>
<linearGradient id="paint6_linear_24_4015" x1="52.2378" y1="40.4524" x2="3.89892" y2="49.9595" gradientUnits="userSpaceOnUse">
<stop offset="0.175" stop-color="#D6B58C" stop-opacity="0"/>
<stop offset="0.5432" stop-color="#BF9969"/>
</linearGradient>
<linearGradient id="paint7_linear_24_4015" x1="5.00326" y1="-23.4263" x2="126.797" y2="160.342" gradientUnits="userSpaceOnUse">
<stop stop-color="#EEAA00"/>
<stop offset="1" stop-color="#FEF0A3"/>
</linearGradient>
<linearGradient id="paint8_linear_24_4015" x1="-92.5824" y1="3.29536" x2="140.339" y2="137.625" gradientUnits="userSpaceOnUse">
<stop stop-color="#EEAA00"/>
<stop offset="1" stop-color="#F9D85B"/>
</linearGradient>
<linearGradient id="paint9_linear_24_4015" x1="91.6356" y1="96.5121" x2="79.3131" y2="160.872" gradientUnits="userSpaceOnUse">
<stop stop-color="#D86D00" stop-opacity="0"/>
<stop offset="1" stop-color="#D86D00"/>
</linearGradient>
<linearGradient id="paint10_linear_24_4015" x1="186.494" y1="172.55" x2="85.6638" y2="93.9301" gradientUnits="userSpaceOnUse">
<stop stop-color="#97AC00"/>
<stop offset="1" stop-color="#D9C100" stop-opacity="0"/>
</linearGradient>
<linearGradient id="paint11_linear_24_4015" x1="138.569" y1="121.598" x2="136.955" y2="132.838" gradientUnits="userSpaceOnUse">
<stop stop-color="#362501"/>
<stop offset="1" stop-color="#A67B19"/>
</linearGradient>
<linearGradient id="paint12_linear_24_4015" x1="73.4905" y1="68.9197" x2="67.9889" y2="47.9786" gradientUnits="userSpaceOnUse">
<stop stop-color="#D86D00" stop-opacity="0"/>
<stop offset="1" stop-color="#D86D00"/>
</linearGradient>
<radialGradient id="paint13_radial_24_4015" cx="0" cy="0" r="1" gradientUnits="userSpaceOnUse" gradientTransform="translate(55.4506 135.248) rotate(180) scale(78.9733 78.8418)">
<stop offset="0.5023" stop-color="#F1DAB9"/>
<stop offset="0.7228" stop-color="#FAF1DF"/>
<stop offset="0.8881" stop-color="#F1DAB9"/>
<stop offset="1" stop-color="#D6B58C"/>
</radialGradient>
<linearGradient id="paint14_linear_24_4015" x1="123.587" y1="91.9882" x2="82.5585" y2="69.7455" gradientUnits="userSpaceOnUse">
<stop stop-color="#EEAA00"/>
<stop offset="0.4643" stop-color="#F9D85B"/>
</linearGradient>
<linearGradient id="paint15_linear_24_4015" x1="124.302" y1="64.1418" x2="51.1105" y2="52.2402" gradientUnits="userSpaceOnUse">
<stop stop-color="#F1DAB9"/>
<stop offset="0.4643" stop-color="#FAF1DF"/>
<stop offset="0.7143" stop-color="#F1DAB9"/>
<stop offset="1" stop-color="#D6B58C"/>
</linearGradient>
<linearGradient id="paint16_linear_24_4015" x1="25.9451" y1="131.207" x2="51.3308" y2="63.8886" gradientUnits="userSpaceOnUse">
<stop stop-color="#EEAA00"/>
<stop offset="0.4643" stop-color="#F9D85B"/>
</linearGradient>
<radialGradient id="paint17_radial_24_4015" cx="0" cy="0" r="1" gradientUnits="userSpaceOnUse" gradientTransform="translate(86.5452 97.0522) rotate(-140.056) scale(25.9369 6.55525)">
<stop stop-color="white" stop-opacity="0.5"/>
<stop offset="1" stop-color="white" stop-opacity="0"/>
</radialGradient>
<linearGradient id="paint18_linear_24_4015" x1="51.45" y1="84.4169" x2="45.6193" y2="31.302" gradientUnits="userSpaceOnUse">
<stop stop-color="#D86D00" stop-opacity="0"/>
<stop offset="1" stop-color="#D86D00"/>
</linearGradient>
<radialGradient id="paint19_radial_24_4015" cx="0" cy="0" r="1" gradientUnits="userSpaceOnUse" gradientTransform="translate(58.4423 97.6469) rotate(-125.908) scale(43.5345 11.013)">
<stop stop-color="#F29100" stop-opacity="0.5"/>
<stop offset="1" stop-color="#F29100" stop-opacity="0"/>
</radialGradient>
</defs>
</svg>
