<svg width="40" height="24" viewBox="0 0 40 24" fill="none" xmlns="http://www.w3.org/2000/svg">
<path d="M8.17604 4.39238C8.93978 3.62865 10.1824 3.62865 10.9464 4.39238C13.0606 6.50659 16.5007 6.50659 18.615 4.39238C18.985 4.02238 19.4769 3.81863 20.0002 3.81863C20.5234 3.81863 21.0154 4.02246 21.3854 4.39238C23.4996 6.50659 26.9398 6.50659 29.054 4.39238C29.424 4.02238 29.9159 3.81863 30.4392 3.81863C30.9624 3.81863 31.4544 4.02246 31.8244 4.39238C32.8486 5.41658 34.2103 5.98064 35.6586 5.98064C37.1071 5.98064 38.4688 5.41658 39.493 4.39238C40.1693 3.71602 40.1692 2.61951 39.4929 1.94324C38.8165 1.26687 37.72 1.26687 37.0437 1.94324C36.6738 2.31324 36.1819 2.51699 35.6586 2.51699C35.1353 2.51699 34.6434 2.31315 34.2735 1.94332C33.2494 0.919122 31.8876 0.355067 30.4392 0.35498C30.4391 0.35498 30.4392 0.35498 30.4392 0.35498C28.9908 0.35498 27.629 0.919122 26.6048 1.94324C25.8411 2.70706 24.5982 2.70688 23.8346 1.94332C22.8105 0.919122 21.4487 0.355067 20.0003 0.35498C20.0002 0.35498 20.0003 0.35498 20.0002 0.35498C18.5519 0.35498 17.1901 0.919122 16.1659 1.94324C15.4022 2.70706 14.1592 2.70697 13.3957 1.94324C11.2814 -0.171061 7.8412 -0.171061 5.72699 1.94324C4.96325 2.70697 3.72049 2.70697 2.95659 1.94324C2.28022 1.26687 1.18372 1.26687 0.507441 1.94324C-0.168836 2.6196 -0.168836 3.7161 0.507528 4.39238C2.62157 6.50659 6.06166 6.50659 8.17604 4.39238Z" fill="#2DF3E7"/>
<path d="M37.0437 10.7755C36.6738 11.1455 36.1819 11.3493 35.6586 11.3493C35.1353 11.3493 34.6434 11.1454 34.2735 10.7756C33.2494 9.7514 31.8876 9.18734 30.4392 9.18726C30.4391 9.18726 30.4392 9.18726 30.4392 9.18726C28.9908 9.18726 27.629 9.7514 26.6048 10.7755C25.8411 11.5393 24.5982 11.5392 23.8346 10.7756C22.8105 9.7514 21.4487 9.18734 20.0003 9.18726C20.0002 9.18726 20.0003 9.18726 20.0002 9.18726C18.5519 9.18726 17.1901 9.7514 16.1659 10.7755C15.4022 11.5393 14.1592 11.5392 13.3957 10.7755C11.2814 8.66121 7.8412 8.66121 5.72699 10.7755C4.96325 11.5392 3.72049 11.5392 2.95659 10.7755C2.28022 10.0991 1.18372 10.0991 0.507441 10.7755C-0.168836 11.4519 -0.168836 12.5484 0.507528 13.2247C2.62174 15.3389 6.06183 15.3389 8.17622 13.2247C8.93995 12.4609 10.1826 12.4609 10.9465 13.2247C13.0607 15.3389 16.5009 15.3389 18.6151 13.2247C18.9851 12.8547 19.4771 12.6509 20.0003 12.6509C20.5236 12.6509 21.0155 12.8547 21.3855 13.2247C23.4997 15.3389 26.9399 15.3389 29.0541 13.2247C29.4241 12.8547 29.9161 12.6509 30.4393 12.6509C30.9626 12.6509 31.4545 12.8547 31.8245 13.2247C32.8487 14.2489 34.2105 14.8129 35.6588 14.8129C37.1073 14.8129 38.4689 14.2489 39.4931 13.2247C40.1695 12.5483 40.1694 11.4518 39.493 10.7755C38.8165 10.0991 37.72 10.0991 37.0437 10.7755Z" fill="#2DF3E7"/>
<path d="M37.0437 19.6078C36.6738 19.9778 36.1819 20.1815 35.6586 20.1815C35.1353 20.1815 34.6434 19.9777 34.2735 19.6079C33.2494 18.5837 31.8876 18.0196 30.4392 18.0195C30.4391 18.0195 30.4392 18.0195 30.4392 18.0195C28.9908 18.0195 27.629 18.5837 26.6048 19.6078C25.8411 20.3716 24.5982 20.3714 23.8346 19.6079C22.8105 18.5837 21.4487 18.0196 20.0003 18.0195C20.0002 18.0195 20.0003 18.0195 20.0002 18.0195C18.5519 18.0195 17.1901 18.5837 16.1659 19.6078C15.4022 20.3715 14.1592 20.3716 13.3957 19.6078C11.2814 17.4935 7.8412 17.4935 5.72699 19.6078C4.96325 20.3715 3.72049 20.3715 2.95659 19.6078C2.28022 18.9314 1.18372 18.9314 0.507441 19.6078C-0.168836 20.2842 -0.168836 21.3807 0.507528 22.0569C2.62174 24.1711 6.06183 24.1711 8.17622 22.0569C8.93995 21.2932 10.1826 21.2932 10.9465 22.0569C13.0607 24.1711 16.5009 24.1711 18.6151 22.0569C18.9851 21.6869 19.4771 21.4832 20.0003 21.4832C20.5236 21.4832 21.0155 21.687 21.3855 22.0569C23.4997 24.1711 26.9399 24.1711 29.0541 22.0569C29.4241 21.6869 29.9161 21.4832 30.4393 21.4832C30.9626 21.4832 31.4545 21.687 31.8245 22.0569C32.8487 23.0811 34.2105 23.6452 35.6588 23.6452C37.1073 23.6452 38.4689 23.0811 39.4931 22.0569C40.1695 21.3806 40.1694 20.2841 39.493 19.6078C38.8165 18.9314 37.72 18.9314 37.0437 19.6078Z" fill="#2DF3E7"/>
</svg>
