<svg width="24" height="40" viewBox="0 0 24 40" fill="none" xmlns="http://www.w3.org/2000/svg">
<path d="M23.6073 0.579405C23.4221 0.224862 23.0552 0 22.655 0H6.9538C6.47897 0 6.06053 0.314269 5.92467 0.769094L0.315885 19.5647C0.218825 19.8899 0.281115 20.2398 0.483826 20.5118C0.686537 20.7839 1.00591 20.9423 1.34501 20.9423H10.1487L6.60208 38.7138C6.49884 39.2306 6.78586 39.7471 7.27961 39.9314C7.40272 39.9773 7.52971 40 7.65496 40C8.03166 40 8.39278 39.8013 8.58851 39.4576L22.4198 15.1688C22.6091 14.8363 22.6073 14.426 22.415 14.0953C22.2228 13.7645 21.8692 13.5588 21.4866 13.5588H15.2586L23.536 1.68948C23.7649 1.36125 23.7924 0.934216 23.6073 0.579405Z" fill="#FAFF14"/>
</svg>
