<svg width="140" height="136" viewBox="0 0 140 136" fill="none" xmlns="http://www.w3.org/2000/svg">
<path d="M97.8467 8.84644C97.8467 8.84644 83.4707 15.0165 82.2601 31.6719C81.3522 43.9742 97.3928 38.9018 97.3928 38.9018C97.3928 38.9018 103.711 19.4453 97.8467 8.84644Z" fill="url(#paint0_radial_14_1918)"/>
<path d="M91.7178 29.8928C91.7178 37.0849 94.3282 39.3561 97.7331 37.577C99.0194 33.0724 102.765 17.8176 97.8088 8.84644C97.8466 8.84644 91.7178 16.0385 91.7178 29.8928Z" fill="url(#paint1_radial_14_1918)"/>
<path d="M80.6331 19.2185C97.3168 14.5625 107.115 31.7479 100.154 42.2332C100.154 42.2332 98.2248 34.1326 92.8527 31.4829C87.4806 28.8332 81.0492 33.262 81.0492 33.262L75.3745 27.5462L80.6331 19.2185Z" fill="url(#paint2_radial_14_1918)"/>
<path d="M83.3948 97.1963C83.3948 97.1963 79.4224 112.262 79.4224 119.492C79.4224 126.722 75.8284 133.952 69.2079 135.314C62.5874 136.677 24.3775 138.191 14.7304 116.501L15.1844 108.666L50.2543 24.2155C84.1136 12.9353 108.704 39.1296 119.448 66.0432C127.317 85.8025 147.33 92.4268 136.926 110.937C128.15 126.608 108.931 128.084 98.5652 107.341C94.7821 99.846 89.41 97.9534 83.3948 97.1963Z" fill="url(#paint3_radial_14_1918)"/>
<path opacity="0.75" d="M83.3948 97.1963C83.3948 97.1963 79.4224 112.262 79.4224 119.492C79.4224 126.722 75.8284 133.952 69.2079 135.314C62.5874 136.677 24.3775 138.191 14.7304 116.501L15.1844 108.666L50.2543 24.2155C84.1136 12.9353 108.704 39.1296 119.448 66.0432C127.317 85.8025 147.33 92.4268 136.926 110.937C128.15 126.608 108.931 128.084 98.5652 107.341C94.7821 99.846 89.41 97.9534 83.3948 97.1963Z" fill="url(#paint4_radial_14_1918)"/>
<path opacity="0.75" d="M83.3948 97.1963C83.3948 97.1963 79.4224 112.262 79.4224 119.492C79.4224 126.722 75.8284 133.952 69.2079 135.314C62.5874 136.677 24.3775 138.191 14.7304 116.501L15.1844 108.666L50.2543 24.2155C84.1136 12.9353 108.704 39.1296 119.448 66.0432C127.317 85.8025 147.33 92.4268 136.926 110.937C128.15 126.608 108.931 128.084 98.5652 107.341C94.7821 99.846 89.41 97.9534 83.3948 97.1963Z" fill="url(#paint5_radial_14_1918)"/>
<path d="M80.3305 24.9734C98.3384 28.948 95.6523 44.657 86.0431 50.0322C85.9296 50.1079 85.8161 49.9943 85.8539 49.8808C86.1944 48.4423 87.4429 42.348 84.8703 38.4491C81.9194 33.9824 75.0719 34.6638 75.0719 34.6638L73.2182 27.6231L80.3305 24.9734Z" fill="url(#paint6_radial_14_1918)"/>
<path d="M75.5258 22.4355L69.8132 24.5932C41.4773 35.2299 21.1239 60.5158 16.9625 90.4955C15.3735 101.927 14.8817 111.277 14.7304 114.873C16.5463 113.813 18.5136 113.851 20.3295 116.273C25.5124 123.352 29.1442 122.898 26.723 120.475C24.3018 118.053 22.8264 109.195 24.9071 107.832C26.9878 106.469 31.9816 101.057 35.2729 94.8865C38.5643 88.7164 36.3322 78.6096 38.1481 78.1932C52.4863 74.7864 55.6642 58.5474 56.4208 58.1689C66.1057 53.2101 68.7539 40.0751 69.2457 38.9017L82.2219 24.3282C80.0655 23.5711 77.8335 22.9276 75.5258 22.4355Z" fill="url(#paint7_radial_14_1918)"/>
<path d="M136.889 110.899C128.112 126.57 108.893 128.047 98.5274 107.303C94.8199 99.8459 89.4479 97.9533 83.3948 97.2341V97.3098C73.5964 96.1363 61.8686 97.6505 51.8432 82.3578C51.8432 82.3578 44.9579 73.2352 60.0149 72.9702C78.1362 72.6674 77.3796 82.8877 83.9244 85.1589C94.9713 88.9442 105.224 88.7928 108.401 97.0827C111.542 105.335 136.889 110.899 136.889 110.899Z" fill="url(#paint8_radial_14_1918)"/>
<path d="M31.2251 77.5877C34.5921 93.8645 26.0043 116.69 0.657153 111.807C-0.0616468 111.656 -0.250805 110.823 0.392332 110.596C5.23478 108.93 11.8553 101.776 13.4064 81.7515C14.39 69.4114 21.5024 70.1685 31.9439 71.7583C42.3854 73.3481 31.2251 77.5877 31.2251 77.5877Z" fill="url(#paint9_linear_14_1918)"/>
<path d="M32.1708 73.8789L17.2652 85.4998L12.7632 87.6196C11.9688 92.8812 10.8338 97.045 9.43405 100.3C10.796 103.896 13.3307 107.379 17.303 110.483C19.8377 109.385 21.9941 107.871 23.8479 106.054C23.7344 105.713 23.6587 105.524 23.6587 105.524L24.5667 105.297C25.4746 104.313 26.3069 103.215 27.0636 102.079C27.1392 97.4614 27.8202 88.036 31.9438 84.6671C31.9438 82.2445 31.7169 79.8218 31.2629 77.5507C31.2629 77.5507 32.9653 76.9072 34.4029 76.0365C33.268 74.7874 32.1708 73.8789 32.1708 73.8789Z" fill="url(#paint10_linear_14_1918)"/>
<path d="M78.7036 27.5084C82.4489 26.0321 82.9029 21.9818 79.1198 20.5813C61.5281 14.0705 46.1684 22.7767 40.1154 35.344C27.2526 61.9926 12.5739 62.9389 11.9686 87.5434C11.5147 106.47 23.7343 118.204 25.7015 118.962C28.0849 119.87 24.0369 110.293 25.2097 93.1078C26.1933 79.14 38.9047 75.0141 42.0826 70.5852C45.2605 66.1564 59.069 35.1926 59.069 35.1926L78.7036 27.5084Z" fill="url(#paint11_linear_14_1918)"/>
<path d="M21.0861 97.4986C10.0393 67.5189 42.9149 58.3584 44.2012 41.0596C45.7523 20.581 67.7703 20.6189 79.0819 20.6189C61.4902 14.1081 44.9957 21.6409 38.9048 34.2081C26.042 60.8567 12.5362 62.9765 11.9309 87.581C11.4769 106.508 24.3396 118.621 25.6637 118.999C25.7016 118.961 29.3334 119.87 21.0861 97.4986Z" fill="url(#paint12_linear_14_1918)"/>
<path d="M78.7038 27.5083C73.029 18.6507 63.9116 26.7134 55.1725 34.7383C52.5243 37.1987 47.9845 36.101 47.3792 39.7349C45.4498 38.7129 43.6717 37.1987 42.3476 35.4575C41.6666 34.549 39.8885 40.3405 45.412 45.2615C46.0551 45.8293 46.3578 46.6999 46.2064 47.5326C45.639 50.7502 44.731 54.1569 42.8772 57.6773C39.9642 57.7908 37.2782 57.1473 35.5757 56.5795C34.9704 56.3903 34.5165 57.0716 34.8948 57.5637C35.9162 58.8886 37.1268 60.1377 37.8456 60.8948C38.2996 61.349 38.451 62.0304 38.1861 62.636C37.1647 64.9072 35.1596 67.5948 32.5492 69.6767C29.447 72.1372 27.0258 74.749 25.1721 77.4745C23.9614 77.3609 22.8643 77.2473 21.9942 77.0959C21.1241 76.9824 20.5944 77.5502 21.1241 78.0423C21.6915 78.5722 22.3347 79.0264 22.94 79.4807C23.3183 79.7457 23.4696 80.2756 23.2426 80.692C17.5301 92.0101 18.7029 107.606 26.4205 115.933C25.2099 108.665 24.6424 101.473 25.2099 93.1457C25.5125 88.7925 26.9501 85.4236 28.8796 82.6982C30.3172 80.6541 32.0196 78.9886 33.7598 77.5123C37.1647 74.6355 40.6452 72.6671 42.0828 70.623C42.6881 69.7903 43.6717 68.0112 44.8445 65.6264C46.2443 62.8632 47.9467 59.3428 49.6869 55.6711C50.7084 53.5513 51.692 51.3558 52.6756 49.236C54.4159 45.4507 56.0426 41.9304 57.1776 39.3564C58.3125 36.8202 59.0313 35.2304 59.0313 35.2304L78.7038 27.5083Z" fill="url(#paint13_linear_14_1918)"/>
<path d="M105.905 102.23C101.668 107.53 102.311 115.214 107.759 119.226C117.936 126.759 130.307 122.974 136.889 111.239C139.916 105.826 140.521 101.398 139.613 97.3851C139.046 94.8868 136.057 90.1173 135.868 90.1173C130.836 89.3224 129.626 92.5399 126.75 93.0698C123.459 93.6755 121.378 92.1235 114.758 93.9405C108.137 95.7574 107.683 99.1642 106.473 101.36C106.283 101.7 106.094 101.965 105.905 102.23Z" fill="url(#paint14_radial_14_1918)"/>
<path d="M119.221 106.28C118.465 103.63 121.416 101.965 119.524 101.284C117.632 100.602 115.325 102.116 114.379 104.69C113.433 107.264 114.228 109.914 116.157 110.595C118.049 111.277 119.94 108.778 119.221 106.28Z" fill="url(#paint15_radial_14_1918)"/>
<path d="M108.742 110.975C107.38 109.272 106.018 114.155 108.893 114.533C111.579 114.874 114.492 121.839 129.209 119.871C130.306 119.114 131.327 118.281 132.311 117.297C132.008 117.41 118.389 123.012 108.742 110.975Z" fill="url(#paint16_linear_14_1918)"/>
<path opacity="0.5" d="M83.395 97.3098C73.5966 96.0985 61.8688 97.6127 51.8435 82.32C51.049 81.1087 49.1953 81.9793 49.6114 83.342C50.4059 86.0296 51.9191 89.2471 54.9457 92.3889C67.8462 105.827 78.6661 102.306 75.8287 119C73.9371 130.166 64.2901 136.299 69.2082 135.277C75.8287 133.914 79.4227 126.684 79.4227 119.454C79.3849 112.603 83.4328 98.7104 83.395 97.3098Z" fill="url(#paint17_radial_14_1918)"/>
<path d="M79.8765 61.501C78.4389 65.0592 80.1035 70.2073 84.719 69.6773C87.5185 69.3745 89.1075 67.5954 89.4101 64.9078C89.7506 61.9553 88.4643 58.8513 86.1188 57.9428C83.7732 57.0343 81.0115 58.662 79.8765 61.501Z" fill="url(#paint18_radial_14_1918)"/>
<path d="M79.8764 61.5008C78.7792 64.3776 79.8007 67.4059 82.1841 68.3144C84.5296 69.2228 87.3292 67.633 88.4263 64.7562C89.5234 61.8793 88.5019 58.8511 86.1186 57.9426C83.773 57.0341 80.9735 58.6239 79.8764 61.5008Z" fill="url(#paint19_radial_14_1918)"/>
<path d="M82.6381 60.441C82.2976 61.3495 82.6003 62.3337 83.3569 62.5986C84.1135 62.8636 84.9837 62.3715 85.3242 61.463C85.6647 60.5545 85.362 59.5704 84.6054 59.3054C83.8866 59.0404 82.9786 59.5325 82.6381 60.441Z" fill="url(#paint20_linear_14_1918)"/>
<path d="M54.0377 54.3462C55.0592 71.6072 36.7487 84.5152 20.7459 77.853C20.1028 77.588 20.2919 76.9067 21.1242 76.6417C24.9074 75.4304 32.6629 72.5157 36.3325 68.1247C41.2885 62.1818 39.5861 57.1095 39.5861 57.1095L44.9581 58.5857L54.0377 54.3462Z" fill="url(#paint21_linear_14_1918)"/>
<path d="M47.3791 57.639C47.3413 57.6011 47.3035 57.5254 47.2656 57.4876L44.9958 58.5474L39.6237 57.0712C39.6237 57.0712 41.3261 62.1435 36.3701 68.0864C32.7005 72.4774 24.9072 75.3921 21.1618 76.6034C20.67 76.7548 20.4052 77.0955 20.4052 77.3604C26.2313 78.761 33.7219 77.5876 37.9591 75.657C45.2606 72.3638 51.238 62.9384 47.3791 57.639Z" fill="url(#paint22_linear_14_1918)"/>
<path d="M39.5859 57.0716C39.5859 57.0716 40.4939 59.8349 39.0185 63.6581C44.1636 65.0208 50.7463 62.636 53.4701 60.5162C53.962 58.5857 54.1511 56.5038 54.0376 54.3462L44.958 58.51L39.5859 57.0716Z" fill="url(#paint23_linear_14_1918)"/>
<path d="M100.003 42.7628L98.49 45.9803C98.49 45.9803 104.732 48.895 108.023 46.5103C111.315 44.1255 104.467 41.2108 104.467 41.2108L100.003 42.7628Z" fill="url(#paint24_radial_14_1918)"/>
<path d="M67.8081 37.2367C59.9769 52.605 53.9995 66.6107 35.0837 56.6174C34.5541 56.3525 34.7054 55.4818 35.2729 55.444C39.7749 54.9519 50.0272 52.5672 50.2542 40.6434C50.4812 29.0225 66.484 22.6254 74.4664 26.3728C82.4489 30.1203 67.8081 37.2367 67.8081 37.2367Z" fill="url(#paint25_linear_14_1918)"/>
<path d="M35.0837 56.6171C53.9995 66.6482 59.9769 52.6047 67.8081 37.2363C67.8081 37.2363 73.899 34.2459 76.0554 31.1419C72.1209 30.4984 67.8081 32.7318 64.0249 41.4758C54.3779 63.7713 37.1645 56.39 35.2729 55.4436C34.7054 55.4815 34.5541 56.3521 35.0837 56.6171Z" fill="url(#paint26_linear_14_1918)"/>
<path d="M139.613 97.4227C139.424 97.3091 139.235 97.2334 139.008 97.1956C137.759 97.5362 137.759 99.5803 138.44 100.602C139.121 101.624 137.078 103.744 139.008 105.183C139.197 105.069 139.348 104.955 139.462 104.842C140.143 102.192 140.105 99.7317 139.613 97.4227Z" fill="url(#paint27_radial_14_1918)"/>
<path d="M122.702 17.2882L129.814 7.78707C128.641 6.34865 127.658 5.02379 126.863 3.85034L117.973 10.4368L116.913 13.6164L122.702 17.2882Z" fill="url(#paint28_linear_14_1918)"/>
<path d="M101.667 45.5642L105.867 39.9241C98.8679 34.5111 96.598 29.3252 95.9171 26.7134L89.3344 31.5964C88.8048 31.975 88.5778 32.6563 88.7291 33.262C89.4857 36.101 92.2096 44.8829 100.079 46.2077C100.684 46.2456 101.289 46.0185 101.667 45.5642Z" fill="url(#paint29_linear_14_1918)"/>
<path d="M105.867 39.8859L111.088 32.8831C106.699 29.2492 104.24 24.4418 103.067 21.4136L95.9551 26.6752C95.9172 30.7633 99.4356 36.6684 105.867 39.8859Z" fill="url(#paint30_linear_14_1918)"/>
<path d="M117.103 24.7823L122.702 17.2495C119.978 15.0919 118.351 12.2529 117.935 10.3602L110.785 15.6597L109.537 24.0252L117.103 24.7823Z" fill="url(#paint31_linear_14_1918)"/>
<path d="M111.087 32.8833L117.103 24.7828C113.13 22.0952 111.125 18.272 110.785 15.6602L103.067 21.376C103.218 24.5935 105.98 29.2494 111.087 32.8833Z" fill="url(#paint32_linear_14_1918)"/>
<path d="M124.593 5.47789C124.593 6.76489 126.258 8.88467 127.922 10.2852L129.057 8.73326L133.711 2.48749C134.165 1.88184 134.127 1.08693 133.635 0.519129C133.105 -0.0865214 132.197 -0.162228 131.554 0.29201L124.593 5.47789Z" fill="url(#paint33_linear_14_1918)"/>
<path opacity="0.48" d="M133.637 0.558313C133.107 -0.0473369 132.199 -0.123043 131.556 0.331195L89.3736 31.56C88.8439 31.9386 88.6169 32.6199 88.7683 33.2256C89.5249 36.0646 92.2488 44.8465 100.118 46.1714C100.685 46.2849 101.291 46.0578 101.669 45.5657L133.712 2.52668C134.166 1.92103 134.128 1.08826 133.637 0.558313Z" fill="url(#paint34_radial_14_1918)"/>
<path opacity="0.75" d="M133.637 0.558313C133.107 -0.0473369 132.199 -0.123043 131.556 0.331195L89.3736 31.56C88.8439 31.9386 88.6169 32.6199 88.7683 33.2256C89.5249 36.0646 92.2488 44.8465 100.118 46.1714C100.685 46.2849 101.291 46.0578 101.669 45.5657L133.712 2.52668C134.166 1.92103 134.128 1.08826 133.637 0.558313Z" fill="url(#paint35_radial_14_1918)"/>
<path d="M88.7666 33.2242C89.2584 35.0411 90.5447 39.2428 93.4198 42.4225C98.8676 37.5773 96.0302 30.9151 92.8145 28.9846L89.3341 31.5586C88.8422 31.9372 88.6153 32.5807 88.7666 33.2242Z" fill="url(#paint36_linear_14_1918)"/>
<path d="M80.4818 22.3612C98.4897 26.3358 95.8037 42.0448 86.1944 47.42C86.0809 47.4957 85.9674 47.3821 86.0053 47.2686C86.3457 45.8302 87.5942 39.7358 85.0216 35.8369C82.0708 31.3703 75.2232 32.0516 75.2232 32.0516L73.3695 25.0109L80.4818 22.3612Z" fill="url(#paint37_radial_14_1918)"/>
<path d="M67.5432 37.7668C64.1005 36.6312 59.7499 35.912 59.7499 35.912L50.6703 37.6911C50.4055 38.6374 50.292 39.5837 50.2542 40.6058C50.2164 42.4227 49.9515 44.0504 49.4976 45.451C53.4699 46.738 59.1068 46.1323 63.987 44.6939C65.1598 42.4984 66.3326 40.1515 67.5432 37.7668Z" fill="url(#paint38_linear_14_1918)"/>
<path d="M73.1801 18.2351C66.2948 18.8029 61.3388 26.1464 58.0853 31.7108C54.8318 37.2752 47.6816 36.9345 42.6878 34.0199C41.4772 33.3006 42.65 42.6125 55.2479 42.8396C66.9001 43.0667 70.5697 36.5939 70.7589 29.2125C70.9102 21.869 73.1801 18.2351 73.1801 18.2351Z" fill="url(#paint39_radial_14_1918)"/>
<path d="M59.9012 40.0002C53.4698 41.6657 47.1519 39.8488 42.3095 34.3222C42.1203 35.9877 44.6172 42.612 55.21 42.8391C66.8622 43.0663 70.5318 36.5934 70.721 29.212C70.7967 25.616 71.402 22.9284 71.9694 21.0736C64.9706 24.8968 66.7108 38.2589 59.9012 40.0002Z" fill="url(#paint40_linear_14_1918)"/>
<path d="M78.6665 7.55994C78.6665 7.55994 65.8795 13.3515 67.6197 36.1769C67.771 38.1831 68.3385 39.5837 69.1708 40.53C72.9161 44.8453 82.0713 39.4701 82.0713 39.4701C82.0713 39.4701 86.3085 27.0922 78.6665 7.55994Z" fill="url(#paint41_radial_14_1918)"/>
<path d="M77.1529 37.1989C79.0823 37.4261 80.0281 36.7826 80.7469 35.8362C81.4657 34.9278 81.844 33.83 81.9575 32.6944C82.5628 27.3193 83.0924 18.9537 78.6661 7.55994C70.608 19.4837 67.5058 36.1391 77.1529 37.1989Z" fill="url(#paint42_radial_14_1918)"/>
<defs>
<radialGradient id="paint0_radial_14_1918" cx="0" cy="0" r="1" gradientUnits="userSpaceOnUse" gradientTransform="translate(93.1964 27.9089) scale(29.2193 29.2359)">
<stop stop-color="white"/>
<stop offset="1" stop-color="#E0DBEC"/>
</radialGradient>
<radialGradient id="paint1_radial_14_1918" cx="0" cy="0" r="1" gradientUnits="userSpaceOnUse" gradientTransform="translate(100.614 19.3514) rotate(110.545) scale(30.8667 14.5812)">
<stop stop-color="#FC5B54" stop-opacity="0"/>
<stop offset="0.12" stop-color="#EB4E65" stop-opacity="0.12"/>
<stop offset="0.5274" stop-color="#B6249A" stop-opacity="0.5274"/>
<stop offset="0.8331" stop-color="#950ABB" stop-opacity="0.8331"/>
<stop offset="1" stop-color="#8800C7"/>
</radialGradient>
<radialGradient id="paint2_radial_14_1918" cx="0" cy="0" r="1" gradientUnits="userSpaceOnUse" gradientTransform="translate(70.7456 2.41764) scale(29.5159 29.5327)">
<stop stop-color="#BB62AD"/>
<stop offset="0.2371" stop-color="#B95FAE"/>
<stop offset="0.4317" stop-color="#B455B1"/>
<stop offset="0.6112" stop-color="#AB43B5"/>
<stop offset="0.7816" stop-color="#9F2BBC"/>
<stop offset="0.9442" stop-color="#8E0CC4"/>
<stop offset="1" stop-color="#8800C7"/>
</radialGradient>
<radialGradient id="paint3_radial_14_1918" cx="0" cy="0" r="1" gradientUnits="userSpaceOnUse" gradientTransform="translate(65.0024 73.0478) rotate(52.0298) scale(103.761 102.757)">
<stop stop-color="white"/>
<stop offset="0.3621" stop-color="#FCFCFD"/>
<stop offset="0.659" stop-color="#F3F2F8"/>
<stop offset="0.9322" stop-color="#E5E1EF"/>
<stop offset="1" stop-color="#E0DBEC"/>
</radialGradient>
<radialGradient id="paint4_radial_14_1918" cx="0" cy="0" r="1" gradientUnits="userSpaceOnUse" gradientTransform="translate(127.672 67.2286) rotate(52.0298) scale(103.857 20.6031)">
<stop stop-color="#D1F2FF" stop-opacity="0.4"/>
<stop offset="0.4739" stop-color="#BFEDFF" stop-opacity="0.2105"/>
<stop offset="1" stop-color="#B0E9FF" stop-opacity="0"/>
</radialGradient>
<radialGradient id="paint5_radial_14_1918" cx="0" cy="0" r="1" gradientUnits="userSpaceOnUse" gradientTransform="translate(81.3335 156.945) scale(65.8988 65.9362)">
<stop stop-color="#EF708C" stop-opacity="0.4"/>
<stop offset="1" stop-color="#EF708C" stop-opacity="0"/>
</radialGradient>
<radialGradient id="paint6_radial_14_1918" cx="0" cy="0" r="1" gradientUnits="userSpaceOnUse" gradientTransform="translate(104.486 36.0278) scale(25.0264 25.0406)">
<stop stop-color="#D098C5"/>
<stop offset="0.2785" stop-color="#D19BC7" stop-opacity="0.8608"/>
<stop offset="0.5069" stop-color="#D3A5CD" stop-opacity="0.7465"/>
<stop offset="0.7177" stop-color="#D7B7D7" stop-opacity="0.6412"/>
<stop offset="0.9166" stop-color="#DDCFE5" stop-opacity="0.5417"/>
<stop offset="1" stop-color="#E0DBEC" stop-opacity="0.5"/>
</radialGradient>
<radialGradient id="paint7_radial_14_1918" cx="0" cy="0" r="1" gradientUnits="userSpaceOnUse" gradientTransform="translate(35.3122 59.9269) rotate(120.754) scale(112.997 27.9098)">
<stop stop-color="#D098C5"/>
<stop offset="0.2785" stop-color="#D19BC7" stop-opacity="0.8608"/>
<stop offset="0.5069" stop-color="#D3A5CD" stop-opacity="0.7465"/>
<stop offset="0.7177" stop-color="#D7B7D7" stop-opacity="0.6412"/>
<stop offset="0.9166" stop-color="#DDCFE5" stop-opacity="0.5417"/>
<stop offset="1" stop-color="#E0DBEC" stop-opacity="0.5"/>
</radialGradient>
<radialGradient id="paint8_radial_14_1918" cx="0" cy="0" r="1" gradientUnits="userSpaceOnUse" gradientTransform="translate(72.5846 86.1572) rotate(108.568) scale(16.8735 48.1053)">
<stop stop-color="#F9F9FC" stop-opacity="0"/>
<stop offset="0.3911" stop-color="#F6F6FA" stop-opacity="0.3911"/>
<stop offset="0.7115" stop-color="#EEECF5" stop-opacity="0.7115"/>
<stop offset="1" stop-color="#E0DBEC"/>
</radialGradient>
<linearGradient id="paint9_linear_14_1918" x1="50.0954" y1="117.66" x2="9.60439" y2="85.6164" gradientUnits="userSpaceOnUse">
<stop/>
<stop offset="1" stop-color="#8800C7"/>
</linearGradient>
<linearGradient id="paint10_linear_14_1918" x1="-0.751687" y1="57.1531" x2="32.1105" y2="102.976" gradientUnits="userSpaceOnUse">
<stop/>
<stop offset="1" stop-opacity="0"/>
</linearGradient>
<linearGradient id="paint11_linear_14_1918" x1="-14.2357" y1="4.32129" x2="49.1965" y2="66.4905" gradientUnits="userSpaceOnUse">
<stop stop-color="#BB62AD"/>
<stop offset="0.2802" stop-color="#A94BAB"/>
<stop offset="0.8671" stop-color="#7B0FA4"/>
<stop offset="1" stop-color="#7000A3"/>
</linearGradient>
<linearGradient id="paint12_linear_14_1918" x1="-2.52565" y1="-46.413" x2="64.8305" y2="101.168" gradientUnits="userSpaceOnUse">
<stop stop-color="#BB62AD"/>
<stop offset="0.2802" stop-color="#A94BAB"/>
<stop offset="0.8671" stop-color="#7B0FA4"/>
<stop offset="1" stop-color="#7000A3"/>
</linearGradient>
<linearGradient id="paint13_linear_14_1918" x1="256.184" y1="72.0813" x2="-14.3686" y2="69.1099" gradientUnits="userSpaceOnUse">
<stop/>
<stop offset="1" stop-opacity="0"/>
</linearGradient>
<radialGradient id="paint14_radial_14_1918" cx="0" cy="0" r="1" gradientUnits="userSpaceOnUse" gradientTransform="translate(131.005 89.0576) scale(31.8563 31.8744)">
<stop stop-color="#BB62AD"/>
<stop offset="0.2371" stop-color="#B95FAD"/>
<stop offset="0.4317" stop-color="#B155AC"/>
<stop offset="0.6112" stop-color="#A443AA"/>
<stop offset="0.7816" stop-color="#912BA7"/>
<stop offset="0.9442" stop-color="#7A0CA4"/>
<stop offset="1" stop-color="#7000A3"/>
</radialGradient>
<radialGradient id="paint15_radial_14_1918" cx="0" cy="0" r="1" gradientUnits="userSpaceOnUse" gradientTransform="translate(116.413 109.304) rotate(-70.4321) scale(15.4877 9.42938)">
<stop stop-color="#7000A3"/>
<stop offset="1"/>
</radialGradient>
<linearGradient id="paint16_linear_14_1918" x1="120.174" y1="108.87" x2="118.937" y2="126.857" gradientUnits="userSpaceOnUse">
<stop stop-color="#391838"/>
<stop offset="0.2285" stop-color="#3B173B"/>
<stop offset="0.4159" stop-color="#401545"/>
<stop offset="0.5889" stop-color="#491157"/>
<stop offset="0.7532" stop-color="#550C6F"/>
<stop offset="0.9098" stop-color="#65058E"/>
<stop offset="1" stop-color="#7000A3"/>
</linearGradient>
<radialGradient id="paint17_radial_14_1918" cx="0" cy="0" r="1" gradientUnits="userSpaceOnUse" gradientTransform="translate(96.7512 110.13) scale(62.0482 62.0836)">
<stop stop-color="#D098C5"/>
<stop offset="0.2785" stop-color="#D19BC7" stop-opacity="0.7215"/>
<stop offset="0.5069" stop-color="#D3A5CD" stop-opacity="0.4931"/>
<stop offset="0.7177" stop-color="#D7B7D7" stop-opacity="0.2823"/>
<stop offset="0.9166" stop-color="#DDCFE5" stop-opacity="0.0834284"/>
<stop offset="1" stop-color="#E0DBEC" stop-opacity="0"/>
</radialGradient>
<radialGradient id="paint18_radial_14_1918" cx="0" cy="0" r="1" gradientUnits="userSpaceOnUse" gradientTransform="translate(85.3786 62.387) rotate(112.314) scale(6.01577 4.99531)">
<stop stop-color="#D098C5"/>
<stop offset="0.2785" stop-color="#D19BC7" stop-opacity="0.8608"/>
<stop offset="0.5069" stop-color="#D3A5CD" stop-opacity="0.7465"/>
<stop offset="0.7177" stop-color="#D7B7D7" stop-opacity="0.6412"/>
<stop offset="0.9166" stop-color="#DDCFE5" stop-opacity="0.5417"/>
<stop offset="1" stop-color="#E0DBEC" stop-opacity="0.5"/>
</radialGradient>
<radialGradient id="paint19_radial_14_1918" cx="0" cy="0" r="1" gradientUnits="userSpaceOnUse" gradientTransform="translate(84.9087 61.8383) rotate(112.314) scale(5.47212 4.54387)">
<stop stop-color="#512D00"/>
<stop offset="1"/>
</radialGradient>
<linearGradient id="paint20_linear_14_1918" x1="79.5742" y1="73.5897" x2="82.7418" y2="64.549" gradientUnits="userSpaceOnUse">
<stop/>
<stop offset="1" stop-color="#512D00"/>
</linearGradient>
<linearGradient id="paint21_linear_14_1918" x1="41.1642" y1="35.0227" x2="37.6998" y2="63.3245" gradientUnits="userSpaceOnUse">
<stop stop-color="#BB62AD"/>
<stop offset="0.2802" stop-color="#A94BAB"/>
<stop offset="0.8671" stop-color="#7B0FA4"/>
<stop offset="1" stop-color="#7000A3"/>
</linearGradient>
<linearGradient id="paint22_linear_14_1918" x1="49.5366" y1="81.1241" x2="26.8439" y2="61.378" gradientUnits="userSpaceOnUse">
<stop stop-color="#BB62AD"/>
<stop offset="0.2802" stop-color="#A94BAB"/>
<stop offset="0.8671" stop-color="#7B0FA4"/>
<stop offset="1" stop-color="#7000A3"/>
</linearGradient>
<linearGradient id="paint23_linear_14_1918" x1="61.4003" y1="38.803" x2="39.3956" y2="68.3744" gradientUnits="userSpaceOnUse">
<stop/>
<stop offset="1" stop-opacity="0"/>
</linearGradient>
<radialGradient id="paint24_radial_14_1918" cx="0" cy="0" r="1" gradientUnits="userSpaceOnUse" gradientTransform="translate(98.8564 45.215) rotate(-4.40976) scale(9.0285 9.03362)">
<stop stop-color="#D098C5"/>
<stop offset="0.2785" stop-color="#D19BC7" stop-opacity="0.7215"/>
<stop offset="0.5069" stop-color="#D3A5CD" stop-opacity="0.4931"/>
<stop offset="0.7177" stop-color="#D7B7D7" stop-opacity="0.2823"/>
<stop offset="0.9166" stop-color="#DDCFE5" stop-opacity="0.0834284"/>
<stop offset="1" stop-color="#E0DBEC" stop-opacity="0"/>
</radialGradient>
<linearGradient id="paint25_linear_14_1918" x1="11.7696" y1="71.6508" x2="50.274" y2="46.862" gradientUnits="userSpaceOnUse">
<stop stop-color="#BB62AD"/>
<stop offset="0.2371" stop-color="#B95FAD"/>
<stop offset="0.4317" stop-color="#B155AC"/>
<stop offset="0.6112" stop-color="#A443AA"/>
<stop offset="0.7816" stop-color="#912BA7"/>
<stop offset="0.9442" stop-color="#7A0CA4"/>
<stop offset="1" stop-color="#7000A3"/>
</linearGradient>
<linearGradient id="paint26_linear_14_1918" x1="17.1919" y1="-7.72629" x2="56.4903" y2="45.0931" gradientUnits="userSpaceOnUse">
<stop stop-color="#BB62AD"/>
<stop offset="0.2371" stop-color="#B95FAD"/>
<stop offset="0.4317" stop-color="#B155AC"/>
<stop offset="0.6112" stop-color="#A443AA"/>
<stop offset="0.7816" stop-color="#912BA7"/>
<stop offset="0.9442" stop-color="#7A0CA4"/>
<stop offset="1" stop-color="#7000A3"/>
</linearGradient>
<radialGradient id="paint27_radial_14_1918" cx="0" cy="0" r="1" gradientUnits="userSpaceOnUse" gradientTransform="translate(140.333 102.155) scale(7.94232 7.94681)">
<stop stop-color="#7000A3"/>
<stop offset="1"/>
</radialGradient>
<linearGradient id="paint28_linear_14_1918" x1="127.886" y1="21.4625" x2="122.585" y2="8.82456" gradientUnits="userSpaceOnUse">
<stop stop-color="#F05C00"/>
<stop offset="0.5926" stop-color="#FA7A00"/>
<stop offset="0.9987" stop-color="#FF8900"/>
</linearGradient>
<linearGradient id="paint29_linear_14_1918" x1="95.9627" y1="34.7559" x2="103.814" y2="49.5514" gradientUnits="userSpaceOnUse">
<stop offset="0.00268665" stop-color="#7000A3"/>
<stop offset="0.7988" stop-color="#9500DA"/>
<stop offset="0.9934" stop-color="#9F00E8"/>
</linearGradient>
<linearGradient id="paint30_linear_14_1918" x1="105.89" y1="42.4687" x2="102.321" y2="24.0187" gradientUnits="userSpaceOnUse">
<stop offset="0.00662825" stop-color="#3640FF"/>
<stop offset="0.1428" stop-color="#2657F8"/>
<stop offset="0.4841" stop-color="#008EE6"/>
<stop offset="0.7886" stop-color="#0FACF6"/>
<stop offset="0.9973" stop-color="#17BBFE"/>
</linearGradient>
<linearGradient id="paint31_linear_14_1918" x1="117.845" y1="31.6929" x2="115.308" y2="15.4257" gradientUnits="userSpaceOnUse">
<stop stop-color="#FFBF00"/>
<stop offset="0.00802441" stop-color="#FFBF01"/>
<stop offset="0.6596" stop-color="#FDCA29"/>
<stop offset="0.9973" stop-color="#FCCE38"/>
</linearGradient>
<linearGradient id="paint32_linear_14_1918" x1="111.189" y1="35.8579" x2="109.815" y2="19.9368" gradientUnits="userSpaceOnUse">
<stop offset="0.00132565" stop-color="#4B8C1C"/>
<stop offset="0.2325" stop-color="#5EA12C"/>
<stop offset="0.7361" stop-color="#82C94A"/>
<stop offset="0.9973" stop-color="#90D856"/>
</linearGradient>
<linearGradient id="paint33_linear_14_1918" x1="132.571" y1="14.46" x2="129.048" y2="2.66398" gradientUnits="userSpaceOnUse">
<stop stop-color="#C20000"/>
<stop offset="0.076599" stop-color="#C80400"/>
<stop offset="0.6838" stop-color="#F02300"/>
<stop offset="0.9987" stop-color="#FF2F00"/>
</linearGradient>
<radialGradient id="paint34_radial_14_1918" cx="0" cy="0" r="1" gradientUnits="userSpaceOnUse" gradientTransform="translate(110.254 28.0034) rotate(-48.0178) scale(41.0374 4.68409)">
<stop stop-color="#440063" stop-opacity="0.75"/>
<stop offset="1" stop-color="#420061" stop-opacity="0"/>
</radialGradient>
<radialGradient id="paint35_radial_14_1918" cx="0" cy="0" r="1" gradientUnits="userSpaceOnUse" gradientTransform="translate(107.635 21.7335) rotate(-41.9449) scale(41.0281 4.68367)">
<stop stop-color="white" stop-opacity="0.5"/>
<stop offset="1" stop-color="white" stop-opacity="0"/>
</radialGradient>
<linearGradient id="paint36_linear_14_1918" x1="88.5325" y1="35.3721" x2="96.5209" y2="35.9216" gradientUnits="userSpaceOnUse">
<stop/>
<stop offset="1" stop-opacity="0"/>
</linearGradient>
<radialGradient id="paint37_radial_14_1918" cx="0" cy="0" r="1" gradientUnits="userSpaceOnUse" gradientTransform="translate(87.0094 22.6157) rotate(53.45) scale(15.5426 7.02124)">
<stop stop-color="#BB62AD"/>
<stop offset="0.2371" stop-color="#B95FAE"/>
<stop offset="0.4317" stop-color="#B455B1"/>
<stop offset="0.6112" stop-color="#AB43B5"/>
<stop offset="0.7816" stop-color="#9F2BBC"/>
<stop offset="0.9442" stop-color="#8E0CC4"/>
<stop offset="1" stop-color="#8800C7"/>
</radialGradient>
<linearGradient id="paint38_linear_14_1918" x1="58.2077" y1="27.0253" x2="58.6596" y2="47.6874" gradientUnits="userSpaceOnUse">
<stop/>
<stop offset="1" stop-opacity="0"/>
</linearGradient>
<radialGradient id="paint39_radial_14_1918" cx="0" cy="0" r="1" gradientUnits="userSpaceOnUse" gradientTransform="translate(45.2428 7.95095) scale(36.7574 36.7783)">
<stop stop-color="#BB62AD"/>
<stop offset="0.2371" stop-color="#B95FAE"/>
<stop offset="0.4317" stop-color="#B455B1"/>
<stop offset="0.6112" stop-color="#AB43B5"/>
<stop offset="0.7816" stop-color="#9F2BBC"/>
<stop offset="0.9442" stop-color="#8E0CC4"/>
<stop offset="1" stop-color="#8800C7"/>
</radialGradient>
<linearGradient id="paint40_linear_14_1918" x1="40.9359" y1="1.95385" x2="61.7163" y2="35.8156" gradientUnits="userSpaceOnUse">
<stop stop-color="#BB62AD"/>
<stop offset="0.2371" stop-color="#B95FAD"/>
<stop offset="0.4317" stop-color="#B155AC"/>
<stop offset="0.6112" stop-color="#A443AA"/>
<stop offset="0.7816" stop-color="#912BA7"/>
<stop offset="0.9442" stop-color="#7A0CA4"/>
<stop offset="1" stop-color="#7000A3"/>
</linearGradient>
<radialGradient id="paint41_radial_14_1918" cx="0" cy="0" r="1" gradientUnits="userSpaceOnUse" gradientTransform="translate(79.9648 38.0706) rotate(-8.90406) scale(39.6442 39.6658)">
<stop stop-color="white"/>
<stop offset="1" stop-color="#E0DBEC"/>
</radialGradient>
<radialGradient id="paint42_radial_14_1918" cx="0" cy="0" r="1" gradientUnits="userSpaceOnUse" gradientTransform="translate(81.1038 24.1277) rotate(91.7072) scale(45.9994 26.6016)">
<stop stop-color="#FC5B54" stop-opacity="0"/>
<stop offset="0.12" stop-color="#EB4E65" stop-opacity="0.12"/>
<stop offset="0.5274" stop-color="#B6249A" stop-opacity="0.5274"/>
<stop offset="0.8331" stop-color="#950ABB" stop-opacity="0.8331"/>
<stop offset="1" stop-color="#8800C7"/>
</radialGradient>
</defs>
</svg>
