<svg width="140" height="116" viewBox="0 0 140 116" fill="none" xmlns="http://www.w3.org/2000/svg">
<path d="M124.789 95.5578C124.789 95.5578 121.657 105.809 129.486 113.343C129.486 113.343 113.618 107.006 113.618 99.8099C113.618 99.8099 113.8 105.659 109.102 109.444C109.102 109.444 108.431 99.7367 102.978 98.9781C97.5254 98.2194 105.494 82.2809 105.494 82.2809L118.328 67.6077L126.968 75.5347L124.789 95.5578Z" fill="url(#paint0_linear_24_3348)"/>
<path d="M15.2111 95.5578C15.2111 95.5578 18.3429 105.809 10.514 113.343C10.514 113.343 24.7213 111.544 26.3818 99.8099C26.3818 99.8099 26.1998 105.659 30.8982 109.444C30.8982 109.444 31.5688 99.7367 37.0218 98.9781C42.4749 98.2194 34.506 82.2809 34.506 82.2809L21.6721 67.6077L13.0327 75.5347L15.2111 95.5578Z" fill="url(#paint1_linear_24_3348)"/>
<path d="M26.3802 99.8083C26.3802 99.8083 26.1982 105.658 30.8966 109.442C28.4774 98.0109 35.8022 92.3134 35.8022 92.3134C35.8022 92.3134 18.5528 72.748 22.9698 88.2655C27.3868 103.783 10.514 113.343 10.514 113.343C10.514 113.343 24.7212 111.542 26.3802 99.8083Z" fill="url(#paint2_linear_24_3348)"/>
<path d="M126.356 84.1081C134.408 89.9548 140 82.7583 140 82.7583C140 82.7583 124.565 77.3605 126.802 43.2976C127.628 30.7145 118.066 16.5733 108.979 12.4226C105.444 10.8082 102.084 8.80533 99.0472 6.37176C92.6828 1.26816 82.7386 0 70 0C57.2614 0 47.3172 1.26816 40.9514 6.37176C37.9148 8.80533 34.5562 10.8082 31.0212 12.4226C21.9338 16.5747 12.3718 30.7145 13.1978 43.2976C15.435 77.3605 0 82.7583 0 82.7583C0 82.7583 5.5916 89.9548 13.6444 84.1081C13.6444 84.1081 13.1964 89.2806 2.2358 97.3766C2.2358 97.3766 10.9592 104.123 15.2096 95.5595L20.5828 83.1594C20.5828 83.1594 19.6686 75.1141 19.6686 62.03C19.6686 5.45548 120.329 5.62297 120.329 62.03C120.329 75.1141 119.414 83.1594 119.414 83.1594L124.788 95.5595C129.038 104.124 137.761 97.3766 137.761 97.3766C126.802 89.2792 126.356 84.1081 126.356 84.1081Z" fill="url(#paint3_linear_24_3348)"/>
<path d="M113.62 99.8083C113.62 99.8083 113.802 105.658 109.103 109.442C111.523 98.0109 104.198 92.3134 104.198 92.3134C104.198 92.3134 121.447 72.748 117.03 88.2655C112.612 103.783 129.487 113.34 129.487 113.34C129.487 113.34 115.279 111.542 113.62 99.8083Z" fill="url(#paint4_linear_24_3348)"/>
<path d="M123.334 68.2381C123.339 68.2071 123.346 68.155 123.355 68.0833C123.348 68.1353 123.341 68.1846 123.334 68.2381Z" fill="url(#paint5_linear_24_3348)"/>
<path d="M123.33 68.268C123.331 68.2575 123.333 68.2483 123.334 68.2378C123.331 68.2562 123.33 68.268 123.33 68.268Z" fill="url(#paint6_linear_24_3348)"/>
<path d="M137.763 97.3756C124.789 95.5585 120.049 88.1832 119.545 81.8381C119.683 80.311 119.906 77.4974 120.079 73.6113L123.329 68.2712C121.409 82.3448 140 82.7587 140 82.7587C140 82.7587 134.408 89.9552 126.356 84.1085C126.356 84.1085 126.802 89.2796 137.763 97.3756Z" fill="url(#paint7_linear_24_3348)"/>
<path d="M16.6661 68.2381C16.6619 68.2071 16.6548 68.155 16.645 68.0833C16.652 68.1353 16.6591 68.1846 16.6661 68.2381Z" fill="url(#paint8_linear_24_3348)"/>
<path d="M16.6697 68.268C16.6684 68.2575 16.6671 68.2483 16.6658 68.2378C16.6684 68.2562 16.6697 68.268 16.6697 68.268Z" fill="url(#paint9_linear_24_3348)"/>
<path d="M2.2372 97.3756C15.211 95.5585 19.9514 88.1832 20.4554 81.8381C20.3168 80.311 20.0942 77.4974 19.9206 73.6113L16.6712 68.2712C18.5906 82.3448 0 82.7587 0 82.7587C0 82.7587 5.5916 89.9552 13.6444 84.1085C13.6444 84.1085 13.1978 89.2796 2.2372 97.3756Z" fill="url(#paint10_linear_24_3348)"/>
<path d="M70.0004 116C99.6495 116 123.685 91.8359 123.685 62.028C123.685 32.22 99.6495 8.05591 70.0004 8.05591C40.3513 8.05591 16.316 32.22 16.316 62.028C16.316 91.8359 40.3513 116 70.0004 116Z" fill="url(#paint11_radial_24_3348)"/>
<path d="M113.93 72.7961C112.849 70.3682 110.86 68.5722 108.331 67.7417C106.766 67.2266 105.076 67.159 103.448 67.5461L103.407 67.556C102.311 67.8163 101.439 66.6256 102.014 65.6516C105.178 60.2932 105.181 58.6647 105.181 57.5176C105.181 54.217 101.555 45.7987 100.444 43.2975C96.4257 34.2529 93.2338 29.3505 87.8858 29.3505C83.2057 29.3505 80.9307 33.5168 79.7085 35.7561C78.4513 38.0588 77.1843 40.9188 76.3429 42.9119C75.3377 45.2934 74.2345 48.0493 73.3876 50.542C72.899 51.9819 71.5368 52.9094 70.022 52.9066C70.0136 52.9066 70.0038 52.9066 69.9954 52.9066C69.987 52.9066 69.9772 52.9066 69.9688 52.9066C68.4554 52.9094 67.0932 51.9819 66.6046 50.542C65.7576 48.0479 64.6544 45.2934 63.6492 42.9105C62.8078 40.9174 61.5409 38.0574 60.2837 35.7547C59.0615 33.5168 56.7865 29.3491 52.1063 29.3491C46.7584 29.3491 43.5664 34.2501 39.5485 43.2961C38.4369 45.7973 34.8109 54.2156 34.8109 57.5162C34.8109 58.6647 34.8137 60.2918 37.9763 65.6488C38.5503 66.6214 37.6781 67.8135 36.5833 67.5531L36.5539 67.5461C34.9243 67.159 33.2359 67.2266 31.6693 67.7417C29.1396 68.5736 27.1516 70.3696 26.0708 72.7989C24.6288 76.039 24.9354 79.9294 27.0102 84.691L27.195 85.0794C29.407 89.3836 33.5103 95.5752 40.4991 100.634C48.5798 106.481 58.5071 109.446 70.0024 109.446C81.4711 109.446 91.3872 106.481 99.4763 100.631C106.471 95.5724 110.585 89.3864 112.807 85.0879L112.999 84.6839C115.067 79.9237 115.373 76.0362 113.93 72.7961Z" fill="white"/>
<path d="M70.0002 79.8532C81.8917 79.8532 81.5473 84.1362 95.1245 76.9678C100.051 74.3667 101.511 73.5939 102.892 74.8283C106.964 78.4724 92.9545 101.686 70.0002 101.686C47.0459 101.686 33.0362 78.4724 37.1088 74.8283C38.4878 73.5939 39.9494 74.3667 44.876 76.9678C58.4531 84.1362 58.1087 79.8532 70.0002 79.8532Z" fill="#FF0000"/>
<path d="M81.9054 33.429C82.0258 31.2643 84.4226 30.0483 88.4195 30.2735C91.8173 30.4649 99.163 32.7633 103.931 39.6952C104.809 40.9718 103.315 41.5629 102.431 40.7184C99.422 37.8457 91.1607 33.9034 84.5164 34.2524C81.841 34.3932 81.9054 33.429 81.9054 33.429Z" fill="url(#paint12_linear_24_3348)"/>
<path d="M58.0945 33.429C57.9741 31.2643 55.5774 30.0483 51.5804 30.2735C48.1826 30.4649 40.8369 32.7633 36.0685 39.6952C35.1907 40.9718 36.6845 41.5629 37.5693 40.7184C40.5779 37.8457 48.8392 33.9034 55.4836 34.2524C58.1589 34.3932 58.0945 33.429 58.0945 33.429Z" fill="url(#paint13_linear_24_3348)"/>
<path d="M69.9959 76.8891C75.4385 76.8891 79.8505 73.0306 79.8505 68.271C79.8505 63.5113 75.4385 59.6528 69.9959 59.6528C64.5534 59.6528 60.1413 63.5113 60.1413 68.271C60.1413 73.0306 64.5534 76.8891 69.9959 76.8891Z" fill="url(#paint14_radial_24_3348)"/>
<path d="M71.9816 62.3441C72.8132 64.2233 71.2298 66.7569 68.4437 68.0027C65.6576 69.2498 62.7245 68.7374 61.8928 66.8597C61.0612 64.9806 62.6447 62.4469 65.4308 61.2012C68.2169 59.9541 71.15 60.4664 71.9816 62.3441Z" fill="url(#paint15_radial_24_3348)"/>
<path d="M52.1051 36.095C49.0698 36.095 41.5193 55.4917 41.5193 57.5157C41.5193 59.5397 50.7778 73.5387 52.1051 73.5387C53.4324 73.5387 61.3175 58.6108 61.3175 56.546C61.3161 54.4798 54.1338 36.095 52.1051 36.095Z" fill="url(#paint16_radial_24_3348)"/>
<path d="M87.8844 36.095C90.9197 36.095 98.4703 55.4917 98.4703 57.5157C98.4703 59.5397 89.2117 73.5387 87.8844 73.5387C86.5572 73.5387 78.672 58.6108 78.672 56.546C78.6734 54.4798 85.8557 36.095 87.8844 36.095Z" fill="url(#paint17_radial_24_3348)"/>
<path d="M87.5277 63.9309C90.3708 63.9309 92.6755 60.4335 92.6755 56.1193C92.6755 51.805 90.3708 48.3076 87.5277 48.3076C84.6847 48.3076 82.3799 51.805 82.3799 56.1193C82.3799 60.4335 84.6847 63.9309 87.5277 63.9309Z" fill="url(#paint18_radial_24_3348)"/>
<path d="M92.614 54.9194C92.2332 58.7464 90.1011 61.6769 87.5265 61.6769C84.952 61.6769 82.8199 58.7464 82.4391 54.9194C82.3999 55.3107 82.3789 55.7105 82.3789 56.1186C82.3789 60.4326 84.6832 63.9303 87.5265 63.9303C90.3699 63.9303 92.6742 60.4326 92.6742 56.1186C92.6756 55.7105 92.6546 55.3107 92.614 54.9194Z" fill="#3000C2"/>
<path d="M52.4634 63.9309C55.3065 63.9309 57.6114 60.4335 57.6114 56.1193C57.6114 51.805 55.3065 48.3076 52.4634 48.3076C49.6202 48.3076 47.3154 51.805 47.3154 56.1193C47.3154 60.4335 49.6202 63.9309 52.4634 63.9309Z" fill="url(#paint19_radial_24_3348)"/>
<path d="M57.5512 54.9194C57.1704 58.7464 55.0381 61.6769 52.4634 61.6769C49.8887 61.6769 47.7564 58.7464 47.3756 54.9194C47.3364 55.3107 47.3154 55.7105 47.3154 56.1186C47.3154 60.4326 49.6199 63.9303 52.4634 63.9303C55.3069 63.9303 57.6114 60.4326 57.6114 56.1186C57.6114 55.7105 57.5904 55.3107 57.5512 54.9194Z" fill="#3000C2"/>
<path d="M98.9344 77.8269C98.3954 77.727 97.848 77.8959 97.4476 78.2646C90.4292 84.7391 79.5706 88.2141 71.4028 88.2141H70H68.5958C60.428 88.2141 49.5694 84.7391 42.551 78.2646C42.1506 77.8959 41.6032 77.727 41.0642 77.8269C40.5014 77.9311 40.199 78.5532 40.4846 79.0402C46.4865 89.2374 57.5902 95.5584 69.6458 95.5584H69.9986H70.3514C82.4071 95.5584 93.5107 89.2374 99.5126 79.0402C99.7996 78.5532 99.4972 77.9311 98.9344 77.8269Z" fill="#643800"/>
<path d="M98.9328 77.8269C98.3938 77.727 97.8464 77.8959 97.446 78.2646C90.4278 84.739 79.5695 88.2141 71.402 88.2141H69.9992H68.595C60.4275 88.2141 49.5691 84.739 42.551 78.2646C42.1506 77.8959 41.6032 77.727 41.0642 77.8269C40.5014 77.9311 40.199 78.5532 40.4846 79.0402C40.5448 79.1415 40.6134 79.2372 40.6736 79.3385C41.2434 79.0036 41.844 78.6995 42.474 79.3948C49.1393 86.7616 59.0345 91.1543 69.6254 91.1543H69.9978H70.3702C81.0339 91.1543 90.992 86.7025 97.6574 79.2442C98.2594 78.5715 98.832 78.8924 99.3794 79.2485C99.4214 79.1781 99.469 79.1119 99.511 79.0402C99.7994 78.5532 99.4956 77.9311 98.9328 77.8269Z" fill="url(#paint20_linear_24_3348)"/>
<path d="M91.6552 8.69306L95.8651 5.53883H80.4552C77.273 5.01664 73.7953 4.72388 69.9999 4.72388C59.2605 4.72388 51.0704 7.08568 44.8656 10.3441L34.8822 12.7073L33.0398 14.8326L22.9709 19.7899L24.9337 24.1785L23.4749 25.8619L27.1485 29.2399C27.0995 29.3737 27.0743 29.4497 27.0743 29.4497C27.1107 29.3891 27.1471 29.3314 27.1849 29.2723L27.2339 29.3174C31.5418 23.3959 35.8272 20.4036 40.0202 19.1734C51.0564 15.9375 61.4627 24.9217 70.0027 24.9217C78.5428 24.9217 88.949 15.9375 99.9853 19.1734C104.178 20.4022 108.464 23.3959 112.772 29.3174C112.769 29.3188 108.327 15.6504 91.6552 8.69306Z" fill="url(#paint21_linear_24_3348)"/>
<path d="M126.756 53.3439C126.119 43.0888 121.754 33.3827 114.214 26.4465C111.023 23.5119 107.434 21.9242 103.7 20.7476C106.696 22.4183 109.727 25.1347 112.769 29.3178L112.73 29.3488C118.989 37.608 122.931 47.7378 123.588 58.7585C123.594 58.8486 123.596 58.9387 123.602 59.0288C123.623 59.4116 123.64 59.7945 123.652 60.1787C123.658 60.3223 123.662 60.4644 123.666 60.608C123.678 61.0542 123.686 61.5018 123.686 61.9508C123.686 61.9775 123.687 62.0028 123.687 62.0282C123.687 62.1703 123.683 62.3125 123.682 62.4546C123.679 62.7868 123.678 63.1204 123.668 63.4511C123.666 63.5257 123.662 63.6003 123.659 63.6749C123.647 64.0775 123.633 64.48 123.612 64.8812C123.612 64.8854 123.612 64.8882 123.612 64.8924C125.668 70.4056 126.762 74.6042 126.762 74.6042C126.762 74.6042 126.99 57.1019 126.756 53.3439Z" fill="url(#paint22_linear_24_3348)"/>
<path d="M16.335 63.484C16.335 63.4769 16.335 63.4713 16.3336 63.4643C16.321 63.004 16.3154 62.5438 16.3154 62.0807C16.3154 62.0624 16.3154 62.0455 16.3154 62.0286C16.3154 62.0258 16.3154 62.0216 16.3154 62.0187C16.3154 61.5416 16.3238 61.0659 16.3364 60.5915C16.3392 60.4621 16.3448 60.334 16.349 60.2059C16.363 59.7977 16.3798 59.3895 16.4022 58.9828C16.4064 58.9152 16.4092 58.8462 16.4134 58.7773C17.0602 47.8213 20.9578 37.7436 27.1513 29.5083L27.2325 29.3169C30.2747 25.1352 33.3071 22.4187 36.3017 20.7466C32.5665 21.9233 28.9783 23.5109 25.7878 26.4456C18.246 33.3831 13.8823 43.0893 13.2439 53.3443C13.0101 57.1023 13.2397 74.606 13.2397 74.606C13.2397 74.606 14.3331 70.4075 16.3896 64.8943C16.3658 64.4256 16.3476 63.9555 16.335 63.484Z" fill="url(#paint23_linear_24_3348)"/>
<path d="M108.449 12.1722C106.959 11.4713 105.502 10.7028 104.089 9.85969L104.077 9.85547C104.077 9.85547 99.9831 12.6226 99.9831 19.1744C100.809 14.4101 105.398 12.7507 108.449 12.1722Z" fill="url(#paint24_linear_24_3348)"/>
<path d="M31.5522 12.1722C33.0417 11.4713 34.499 10.7028 35.9115 9.85969L35.9241 9.85547C35.9241 9.85547 40.0175 12.6226 40.0175 19.1744C39.1916 14.4101 34.6026 12.7507 31.5522 12.1722Z" fill="url(#paint25_linear_24_3348)"/>
<path d="M104.089 9.85814C102.334 8.80955 100.645 7.65259 99.0473 6.37176C92.6829 1.26816 82.7387 0 70.0001 0C57.2615 0 47.3173 1.26816 40.9515 6.37176C39.3541 7.65259 37.6657 8.81096 35.9101 9.85814C35.9101 9.85814 49.2003 0.806498 59.3447 4.96566C69.9945 9.33173 69.9945 9.33173 81.0503 4.63068C91.9409 -0.00140759 104.089 9.85814 104.089 9.85814Z" fill="url(#paint26_linear_24_3348)"/>
<defs>
<linearGradient id="paint0_linear_24_3348" x1="115.279" y1="8.21996" x2="115.279" y2="156.872" gradientUnits="userSpaceOnUse">
<stop offset="0.00132565" stop-color="#00CC00"/>
<stop offset="0.2405" stop-color="#03C901"/>
<stop offset="0.4513" stop-color="#0BBE04"/>
<stop offset="0.6513" stop-color="#19AC09"/>
<stop offset="0.8436" stop-color="#2C9210"/>
<stop offset="1" stop-color="#407817"/>
</linearGradient>
<linearGradient id="paint1_linear_24_3348" x1="24.7207" y1="8.21996" x2="24.7207" y2="156.872" gradientUnits="userSpaceOnUse">
<stop offset="0.00132565" stop-color="#00CC00"/>
<stop offset="0.2405" stop-color="#03C901"/>
<stop offset="0.4513" stop-color="#0BBE04"/>
<stop offset="0.6513" stop-color="#19AC09"/>
<stop offset="0.8436" stop-color="#2C9210"/>
<stop offset="1" stop-color="#407817"/>
</linearGradient>
<linearGradient id="paint2_linear_24_3348" x1="37.8602" y1="130.835" x2="21.7892" y2="100.546" gradientUnits="userSpaceOnUse">
<stop offset="0.00132565" stop-color="#00CC00"/>
<stop offset="0.2405" stop-color="#03C901"/>
<stop offset="0.4513" stop-color="#0BBE04"/>
<stop offset="0.6513" stop-color="#19AC09"/>
<stop offset="0.8436" stop-color="#2C9210"/>
<stop offset="1" stop-color="#407817"/>
</linearGradient>
<linearGradient id="paint3_linear_24_3348" x1="70" y1="8.22022" x2="70" y2="156.873" gradientUnits="userSpaceOnUse">
<stop offset="0.00132565" stop-color="#00CC00"/>
<stop offset="0.2405" stop-color="#03C901"/>
<stop offset="0.4513" stop-color="#0BBE04"/>
<stop offset="0.6513" stop-color="#19AC09"/>
<stop offset="0.8436" stop-color="#2C9210"/>
<stop offset="1" stop-color="#407817"/>
</linearGradient>
<linearGradient id="paint4_linear_24_3348" x1="102.14" y1="130.835" x2="118.211" y2="100.546" gradientUnits="userSpaceOnUse">
<stop offset="0.00132565" stop-color="#00CC00"/>
<stop offset="0.2405" stop-color="#03C901"/>
<stop offset="0.4513" stop-color="#0BBE04"/>
<stop offset="0.6513" stop-color="#19AC09"/>
<stop offset="0.8436" stop-color="#2C9210"/>
<stop offset="1" stop-color="#407817"/>
</linearGradient>
<linearGradient id="paint5_linear_24_3348" x1="123.345" y1="68.0937" x2="123.345" y2="68.2789" gradientUnits="userSpaceOnUse">
<stop offset="0.00132565" stop-color="#00CC00"/>
<stop offset="0.2405" stop-color="#03C901"/>
<stop offset="0.4513" stop-color="#0BBE04"/>
<stop offset="0.6513" stop-color="#19AC09"/>
<stop offset="0.8436" stop-color="#2C9210"/>
<stop offset="1" stop-color="#407817"/>
</linearGradient>
<linearGradient id="paint6_linear_24_3348" x1="123.332" y1="68.2398" x2="123.332" y2="68.2764" gradientUnits="userSpaceOnUse">
<stop offset="0.00132565" stop-color="#00CC00"/>
<stop offset="0.2405" stop-color="#03C901"/>
<stop offset="0.4513" stop-color="#0BBE04"/>
<stop offset="0.6513" stop-color="#19AC09"/>
<stop offset="0.8436" stop-color="#2C9210"/>
<stop offset="1" stop-color="#407817"/>
</linearGradient>
<linearGradient id="paint7_linear_24_3348" x1="129.773" y1="162.671" x2="129.773" y2="69.863" gradientUnits="userSpaceOnUse">
<stop offset="0.00132565" stop-color="#00CC00"/>
<stop offset="0.2405" stop-color="#03C901"/>
<stop offset="0.4513" stop-color="#0BBE04"/>
<stop offset="0.6513" stop-color="#19AC09"/>
<stop offset="0.8436" stop-color="#2C9210"/>
<stop offset="1" stop-color="#407817"/>
</linearGradient>
<linearGradient id="paint8_linear_24_3348" x1="16.6557" y1="68.0937" x2="16.6557" y2="68.2789" gradientUnits="userSpaceOnUse">
<stop offset="0.00132565" stop-color="#00CC00"/>
<stop offset="0.2405" stop-color="#03C901"/>
<stop offset="0.4513" stop-color="#0BBE04"/>
<stop offset="0.6513" stop-color="#19AC09"/>
<stop offset="0.8436" stop-color="#2C9210"/>
<stop offset="1" stop-color="#407817"/>
</linearGradient>
<linearGradient id="paint9_linear_24_3348" x1="16.6681" y1="68.2398" x2="16.6681" y2="68.2764" gradientUnits="userSpaceOnUse">
<stop offset="0.00132565" stop-color="#00CC00"/>
<stop offset="0.2405" stop-color="#03C901"/>
<stop offset="0.4513" stop-color="#0BBE04"/>
<stop offset="0.6513" stop-color="#19AC09"/>
<stop offset="0.8436" stop-color="#2C9210"/>
<stop offset="1" stop-color="#407817"/>
</linearGradient>
<linearGradient id="paint10_linear_24_3348" x1="10.2274" y1="162.671" x2="10.2274" y2="69.863" gradientUnits="userSpaceOnUse">
<stop offset="0.00132565" stop-color="#00CC00"/>
<stop offset="0.2405" stop-color="#03C901"/>
<stop offset="0.4513" stop-color="#0BBE04"/>
<stop offset="0.6513" stop-color="#19AC09"/>
<stop offset="0.8436" stop-color="#2C9210"/>
<stop offset="1" stop-color="#407817"/>
</linearGradient>
<radialGradient id="paint11_radial_24_3348" cx="0" cy="0" r="1" gradientUnits="userSpaceOnUse" gradientTransform="translate(68.1617 51.6199) rotate(43.4429) scale(86.5293 124.867)">
<stop stop-color="white"/>
<stop offset="1" stop-color="#FCD2A8"/>
</radialGradient>
<linearGradient id="paint12_linear_24_3348" x1="93.0511" y1="28.8974" x2="93.0511" y2="37.5799" gradientUnits="userSpaceOnUse">
<stop offset="0.00132565" stop-color="#FF0000"/>
<stop offset="0.2679" stop-color="#FC0201"/>
<stop offset="0.5027" stop-color="#F10805"/>
<stop offset="0.7256" stop-color="#DF130C"/>
<stop offset="0.94" stop-color="#C62216"/>
<stop offset="1" stop-color="#BD2719"/>
</linearGradient>
<linearGradient id="paint13_linear_24_3348" x1="46.9485" y1="28.8974" x2="46.9485" y2="37.5799" gradientUnits="userSpaceOnUse">
<stop offset="0.00132565" stop-color="#FF0000"/>
<stop offset="0.2679" stop-color="#FC0201"/>
<stop offset="0.5027" stop-color="#F10805"/>
<stop offset="0.7256" stop-color="#DF130C"/>
<stop offset="0.94" stop-color="#C62216"/>
<stop offset="1" stop-color="#BD2719"/>
</linearGradient>
<radialGradient id="paint14_radial_24_3348" cx="0" cy="0" r="1" gradientUnits="userSpaceOnUse" gradientTransform="translate(68.2046 64.6224) scale(18.7035 18.8037)">
<stop offset="0.2479" stop-color="#FF0000"/>
<stop offset="0.8639" stop-color="#C20000"/>
</radialGradient>
<radialGradient id="paint15_radial_24_3348" cx="0" cy="0" r="1" gradientUnits="userSpaceOnUse" gradientTransform="translate(66.3444 63.6399) rotate(-21.9957) scale(5.35663 3.12652)">
<stop offset="0.00132565" stop-color="white" stop-opacity="0.5"/>
<stop offset="0.849" stop-color="white" stop-opacity="0"/>
</radialGradient>
<radialGradient id="paint16_radial_24_3348" cx="0" cy="0" r="1" gradientUnits="userSpaceOnUse" gradientTransform="translate(48.7337 47.7332) scale(21.2218 21.3346)">
<stop offset="0.00132565" stop-color="#0099D6"/>
<stop offset="0.2344" stop-color="#0296D8"/>
<stop offset="0.4397" stop-color="#098BDD"/>
<stop offset="0.6347" stop-color="#1479E5"/>
<stop offset="0.822" stop-color="#2360F0"/>
<stop offset="1" stop-color="#3640FF"/>
</radialGradient>
<radialGradient id="paint17_radial_24_3348" cx="0" cy="0" r="1" gradientUnits="userSpaceOnUse" gradientTransform="translate(88.8853 46.9461) scale(18.5176 18.616)">
<stop offset="0.00132565" stop-color="#0099D6"/>
<stop offset="0.2344" stop-color="#0296D8"/>
<stop offset="0.4397" stop-color="#098BDD"/>
<stop offset="0.6347" stop-color="#1479E5"/>
<stop offset="0.822" stop-color="#2360F0"/>
<stop offset="1" stop-color="#3640FF"/>
</radialGradient>
<radialGradient id="paint18_radial_24_3348" cx="0" cy="0" r="1" gradientUnits="userSpaceOnUse" gradientTransform="translate(87.4234 54.247) rotate(-106.064) scale(9.58199 6.17142)">
<stop offset="0.00132565" stop-color="#3640FF"/>
<stop offset="0.2716" stop-color="#363DFC"/>
<stop offset="0.5097" stop-color="#3532F1"/>
<stop offset="0.7357" stop-color="#3320E0"/>
<stop offset="0.9531" stop-color="#3107C8"/>
<stop offset="1" stop-color="#3000C2"/>
</radialGradient>
<radialGradient id="paint19_radial_24_3348" cx="0" cy="0" r="1" gradientUnits="userSpaceOnUse" gradientTransform="translate(52.3576 54.2457) rotate(-106.065) scale(9.58202 6.17165)">
<stop offset="0.00132565" stop-color="#3640FF"/>
<stop offset="0.2716" stop-color="#363DFC"/>
<stop offset="0.5097" stop-color="#3532F1"/>
<stop offset="0.7357" stop-color="#3320E0"/>
<stop offset="0.9531" stop-color="#3107C8"/>
<stop offset="1" stop-color="#3000C2"/>
</radialGradient>
<linearGradient id="paint20_linear_24_3348" x1="69.9991" y1="82.3617" x2="69.9991" y2="91.955" gradientUnits="userSpaceOnUse">
<stop offset="0.00132565" stop-color="#3C2200"/>
<stop offset="1" stop-color="#512D00"/>
</linearGradient>
<linearGradient id="paint21_linear_24_3348" x1="67.8695" y1="6.74691" x2="67.8695" y2="128.19" gradientUnits="userSpaceOnUse">
<stop offset="0.00132565" stop-color="#00CC00"/>
<stop offset="0.2405" stop-color="#03C901"/>
<stop offset="0.4513" stop-color="#0BBE04"/>
<stop offset="0.6513" stop-color="#19AC09"/>
<stop offset="0.8436" stop-color="#2C9210"/>
<stop offset="1" stop-color="#407817"/>
</linearGradient>
<linearGradient id="paint22_linear_24_3348" x1="115.28" y1="74.1114" x2="115.28" y2="-1.01702" gradientUnits="userSpaceOnUse">
<stop offset="0.00132565" stop-color="#407817" stop-opacity="0"/>
<stop offset="0.9403" stop-color="#407817" stop-opacity="0.9402"/>
<stop offset="1" stop-color="#407817"/>
</linearGradient>
<linearGradient id="paint23_linear_24_3348" x1="24.7199" y1="74.1119" x2="24.7199" y2="-1.01659" gradientUnits="userSpaceOnUse">
<stop offset="0.00132565" stop-color="#407817" stop-opacity="0"/>
<stop offset="0.9403" stop-color="#407817" stop-opacity="0.9402"/>
<stop offset="1" stop-color="#407817"/>
</linearGradient>
<linearGradient id="paint24_linear_24_3348" x1="109.25" y1="27.3083" x2="100.193" y2="6.59813" gradientUnits="userSpaceOnUse">
<stop offset="0.00132565" stop-color="#00CC00"/>
<stop offset="0.2405" stop-color="#03C901"/>
<stop offset="0.4513" stop-color="#0BBE04"/>
<stop offset="0.6513" stop-color="#19AC09"/>
<stop offset="0.8436" stop-color="#2C9210"/>
<stop offset="1" stop-color="#407817"/>
</linearGradient>
<linearGradient id="paint25_linear_24_3348" x1="30.7515" y1="27.3084" x2="39.808" y2="6.59853" gradientUnits="userSpaceOnUse">
<stop offset="0.00132565" stop-color="#00CC00"/>
<stop offset="0.2405" stop-color="#03C901"/>
<stop offset="0.4513" stop-color="#0BBE04"/>
<stop offset="0.6513" stop-color="#19AC09"/>
<stop offset="0.8436" stop-color="#2C9210"/>
<stop offset="1" stop-color="#407817"/>
</linearGradient>
<linearGradient id="paint26_linear_24_3348" x1="70.0001" y1="18.8754" x2="70.0001" y2="-11.0035" gradientUnits="userSpaceOnUse">
<stop offset="0.00132565" stop-color="#00CC00"/>
<stop offset="0.2405" stop-color="#03C901"/>
<stop offset="0.4513" stop-color="#0BBE04"/>
<stop offset="0.6513" stop-color="#19AC09"/>
<stop offset="0.8436" stop-color="#2C9210"/>
<stop offset="1" stop-color="#407817"/>
</linearGradient>
</defs>
</svg>
