<svg width="140" height="150" viewBox="0 0 140 150" fill="none" xmlns="http://www.w3.org/2000/svg">
<path d="M2.67858 101.346C2.83412 101.846 2.98967 102.385 3.1841 102.885C3.1841 102.885 3.61184 95.6537 7.9282 88.846C7.9282 88.846 3.7285 109.231 24.5326 132.5C24.5326 132.5 20.4106 118.769 24.6881 109C24.6881 109 26.2435 121.308 30.5599 127.308C37.9094 137.539 47.242 141.423 47.242 141.423C48.603 135.962 47.592 127.692 47.592 127.692C59.2578 146.423 69.8349 150 69.8349 150C69.8349 150 78.2342 144.462 83.9116 135.346C84.456 135.577 91.3389 140.885 90.3278 144.692C90.3278 144.692 95.9663 142.039 98.5328 133.846C100.049 129.077 107.438 126.423 107.438 126.423C109.343 131.654 106.816 139.846 106.232 139.385C106.232 139.385 114.243 134 118.831 122.962C123.07 112.769 124.003 100.115 124.003 100.115C127.425 107.346 125.714 124.077 125.714 124.077C134.308 106.654 131.742 88.8076 131.742 88.8076C133.725 98.6538 136.486 102.846 136.486 102.846C142.513 84.5768 141.23 64.6152 129.175 46.7689L69.8349 25.5381L19.2829 38.2689C2.36749 54.6536 -4.16537 78.9229 2.67858 101.346Z" fill="url(#paint0_linear_24_3188)"/>
<path d="M2.67858 101.346C2.83412 101.846 2.98967 102.385 3.1841 102.885C3.1841 102.885 3.61184 95.6537 7.9282 88.846C7.9282 88.846 3.7285 109.231 24.5326 132.5C24.5326 132.5 20.4106 118.769 24.6881 109C24.6881 109 26.2435 121.308 30.5599 127.308C37.9094 137.539 47.242 141.423 47.242 141.423C48.603 135.962 47.592 127.692 47.592 127.692C59.2578 146.423 69.8349 150 69.8349 150C69.8349 150 78.2342 144.462 83.9116 135.346C84.456 135.577 91.3389 140.885 90.3278 144.692C90.3278 144.692 95.9663 142.039 98.5328 133.846C100.049 129.077 107.438 126.423 107.438 126.423C109.343 131.654 106.816 139.846 106.232 139.385C106.232 139.385 114.243 134 118.831 122.962C123.07 112.769 124.003 100.115 124.003 100.115C127.425 107.346 125.714 124.077 125.714 124.077C134.308 106.654 131.742 88.8076 131.742 88.8076C133.725 98.6538 136.486 102.846 136.486 102.846C142.513 84.5768 141.23 64.6152 129.175 46.7689L69.8349 25.5381L19.2829 38.2689C2.36749 54.6536 -4.16537 78.9229 2.67858 101.346Z" fill="url(#paint1_radial_24_3188)"/>
<path d="M124.003 100.155C122.837 96.578 119.609 91.4626 119.609 91.4626C121.048 95.2319 121.631 113.963 120.231 119.27C123.264 109.963 124.003 100.155 124.003 100.155Z" fill="url(#paint2_radial_24_3188)"/>
<path d="M69.835 121.27L79.9843 121.578C81.6175 121.616 83.134 120.924 84.2229 119.731C95.8109 106.808 117.587 105.501 117.587 71.8466C117.587 36.5772 87.0615 28.9233 69.835 28.9233C52.6085 28.9233 22.0829 36.5772 22.0829 71.8466C22.0829 105.539 43.898 106.808 55.486 119.77C56.536 120.962 58.0525 121.616 59.6468 121.578L69.835 121.27Z" fill="url(#paint3_radial_24_3188)"/>
<path d="M99.5051 36.8077C105.649 40.6539 90.2891 27.3462 77.4178 20.5769C76.99 16.8461 73.9569 16.2307 69.7961 17.3846C65.6353 16.2307 62.641 16.8461 62.1744 20.5769C49.3031 27.3462 33.9042 40.6539 40.0871 36.8077C29.1212 62.0001 36.4318 82.7694 49.6142 82.7694C55.5249 82.7694 60.0357 72.4232 60.0357 72.4232C60.0357 72.4232 65.1298 67.4232 69.7961 57.5386C74.4624 67.4617 79.5565 72.4232 79.5565 72.4232C79.5565 72.4232 84.0673 82.7694 89.978 82.7694C103.16 82.7694 110.471 61.9617 99.5051 36.8077Z" fill="url(#paint4_linear_24_3188)"/>
<path d="M44.2869 100.308C47.2033 117.154 69.835 104.846 69.835 104.846L76.0568 123.654C72.9459 124.577 69.835 121.27 69.835 121.27L60.0746 121.539C58.2859 121.577 56.536 120.885 55.3305 119.577C43.7036 106.808 22.0829 105.385 22.0829 71.8464C22.0829 62.5771 24.1828 55.2309 27.6047 49.3848C18.3498 71.8464 41.3704 83.4618 44.2869 100.308Z" fill="url(#paint5_radial_24_3188)"/>
<path d="M95.3832 100.308C92.4668 117.154 69.8351 104.846 69.8351 104.846L63.6133 123.654C66.7242 124.577 69.8351 121.27 69.8351 121.27L80.5676 121.577C81.812 121.616 83.0175 121.116 83.7952 120.193C95.3055 106.847 117.548 105.923 117.548 71.8464C117.548 62.5771 115.448 55.2309 112.026 49.3848C121.281 71.8464 98.2608 83.4618 95.3832 100.308Z" fill="url(#paint6_radial_24_3188)"/>
<path d="M85.428 109.962L69.8346 102.731L54.2413 109.962C50.6249 117.885 57.9355 125.116 69.8346 125.116C81.7338 125.116 89.0444 117.885 85.428 109.962Z" fill="url(#paint7_linear_24_3188)"/>
<path d="M54.553 112.423C54.1641 112.423 53.8141 112.385 53.4642 112.346C53.1142 114.154 53.3475 115.923 54.0864 117.5C54.2419 117.5 54.3974 117.5 54.553 117.5C59.997 117.5 64.5467 115.231 67.191 111.846C68.5131 110.154 71.0796 110.154 72.4017 111.846C75.0849 115.231 79.6345 117.5 85.0397 117.5C85.1952 117.5 85.3508 117.5 85.5063 117.5C86.2452 115.923 86.4396 114.193 86.1285 112.346C85.7785 112.385 85.3897 112.423 85.0397 112.423C76.2126 112.423 69.7575 108.269 69.7575 102.731C69.8352 108.308 63.3801 112.423 54.553 112.423Z" fill="url(#paint8_linear_24_3188)"/>
<path d="M77.0292 113.116C77.0292 117.039 73.8017 120.231 69.8353 120.231C65.8689 120.231 62.6414 117.039 62.6414 113.116C62.6414 101.423 65.8689 96.7695 69.8353 96.7695C73.8017 96.7695 77.0292 101.5 77.0292 113.116Z" fill="url(#paint9_linear_24_3188)"/>
<path d="M77.0292 113.116C77.0292 101.462 73.8017 96.7695 69.8353 96.7695C65.8689 96.7695 62.6414 101.462 62.6414 113.116C62.6414 113.385 62.6803 113.693 62.6803 113.962C64.1191 113.423 65.3634 112.731 66.3744 111.962C68.3965 110.385 71.1963 110.385 73.2573 111.962C74.3072 112.77 75.5516 113.423 76.9515 113.962C76.9904 113.693 77.0292 113.423 77.0292 113.116Z" fill="url(#paint10_linear_24_3188)"/>
<path d="M68.707 104.885C68.707 101.808 69.2125 99.3081 69.8347 99.3081C70.4569 99.3081 70.9624 101.808 70.9624 104.885C70.9624 114 70.4569 117.654 69.8347 117.654C69.2125 117.654 68.707 114 68.707 104.885Z" fill="url(#paint11_linear_24_3188)"/>
<path d="M76.4845 87.4618H63.1466C48.4088 85.1925 44.248 92.808 44.248 98.6541C44.248 105.654 47.7866 112.462 54.5528 112.462C63.3799 112.462 69.835 108.308 69.835 102.77C69.835 108.346 76.2901 112.462 85.1172 112.462C91.8834 112.462 95.422 105.654 95.422 98.6541C95.422 92.7695 91.2223 85.1925 76.4845 87.4618Z" fill="url(#paint12_linear_24_3188)"/>
<path d="M69.9904 104.231C71.468 102.462 82.6283 89.3468 82.6283 93.2314C82.6283 97.3853 79.7897 101.731 77.0288 103.962C74.2678 106.193 78.2731 109.578 85.7003 109.385C91.3388 109.231 94.7219 100.539 93.672 92.4622C94.9163 94.4237 95.4219 96.6545 95.4219 98.6545C95.4219 105.655 91.8832 112.462 85.1171 112.462C77.0676 112.424 71.0403 109.039 69.9904 104.231Z" fill="url(#paint13_radial_24_3188)"/>
<path d="M69.6403 104.231C68.1626 102.462 57.0023 89.3468 57.0023 93.2314C57.0023 97.3853 59.841 101.731 62.6019 103.962C65.3628 106.193 61.3575 109.578 53.9303 109.385C48.2918 109.231 44.9087 100.539 45.9587 92.4622C44.7143 94.4237 44.2088 96.6545 44.2088 98.6545C44.2088 105.655 47.7474 112.462 54.5136 112.462C62.563 112.424 68.5904 109.039 69.6403 104.231Z" fill="url(#paint14_radial_24_3188)"/>
<path d="M60.58 94.3845L57.0413 93.2306C57.0413 83.5383 65.5185 46.1536 65.5185 46.1536H74.1123C74.1123 46.1536 82.5895 83.5383 82.5895 93.2306L79.0509 94.3845H60.58Z" fill="url(#paint15_radial_24_3188)"/>
<path d="M82.1616 91.9613C77.3398 86.6535 62.252 86.6535 57.4301 91.9613C54.9025 94.7305 63.8463 104.423 69.7959 104.423C75.7454 104.423 84.6892 94.7305 82.1616 91.9613Z" fill="url(#paint16_linear_24_3188)"/>
<path d="M90.0171 76.6923C92.5728 76.6923 94.6445 74.1437 94.6445 71C94.6445 67.8562 92.5728 65.3076 90.0171 65.3076C87.4614 65.3076 85.3897 67.8562 85.3897 71C85.3897 74.1437 87.4614 76.6923 90.0171 76.6923Z" fill="url(#paint17_radial_24_3188)"/>
<path d="M89.4721 101.846C89.9446 101.846 90.3276 101.468 90.3276 101C90.3276 100.533 89.9446 100.154 89.4721 100.154C88.9996 100.154 88.6166 100.533 88.6166 101C88.6166 101.468 88.9996 101.846 89.4721 101.846Z" fill="url(#paint18_linear_24_3188)"/>
<path d="M83.9117 103.308C84.3842 103.308 84.7672 102.929 84.7672 102.462C84.7672 101.995 84.3842 101.616 83.9117 101.616C83.4392 101.616 83.0562 101.995 83.0562 102.462C83.0562 102.929 83.4392 103.308 83.9117 103.308Z" fill="url(#paint19_linear_24_3188)"/>
<path d="M85.9732 97.5392C86.4456 97.5392 86.8286 97.1604 86.8286 96.6931C86.8286 96.2258 86.4456 95.8469 85.9732 95.8469C85.5007 95.8469 85.1177 96.2258 85.1177 96.6931C85.1177 97.1604 85.5007 97.5392 85.9732 97.5392Z" fill="url(#paint20_linear_24_3188)"/>
<path d="M50.1975 101.846C50.6699 101.846 51.053 101.468 51.053 101C51.053 100.533 50.6699 100.154 50.1975 100.154C49.725 100.154 49.3419 100.533 49.3419 101C49.3419 101.468 49.725 101.846 50.1975 101.846Z" fill="url(#paint21_linear_24_3188)"/>
<path d="M55.7197 103.308C56.1922 103.308 56.5752 102.929 56.5752 102.462C56.5752 101.995 56.1922 101.616 55.7197 101.616C55.2472 101.616 54.8642 101.995 54.8642 102.462C54.8642 102.929 55.2472 103.308 55.7197 103.308Z" fill="url(#paint22_linear_24_3188)"/>
<path d="M53.6582 97.5392C54.1307 97.5392 54.5137 97.1604 54.5137 96.6931C54.5137 96.2258 54.1307 95.8469 53.6582 95.8469C53.1858 95.8469 52.8027 96.2258 52.8027 96.6931C52.8027 97.1604 53.1858 97.5392 53.6582 97.5392Z" fill="url(#paint23_linear_24_3188)"/>
<path d="M49.6143 76.6923C52.17 76.6923 54.2418 74.1437 54.2418 71C54.2418 67.8562 52.17 65.3076 49.6143 65.3076C47.0586 65.3076 44.9869 67.8562 44.9869 71C44.9869 74.1437 47.0586 76.6923 49.6143 76.6923Z" fill="url(#paint24_radial_24_3188)"/>
<path d="M78.4674 91.5386C75.0843 89.5386 64.5462 89.5386 61.202 91.5386C59.4521 92.577 65.6739 95.0001 69.8347 95.0001C73.9955 95.0001 80.2173 92.577 78.4674 91.5386Z" fill="url(#paint25_linear_24_3188)"/>
<path d="M70.807 46.1536C73.6068 60.1536 76.5232 72.1921 73.879 79.3076C70.6514 87.9999 58.3634 80.7306 57.0413 93.2307C57.0413 83.5384 65.5185 46.1536 65.5185 46.1536H70.807Z" fill="url(#paint26_radial_24_3188)"/>
<path d="M89.1226 70.8078C89.9387 70.8078 90.6003 69.9984 90.6003 69.0001C90.6003 68.0017 89.9387 67.1924 89.1226 67.1924C88.3065 67.1924 87.6449 68.0017 87.6449 69.0001C87.6449 69.9984 88.3065 70.8078 89.1226 70.8078Z" fill="url(#paint27_linear_24_3188)"/>
<path d="M48.6806 70.8078C49.4967 70.8078 50.1583 69.9984 50.1583 69.0001C50.1583 68.0017 49.4967 67.1924 48.6806 67.1924C47.8645 67.1924 47.2029 68.0017 47.2029 69.0001C47.2029 69.9984 47.8645 70.8078 48.6806 70.8078Z" fill="url(#paint28_linear_24_3188)"/>
<path d="M3.14535 102.885C3.14535 102.885 3.57309 95.6544 7.88945 88.8466C8.39497 85.462 10.8059 79.6543 10.8059 79.6543C0.928839 88.1543 3.14535 102.885 3.14535 102.885Z" fill="url(#paint29_radial_24_3188)"/>
<path d="M7.89024 88.8462C7.89024 88.8462 7.85108 89.0001 7.81192 89.2309C7.85108 89.077 7.89024 88.9616 7.89024 88.8462Z" fill="url(#paint30_radial_24_3188)"/>
<path d="M24.6488 109.038C24.6488 105.269 25.6987 101.615 25.6987 101.615C14.3829 114.5 24.4932 132.538 24.4932 132.538C24.4932 132.538 20.3713 118.808 24.6488 109.038Z" fill="url(#paint31_radial_24_3188)"/>
<path d="M47.2028 141.462C48.5639 136.001 47.5528 127.731 47.5528 127.731C45.8807 124.27 37.248 115.693 37.248 115.693C47.0084 126.77 47.2028 141.462 47.2028 141.462Z" fill="url(#paint32_radial_24_3188)"/>
<path d="M107.438 126.462C107.438 126.462 106.582 120.038 102.227 114.577C103.471 118.192 104.405 123.5 104.132 128.039C105.921 127 107.438 126.462 107.438 126.462Z" fill="url(#paint33_radial_24_3188)"/>
<path d="M88.2283 125.116C87.2172 129.232 83.9119 135.386 83.9119 135.386C84.1452 135.463 85.4285 136.424 86.7895 137.77C88.8504 132.386 88.2283 125.116 88.2283 125.116Z" fill="url(#paint34_radial_24_3188)"/>
<path d="M121.009 95.0004C121.864 74.7695 111.676 61.0002 111.676 61.0002C113.698 67.5772 111.131 78.0772 111.131 78.0772C109.459 60.231 89.433 41.4232 89.433 41.4232C93.1661 48.0002 92.7772 58.8079 92.7772 58.8079C83.0557 36.7309 62.9516 36.7309 62.9516 36.7309C62.9516 36.7309 55.6021 40.0386 51.5191 54.1156C51.5191 54.1156 49.7692 46.8463 50.5858 41.8848C50.5858 41.8848 33.2426 54.5771 31.5316 69.6157C31.5316 69.6157 29.8595 57.4618 33.7093 48.0387C33.7093 48.0387 19.477 62.9233 16.4827 87.1927C16.4827 87.1927 10.0276 69.1541 16.4827 49.4233C16.4827 49.4233 12.5163 58.3464 3.06702 60.0772C3.06702 60.0772 8.74439 46.6156 19.7492 34.3848C19.7492 34.3848 16.5216 32.5001 11.3498 33.8848C11.3498 33.8848 20.1769 19.3078 45.0251 17.8847C45.0251 17.8847 42.9641 13.0385 33.0871 8.00003C33.0871 8.00003 48.6804 4.53848 59.9963 14.8847C59.9963 14.8847 59.8796 4.69233 53.6967 0C53.6967 0 68.9789 7.33599e-07 78.8949 12.2308C78.8949 12.2308 90.5218 3.30771 112.026 7.07695C112.026 7.07695 101.721 8.96157 96.9769 15.5385C96.9769 15.5385 116.109 18.0385 126.919 36.2309C139.596 57.4618 134.424 84.1926 134.424 84.1926C134.424 84.1926 130.769 71.0387 122.914 66.3464C122.875 66.308 126.88 80.0772 121.009 95.0004Z" fill="url(#paint35_radial_24_3188)"/>
<path d="M50.6256 41.8843C50.5864 42.0766 50.5864 42.2689 50.5472 42.4612C50.5864 42.192 50.5864 41.9997 50.6256 41.8843Z" fill="url(#paint36_radial_24_3188)"/>
<path d="M50.6246 41.8853C50.5468 39.3084 52.3745 36.2314 52.3745 36.2314C32.1537 49.8854 31.5704 69.6162 31.5704 69.6162C33.2814 54.5777 50.6246 41.8853 50.6246 41.8853Z" fill="url(#paint37_radial_24_3188)"/>
<path d="M62.9516 36.6928C62.9516 36.6928 83.0557 36.6928 92.7772 58.7698C83.7945 34.9621 63.4182 32.9236 63.4182 32.9236L62.9516 36.6928Z" fill="url(#paint38_radial_24_3188)"/>
<path d="M44.9862 17.8845C44.9862 17.8845 49.1859 18.1153 47.3971 15.4614C44.4029 11.0383 33.0481 8.03833 33.0481 8.03833C42.9252 13.0383 44.9862 17.8845 44.9862 17.8845Z" fill="url(#paint39_linear_24_3188)"/>
<path d="M59.9961 14.9235L62.7959 18.6158C64.5846 3.80807 53.6577 0.0388184 53.6577 0.0388184C59.8794 4.73115 59.9961 14.9235 59.9961 14.9235Z" fill="url(#paint40_linear_24_3188)"/>
<path d="M19.7491 34.3842C19.7491 34.3842 26.8652 28.1149 36.3534 24.4995C36.3534 24.4995 23.3655 25.9226 11.3497 33.8842C16.4826 32.4611 19.7491 34.3842 19.7491 34.3842Z" fill="url(#paint41_linear_24_3188)"/>
<path d="M83.173 14.1923C86.4783 11.1923 94.8388 5.92305 111.988 7.11537C90.4836 3.34612 78.8567 12.2692 78.8567 12.2692C78.8567 12.2692 79.2066 12.6923 79.9066 13.7308C80.6843 14.8846 82.162 15.0769 83.173 14.1923Z" fill="url(#paint42_linear_24_3188)"/>
<path d="M119.337 57.3081C122.642 62.0774 122.875 66.3081 122.875 66.3081C130.73 71.0005 134.386 84.1543 134.386 84.1543C134.386 84.1543 135.708 67.5774 119.337 57.3081Z" fill="url(#paint43_linear_24_3188)"/>
<path d="M51.5189 54.1151C55.6019 39.9997 62.9514 36.7304 62.9514 36.7304L63.418 32.9612C53.0355 37.5766 51.5189 54.1151 51.5189 54.1151Z" fill="url(#paint44_radial_24_3188)"/>
<path d="M16.4826 49.3852C18.8158 42.8082 26.2041 32.9236 26.2041 32.9236C26.2041 32.9236 18.2713 39.7313 14.6161 46.8083C10.9608 53.8852 3.06688 60.0391 3.06688 60.0391C12.5162 58.3468 16.4826 49.3852 16.4826 49.3852Z" fill="url(#paint45_linear_24_3188)"/>
<path d="M33.7092 48.0389C34.8369 44.8081 37.5978 40.9619 37.5978 40.9619C12.9829 58.6928 16.4826 87.1929 16.4826 87.1929C19.5157 62.9235 33.7092 48.0389 33.7092 48.0389Z" fill="url(#paint46_linear_24_3188)"/>
<path d="M85.7782 33.8843C85.7782 33.8843 87.7614 36.2304 89.4335 41.4228C89.4335 41.4228 109.421 60.2305 111.132 78.0767C111.132 78.0767 112.648 54.5767 85.7782 33.8843Z" fill="url(#paint47_linear_24_3188)"/>
<path d="M107.282 51.5779C107.282 51.5779 109.848 55.1933 111.676 60.9625C111.676 60.9625 121.864 74.7703 121.009 94.9627C126.492 59.4241 107.282 51.5779 107.282 51.5779Z" fill="url(#paint48_linear_24_3188)"/>
<path d="M91.7273 28.3458C91.7273 28.3458 100.049 25.692 112.648 36.3843C112.648 36.3843 103.432 33.1151 107.087 36.6536C112.142 41.0767 115.72 45.5767 115.72 45.5767C120.62 34.3843 108.332 12.1919 91.7273 28.3458Z" fill="url(#paint49_radial_24_3188)"/>
<path d="M105.765 26.3071C101.916 25.2302 98.4549 26.1532 95.7718 28.1148C99.3882 28.4225 105.299 30.1148 112.687 36.3841C112.687 36.3841 103.432 33.1148 107.126 36.6533C110.315 39.4225 112.92 42.2687 114.398 43.961C115.254 39.1533 112.959 28.3456 105.765 26.3071Z" fill="url(#paint50_linear_24_3188)"/>
<path d="M23.5211 39.0388C30.4039 34.0388 37.9478 32.4618 37.9478 32.4618C36.7812 31.6157 32.1149 32.4618 32.1149 32.4618C38.7644 28.2311 47.8637 28.3464 47.8637 28.3464C31.2594 12.1925 18.9714 34.3849 23.871 45.5388C23.871 45.5388 26.8264 41.8465 31.1427 37.8849C27.3319 38.2311 23.5211 39.0388 23.5211 39.0388Z" fill="url(#paint51_radial_24_3188)"/>
<path d="M131.742 88.8457C131.781 89.1149 131.82 89.4611 131.86 89.8457C131.781 89.1919 131.742 88.8457 131.742 88.8457Z" fill="url(#paint52_radial_24_3188)"/>
<path d="M137.808 98.3083C133.88 92.3852 130.73 79.0005 130.73 79.0005C130.73 79.0005 131.469 85.3851 131.741 88.8851C133.725 98.7313 136.486 102.924 136.486 102.924C136.991 101.347 137.419 99.8083 137.808 98.3083Z" fill="url(#paint53_radial_24_3188)"/>
<path d="M37.9486 32.4233C36.782 31.5772 32.1157 32.4233 32.1157 32.4233C36.1987 29.8079 41.1761 28.8848 44.4426 28.5387C41.6817 26.3079 37.9875 25.1541 33.8656 26.3079C29.0826 27.6541 26.4383 32.9233 25.505 37.6926C31.7657 33.731 37.9486 32.4233 37.9486 32.4233Z" fill="url(#paint54_linear_24_3188)"/>
<path d="M25.3103 38.6925C24.9992 40.6925 24.9992 42.5771 25.2325 43.9617C26.5158 42.5002 28.5767 40.2309 31.1432 37.8848C28.9656 38.0771 26.788 38.4232 25.3103 38.6925Z" fill="url(#paint55_linear_24_3188)"/>
<defs>
<linearGradient id="paint0_linear_24_3188" x1="69.9904" y1="143.665" x2="69.9904" y2="66.5833" gradientUnits="userSpaceOnUse">
<stop stop-color="#F05C00"/>
<stop offset="1" stop-color="#BD2719"/>
</linearGradient>
<radialGradient id="paint1_radial_24_3188" cx="0" cy="0" r="1" gradientUnits="userSpaceOnUse" gradientTransform="translate(71.1352 77.8711) scale(66.5894 65.7968)">
<stop offset="0.00132565" stop-color="#512D00"/>
<stop offset="1" stop-color="#512D00" stop-opacity="0"/>
</radialGradient>
<radialGradient id="paint2_radial_24_3188" cx="0" cy="0" r="1" gradientUnits="userSpaceOnUse" gradientTransform="translate(117.388 82.2633) scale(30.8926 30.5249)">
<stop offset="0.00132565" stop-color="#512D00"/>
<stop offset="1" stop-color="#512D00" stop-opacity="0"/>
</radialGradient>
<radialGradient id="paint3_radial_24_3188" cx="0" cy="0" r="1" gradientUnits="userSpaceOnUse" gradientTransform="translate(51.8384 58.1633) scale(90.1835 89.1102)">
<stop stop-color="#FCCE38"/>
<stop offset="1" stop-color="#FF8000"/>
</radialGradient>
<linearGradient id="paint4_linear_24_3188" x1="69.792" y1="83.9622" x2="69.792" y2="49.0958" gradientUnits="userSpaceOnUse">
<stop stop-color="#FFCB4B"/>
<stop offset="1" stop-color="#FF8000" stop-opacity="0"/>
</linearGradient>
<radialGradient id="paint5_radial_24_3188" cx="0" cy="0" r="1" gradientUnits="userSpaceOnUse" gradientTransform="translate(18.6567 84.4277) rotate(-119.055) scale(65.2125 31.0925)">
<stop stop-color="#FCCE38"/>
<stop offset="1" stop-color="#FF8000"/>
</radialGradient>
<radialGradient id="paint6_radial_24_3188" cx="0" cy="0" r="1" gradientUnits="userSpaceOnUse" gradientTransform="translate(131.524 85.0531) rotate(-60.9446) scale(65.3657 31.1655)">
<stop stop-color="#FCCE38"/>
<stop offset="1" stop-color="#FF8000"/>
</radialGradient>
<linearGradient id="paint7_linear_24_3188" x1="69.8176" y1="135.591" x2="69.8176" y2="106.908" gradientUnits="userSpaceOnUse">
<stop stop-color="#FBE07A"/>
<stop offset="1" stop-color="white"/>
</linearGradient>
<linearGradient id="paint8_linear_24_3188" x1="69.8182" y1="120.506" x2="69.8182" y2="105.054" gradientUnits="userSpaceOnUse">
<stop stop-color="#FCCE38" stop-opacity="0"/>
<stop offset="0.00941044" stop-color="#FCCD37" stop-opacity="0.01"/>
<stop offset="0.2861" stop-color="#FDAB1F" stop-opacity="0.2861"/>
<stop offset="0.5504" stop-color="#FE930E" stop-opacity="0.5504"/>
<stop offset="0.7948" stop-color="#FF8504" stop-opacity="0.7948"/>
<stop offset="1" stop-color="#FF8000"/>
</linearGradient>
<linearGradient id="paint9_linear_24_3188" x1="69.7638" y1="110.948" x2="72.9182" y2="128.382" gradientUnits="userSpaceOnUse">
<stop stop-color="#FF6688"/>
<stop offset="1" stop-color="#FB9C9C"/>
</linearGradient>
<linearGradient id="paint10_linear_24_3188" x1="70.782" y1="115.791" x2="67.3465" y2="98.4941" gradientUnits="userSpaceOnUse">
<stop stop-color="#FF6688"/>
<stop offset="1" stop-color="#B30B0B"/>
</linearGradient>
<linearGradient id="paint11_linear_24_3188" x1="71.3522" y1="115.676" x2="67.9169" y2="98.3809" gradientUnits="userSpaceOnUse">
<stop stop-color="#FF6688"/>
<stop offset="1" stop-color="#B30B0B"/>
</linearGradient>
<linearGradient id="paint12_linear_24_3188" x1="69.818" y1="127.518" x2="69.818" y2="83.9233" gradientUnits="userSpaceOnUse">
<stop stop-color="#FBE07A"/>
<stop offset="1" stop-color="white"/>
</linearGradient>
<radialGradient id="paint13_radial_24_3188" cx="0" cy="0" r="1" gradientUnits="userSpaceOnUse" gradientTransform="translate(88.5903 94.5858) rotate(180) scale(35.8074 35.3813)">
<stop stop-color="#FF8000" stop-opacity="0"/>
<stop offset="1" stop-color="#FCCE38"/>
</radialGradient>
<radialGradient id="paint14_radial_24_3188" cx="0" cy="0" r="1" gradientUnits="userSpaceOnUse" gradientTransform="translate(51.0522 94.5858) scale(35.8074 35.3813)">
<stop stop-color="#FF8000" stop-opacity="0"/>
<stop offset="1" stop-color="#FCCE38"/>
</radialGradient>
<radialGradient id="paint15_radial_24_3188" cx="0" cy="0" r="1" gradientUnits="userSpaceOnUse" gradientTransform="translate(69.8284 46.302) rotate(180) scale(58.1445 57.4524)">
<stop stop-color="#F8BE00"/>
<stop offset="1" stop-color="#FF8000"/>
</radialGradient>
<linearGradient id="paint16_linear_24_3188" x1="71.0273" y1="97.4652" x2="66.9747" y2="83.1513" gradientUnits="userSpaceOnUse">
<stop stop-color="#3C2200"/>
<stop offset="1" stop-color="#512D00"/>
</linearGradient>
<radialGradient id="paint17_radial_24_3188" cx="0" cy="0" r="1" gradientUnits="userSpaceOnUse" gradientTransform="translate(90.2436 69.5196) rotate(91.4602) scale(5.59909 4.59283)">
<stop stop-color="#512D00"/>
<stop offset="1" stop-color="#3C2200"/>
</radialGradient>
<linearGradient id="paint18_linear_24_3188" x1="88.5925" y1="100.999" x2="90.3128" y2="100.999" gradientUnits="userSpaceOnUse">
<stop stop-color="#3C2200"/>
<stop offset="1" stop-color="#512D00"/>
</linearGradient>
<linearGradient id="paint19_linear_24_3188" x1="83.0684" y1="102.444" x2="84.7886" y2="102.444" gradientUnits="userSpaceOnUse">
<stop stop-color="#3C2200"/>
<stop offset="1" stop-color="#512D00"/>
</linearGradient>
<linearGradient id="paint20_linear_24_3188" x1="85.1125" y1="96.7106" x2="86.8327" y2="96.7106" gradientUnits="userSpaceOnUse">
<stop stop-color="#3C2200"/>
<stop offset="1" stop-color="#512D00"/>
</linearGradient>
<linearGradient id="paint21_linear_24_3188" x1="51.043" y1="100.999" x2="49.3227" y2="100.999" gradientUnits="userSpaceOnUse">
<stop stop-color="#3C2200"/>
<stop offset="1" stop-color="#512D00"/>
</linearGradient>
<linearGradient id="paint22_linear_24_3188" x1="56.5679" y1="102.444" x2="54.8477" y2="102.444" gradientUnits="userSpaceOnUse">
<stop stop-color="#3C2200"/>
<stop offset="1" stop-color="#512D00"/>
</linearGradient>
<linearGradient id="paint23_linear_24_3188" x1="54.5238" y1="96.7106" x2="52.8036" y2="96.7106" gradientUnits="userSpaceOnUse">
<stop stop-color="#3C2200"/>
<stop offset="1" stop-color="#512D00"/>
</linearGradient>
<radialGradient id="paint24_radial_24_3188" cx="0" cy="0" r="1" gradientUnits="userSpaceOnUse" gradientTransform="translate(49.3927 69.5152) rotate(88.5398) scale(5.59909 4.59284)">
<stop stop-color="#512D00"/>
<stop offset="1" stop-color="#3C2200"/>
</radialGradient>
<linearGradient id="paint25_linear_24_3188" x1="68.0049" y1="84.6606" x2="69.8292" y2="92.1799" gradientUnits="userSpaceOnUse">
<stop stop-color="#643800"/>
<stop offset="1" stop-color="#512D00"/>
</linearGradient>
<radialGradient id="paint26_radial_24_3188" cx="0" cy="0" r="1" gradientUnits="userSpaceOnUse" gradientTransform="translate(73.8627 49.9674) rotate(180) scale(79.7185 78.7698)">
<stop stop-color="#F8BE00"/>
<stop offset="1" stop-color="#FF8000"/>
</radialGradient>
<linearGradient id="paint27_linear_24_3188" x1="87.9611" y1="66.4886" x2="90.3872" y2="71.8211" gradientUnits="userSpaceOnUse">
<stop stop-color="#A3541E"/>
<stop offset="1" stop-color="#512D00"/>
</linearGradient>
<linearGradient id="paint28_linear_24_3188" x1="47.5347" y1="66.4886" x2="49.9609" y2="71.8211" gradientUnits="userSpaceOnUse">
<stop stop-color="#A3541E"/>
<stop offset="1" stop-color="#512D00"/>
</linearGradient>
<radialGradient id="paint29_radial_24_3188" cx="0" cy="0" r="1" gradientUnits="userSpaceOnUse" gradientTransform="translate(12.6706 58.8915) scale(41.8067 41.3091)">
<stop offset="0.00132565" stop-color="#512D00"/>
<stop offset="1" stop-color="#512D00" stop-opacity="0"/>
</radialGradient>
<radialGradient id="paint30_radial_24_3188" cx="0" cy="0" r="1" gradientUnits="userSpaceOnUse" gradientTransform="translate(12.7053 58.8854) scale(42.1037 41.3169)">
<stop offset="0.00132565" stop-color="#512D00"/>
<stop offset="1" stop-color="#512D00" stop-opacity="0"/>
</radialGradient>
<radialGradient id="paint31_radial_24_3188" cx="0" cy="0" r="1" gradientUnits="userSpaceOnUse" gradientTransform="translate(20.1242 94.5142) scale(41.786 41.2886)">
<stop offset="0.00132565" stop-color="#512D00"/>
<stop offset="1" stop-color="#512D00" stop-opacity="0"/>
</radialGradient>
<radialGradient id="paint32_radial_24_3188" cx="0" cy="0" r="1" gradientUnits="userSpaceOnUse" gradientTransform="translate(34.8585 105.929) scale(44.3641 43.8361)">
<stop offset="0.00132565" stop-color="#512D00"/>
<stop offset="1" stop-color="#512D00" stop-opacity="0"/>
</radialGradient>
<radialGradient id="paint33_radial_24_3188" cx="0" cy="0" r="1" gradientUnits="userSpaceOnUse" gradientTransform="translate(89.3804 104.465) scale(31.6423 31.2657)">
<stop offset="0.00132565" stop-color="#512D00"/>
<stop offset="1" stop-color="#512D00" stop-opacity="0"/>
</radialGradient>
<radialGradient id="paint34_radial_24_3188" cx="0" cy="0" r="1" gradientUnits="userSpaceOnUse" gradientTransform="translate(86.4242 113.212) scale(29.7459 29.3917)">
<stop offset="0.00132565" stop-color="#512D00"/>
<stop offset="1" stop-color="#512D00" stop-opacity="0"/>
</radialGradient>
<radialGradient id="paint35_radial_24_3188" cx="0" cy="0" r="1" gradientUnits="userSpaceOnUse" gradientTransform="translate(52.8781 29.1474) rotate(81.3874) scale(65.9218 71.2279)">
<stop stop-color="#FF9D00"/>
<stop offset="1" stop-color="#E74A3A"/>
</radialGradient>
<radialGradient id="paint36_radial_24_3188" cx="0" cy="0" r="1" gradientUnits="userSpaceOnUse" gradientTransform="translate(37.9523 -2.31341) rotate(106.099) scale(68.7426 147.471)">
<stop stop-color="#E74A3A"/>
<stop offset="1" stop-color="#FF9D00"/>
</radialGradient>
<radialGradient id="paint37_radial_24_3188" cx="0" cy="0" r="1" gradientUnits="userSpaceOnUse" gradientTransform="translate(46.462 27.0699) scale(48.5327 53.0528)">
<stop stop-color="#F05C00"/>
<stop offset="1" stop-color="#BD2719"/>
</radialGradient>
<radialGradient id="paint38_radial_24_3188" cx="0" cy="0" r="1" gradientUnits="userSpaceOnUse" gradientTransform="translate(63.2008 33.4161) scale(63.0155 68.8843)">
<stop stop-color="#F05C00"/>
<stop offset="1" stop-color="#BD2719"/>
</radialGradient>
<linearGradient id="paint39_linear_24_3188" x1="30.3646" y1="5.93967" x2="49.9205" y2="19.0467" gradientUnits="userSpaceOnUse">
<stop stop-color="#F05C00"/>
<stop offset="1" stop-color="#BD2719"/>
</linearGradient>
<linearGradient id="paint40_linear_24_3188" x1="52.6011" y1="-0.497223" x2="70.1644" y2="25.1007" gradientUnits="userSpaceOnUse">
<stop stop-color="#F05C00"/>
<stop offset="1" stop-color="#BD2719"/>
</linearGradient>
<linearGradient id="paint41_linear_24_3188" x1="14.4287" y1="31.8712" x2="35.6181" y2="27.9363" gradientUnits="userSpaceOnUse">
<stop stop-color="#F05C00"/>
<stop offset="1" stop-color="#BD2719"/>
</linearGradient>
<linearGradient id="paint42_linear_24_3188" x1="100.395" y1="3.5452" x2="86.0911" y2="21.5131" gradientUnits="userSpaceOnUse">
<stop stop-color="#F05C00"/>
<stop offset="1" stop-color="#BD2719"/>
</linearGradient>
<linearGradient id="paint43_linear_24_3188" x1="135.649" y1="99.0508" x2="122.639" y2="52.6272" gradientUnits="userSpaceOnUse">
<stop stop-color="#F05C00"/>
<stop offset="1" stop-color="#BD2719"/>
</linearGradient>
<radialGradient id="paint44_radial_24_3188" cx="0" cy="0" r="1" gradientUnits="userSpaceOnUse" gradientTransform="translate(48.5789 26.8338) scale(56.0296 61.2476)">
<stop stop-color="#F05C00"/>
<stop offset="1" stop-color="#BD2719"/>
</radialGradient>
<linearGradient id="paint45_linear_24_3188" x1="8.14536" y1="70.5485" x2="16.1393" y2="40.2981" gradientUnits="userSpaceOnUse">
<stop stop-color="#F05C00"/>
<stop offset="1" stop-color="#BD2719"/>
</linearGradient>
<linearGradient id="paint46_linear_24_3188" x1="37.4017" y1="93.1514" x2="23.2207" y2="52.4101" gradientUnits="userSpaceOnUse">
<stop stop-color="#F05C00"/>
<stop offset="1" stop-color="#BD2719"/>
</linearGradient>
<linearGradient id="paint47_linear_24_3188" x1="94.164" y1="99.3773" x2="102.821" y2="9.95711" gradientUnits="userSpaceOnUse">
<stop stop-color="#F05C00"/>
<stop offset="1" stop-color="#BD2719"/>
</linearGradient>
<linearGradient id="paint48_linear_24_3188" x1="126.67" y1="109.647" x2="111.117" y2="48.9281" gradientUnits="userSpaceOnUse">
<stop stop-color="#BD2719" stop-opacity="0"/>
<stop offset="1" stop-color="#BD2719"/>
</linearGradient>
<radialGradient id="paint49_radial_24_3188" cx="0" cy="0" r="1" gradientUnits="userSpaceOnUse" gradientTransform="translate(128.422 16.4941) scale(43.043 42.5307)">
<stop stop-color="#FCCE38"/>
<stop offset="1" stop-color="#FF8000"/>
</radialGradient>
<linearGradient id="paint50_linear_24_3188" x1="99.8092" y1="42.5736" x2="114.32" y2="24.1067" gradientUnits="userSpaceOnUse">
<stop stop-color="#F05C00"/>
<stop offset="1" stop-color="#BD2719"/>
</linearGradient>
<radialGradient id="paint51_radial_24_3188" cx="0" cy="0" r="1" gradientUnits="userSpaceOnUse" gradientTransform="translate(37.7064 22.8687) scale(43.0429 42.5307)">
<stop stop-color="#FCCE38"/>
<stop offset="1" stop-color="#FF8000"/>
</radialGradient>
<radialGradient id="paint52_radial_24_3188" cx="0" cy="0" r="1" gradientUnits="userSpaceOnUse" gradientTransform="translate(113.496 66.645) scale(50.9278 49.9656)">
<stop offset="0.00132565" stop-color="#512D00"/>
<stop offset="1" stop-color="#512D00" stop-opacity="0"/>
</radialGradient>
<radialGradient id="paint53_radial_24_3188" cx="0" cy="0" r="1" gradientUnits="userSpaceOnUse" gradientTransform="translate(113.624 66.6466) scale(50.566 49.9643)">
<stop offset="0.00132565" stop-color="#512D00"/>
<stop offset="1" stop-color="#512D00" stop-opacity="0"/>
</radialGradient>
<linearGradient id="paint54_linear_24_3188" x1="36.0356" y1="34.5268" x2="21.1166" y2="14.2775" gradientUnits="userSpaceOnUse">
<stop stop-color="#F05C00"/>
<stop offset="1" stop-color="#BD2719"/>
</linearGradient>
<linearGradient id="paint55_linear_24_3188" x1="28.5548" y1="41.3884" x2="21.3139" y2="31.5605" gradientUnits="userSpaceOnUse">
<stop stop-color="#F05C00"/>
<stop offset="1" stop-color="#BD2719"/>
</linearGradient>
</defs>
</svg>
