<svg width="113" height="144" viewBox="0 0 113 144" fill="none" xmlns="http://www.w3.org/2000/svg">
<path d="M41.8175 50.4009C44.9774 50.4009 47.539 47.8221 47.539 44.6409C47.539 41.4597 44.9774 38.8809 41.8175 38.8809C38.6576 38.8809 36.0959 41.4597 36.0959 44.6409C36.0959 47.8221 38.6576 50.4009 41.8175 50.4009Z" fill="url(#paint0_linear_24_3854)"/>
<path d="M53.429 18.5926C58.1829 5.46314 74.7585 -0.423947 78.2503 0.0419374C78.2503 0.0419374 76.904 1.94783 74.6322 4.48902C71.1404 8.3855 72.3184 11.9432 65.461 19.6091C61.3802 24.1409 53.429 18.5926 53.429 18.5926Z" fill="url(#paint1_linear_24_3854)"/>
<path d="M76.2729 0.169412C73.7908 1.65177 72.0238 3.3459 71.3086 4.87061C71.3086 4.87061 67.3541 6.09885 66.8492 6.39532C66.8492 6.39532 68.3217 6.26826 69.9203 6.1412C70.9721 6.0565 68.1113 9.95298 68.1113 9.95298C68.1113 9.95298 64.0726 11.1389 62.4319 12.2401C62.4319 12.2401 64.9981 11.4777 66.0078 11.5624C67.0175 11.6471 64.325 15.8401 61.6746 15.3742C59.3187 14.9507 57.0469 14.0189 55.5324 14.2306C55.1117 14.8659 54.733 15.5436 54.3965 16.2636C54.5648 17.1107 54.9434 17.9577 54.9434 17.9577L63.3995 19.9907L65.7554 19.2707C72.2763 11.8589 71.2245 8.34357 74.6322 4.48943C76.9039 1.94824 78.2502 0.0423531 78.2502 0.0423531C77.7874 -0.0423531 77.1143 0 76.2729 0.169412Z" fill="url(#paint2_linear_24_3854)"/>
<path d="M63.0212 16.433C60.8336 17.2377 59.0667 15.8401 55.07 14.993C54.3969 16.1365 53.85 17.3224 53.3872 18.593C53.3872 18.593 61.3384 24.1413 65.4192 19.5672C72.2766 11.9012 71.1407 8.34357 74.5905 4.44708C76.8623 1.90589 78.2085 0 78.2085 0C70.0049 2.88001 68.6586 14.3154 63.0212 16.433Z" fill="#407817"/>
<path d="M54.6068 17.0259C51.4936 8.42819 35.6332 2.71052 30.4165 1.90581C28.7758 1.69404 29.3648 2.49875 31.5104 3.38817C33.6559 4.27758 41.4389 10.3341 41.8175 15.7553C42.1962 21.1765 54.6068 17.0259 54.6068 17.0259Z" fill="url(#paint3_linear_24_3854)"/>
<path d="M31.5106 3.38817C33.572 4.27758 41.0605 10.0376 41.7757 15.3741L50.2318 17.4071C50.2318 17.4071 53.1767 16.7718 54.0181 15.6706C53.5974 14.9082 53.1346 14.1882 52.5456 13.4682C49.1379 11.7317 44.2578 11.9859 43.753 11.9011C43.2061 11.8164 41.4391 9.52937 41.8178 9.48702C42.7854 9.27525 45.4358 9.8682 45.4358 9.8682C44.5102 9.19055 40.766 8.93643 40.766 8.93643C39.4198 7.07289 37.9052 5.97171 38.7887 6.05641C39.6722 6.22583 40.3874 5.92936 40.3874 5.92936C40.3874 5.92936 37.737 5.63288 37.19 5.37876C36.6011 5.12465 33.6141 2.92228 30.4588 1.90581C28.776 1.69404 29.365 2.49875 31.5106 3.38817Z" fill="url(#paint4_linear_24_3854)"/>
<path d="M54.607 17.0257C54.3546 16.3057 53.976 15.5857 53.5553 14.908C47.96 11.8586 43.8371 13.468 42.4067 11.6045C40.9764 9.74095 36.9376 4.65857 30.7954 1.99033C30.6692 1.94797 30.543 1.94797 30.4588 1.94797C28.776 1.69385 29.365 2.49856 31.5106 3.38798C33.6562 4.27739 41.4391 10.3339 41.8178 15.7551C42.2385 21.2186 54.607 17.0257 54.607 17.0257Z" fill="#407817"/>
<path d="M77.1142 35.4071C86.0751 33.7977 89.9035 30.1976 95.5409 25.3694C101.178 20.5411 108.667 18.5505 113 19.9058C113 19.9058 107.489 10.3764 85.7386 10.6305C63.9884 10.8846 57.0048 27.9529 57.0048 27.9529L77.1142 35.4071Z" fill="url(#paint5_linear_24_3854)"/>
<path d="M85.7384 10.6728C82.6252 10.7152 79.8066 11.0964 77.2824 11.7316C71.8974 13.9764 67.5642 16.2211 64.7455 18.0423C63.273 19.2705 62.053 20.5411 61.0433 21.727C61.464 22.2776 64.451 23.1246 68.4477 20.2023C84.1398 8.76693 109.171 16.4328 99.5795 12.1128C95.9194 11.1811 91.3758 10.5881 85.7384 10.6728Z" fill="url(#paint6_linear_24_3854)"/>
<path d="M101.473 17.4079C97.8128 17.8737 90.9554 15.7984 88.0105 15.5867C88.0105 15.5867 94.4052 18.0432 95.0783 19.4408C95.0783 19.4408 95.5831 20.0761 93.9424 20.3726C92.3017 20.7114 89.3568 23.1679 89.3568 23.1679C89.3568 23.1679 80.9848 20.542 76.7778 21.0926C76.7778 21.0926 84.8973 22.4902 86.8326 24.6079C88.8099 26.7256 78.8813 27.6997 78.8813 27.6997L84.3504 33.2056C88.6837 31.2997 91.6706 28.5891 95.499 25.3279C101.136 20.4996 108.625 18.509 112.958 19.8643C111.359 17.8737 105.175 16.942 101.473 17.4079Z" fill="url(#paint7_linear_24_3854)"/>
<path d="M92.3435 23.2948C87.6738 27.996 82.4571 29.5631 82.4571 29.5631C75.5155 23.7183 69.0788 19.3983 64.367 18.3818C63.189 18.3818 63.6097 19.0595 63.2311 19.3983C68.7002 21.8548 76.1887 26.8525 82.7936 33.9254C88.0103 32.0195 91.2497 29.0548 95.5409 25.4125C101.178 20.5842 108.667 18.5936 113 19.9489C107.825 17.1112 97.0133 18.5936 92.3435 23.2948Z" fill="#407817"/>
<path d="M52.5456 18.9741L53.2187 16.3482C53.2187 16.3482 50.4841 15.1199 46.1509 14.1458C43.5847 13.214 40.1349 12.4517 35.5072 12.1552C13.9674 10.6728 1.80913 30.5788 0.715305 32.1882C-0.378515 33.7977 0.126325 34.5177 0.126325 34.5177L5.34301 31.8494C16.2812 27.8259 27.0091 32.8659 27.0091 32.8659L38.368 28.8423L53.0504 23.9294C53.0504 23.887 53.9339 21.6 52.5456 18.9741Z" fill="url(#paint8_linear_24_3854)"/>
<path d="M5.34301 31.8493C16.2812 27.8258 27.0091 32.8658 27.0091 32.8658L38.368 28.8422L53.0504 23.9293C53.0504 23.9293 53.9339 21.5998 52.5456 19.0163L53.2187 16.3904C53.2187 16.3904 51.1993 15.4586 47.8758 14.6116C44.7206 16.221 40.3032 17.3222 34.4975 16.0939C26.5463 14.3151 13.7991 21.1763 6.26855 24.9881C2.98709 28.5458 1.09394 31.5952 0.715305 32.1881C-0.378515 33.7975 0.126325 34.5175 0.126325 34.5175L5.34301 31.8493Z" fill="url(#paint9_linear_24_3854)"/>
<path d="M57.1313 17.6616C65.3349 17.3228 102.988 40.6593 96.7612 75.8971C96.7612 75.8971 93.8163 68.1465 84.0981 63.9959C76.9042 60.9041 68.2377 55.9488 62.6845 41.5911C56.4161 25.4122 57.1313 17.6616 57.1313 17.6616Z" fill="url(#paint10_linear_24_3854)"/>
<path d="M90.8712 48.5366C95.4569 55.652 94.7837 65.3508 89.0622 57.4308C84.098 50.6119 68.3217 39.9813 71.9818 24.4801C69.4997 22.7436 67.1017 21.3036 64.9561 20.2024L57.2152 20.4989C57.5097 24.0565 58.6035 31.0448 62.7264 41.5907C68.2796 55.9484 76.9461 60.9038 84.14 63.9955C93.8582 68.1461 96.8031 75.8968 96.8031 75.8968C99.159 62.6402 95.2886 51.0778 89.1043 41.8025C88.7677 43.4966 89.0622 45.699 90.8712 48.5366Z" fill="url(#paint11_linear_24_3854)"/>
<path d="M96.7611 75.8959C96.8873 75.1336 97.0135 74.3289 97.0977 73.5665C96.5087 65.223 90.4506 65.1382 87.7581 62.3853C85.0656 59.6747 84.4346 51.2464 84.4346 51.2464C83.2145 55.4817 84.9815 60.9876 84.9815 60.9876C84.9815 60.9876 79.8069 60.3523 77.8717 55.4817C75.8944 50.6111 77.2827 39.7687 77.2827 39.7687C74.8426 43.1146 75.8944 55.6935 75.8944 55.6935C70.9722 50.0182 70.257 42.564 71.2246 36.5075C71.9398 32.0181 72.5288 27.6134 70.6777 23.5475C69.5418 22.7851 68.448 22.1075 67.3541 21.4722L65.2927 31.8063L64.7037 46.164C70.2149 57.0064 77.7034 61.2418 84.0559 63.9524C93.8162 68.1453 96.7611 75.8959 96.7611 75.8959Z" fill="url(#paint12_linear_24_3854)"/>
<path d="M50.1052 142.221C61.4221 101.139 57.1309 71.788 55.8267 52.6444L63.6938 38.6255C63.6938 38.6255 78.5866 89.6187 69.9202 141.882C69.9202 141.882 66.0077 144 61.38 144C58.7296 144 54.8591 143.534 50.1052 142.221Z" fill="url(#paint13_linear_24_3854)"/>
<path d="M60.0757 69.2893C62.2213 83.647 54.1018 136.25 53.3025 139.384C52.5452 142.518 56.2053 140.146 59.2343 136.419C62.2634 132.692 59.613 128.499 60.9171 116.132C62.2213 103.765 64.451 71.9151 62.4317 66.9598C60.4123 62.0469 58.1405 56.2868 60.0757 69.2893Z" fill="url(#paint14_linear_24_3854)"/>
<path d="M63.6942 38.6255L56.374 59.8021C56.7527 64.5456 57.1734 69.7974 57.4258 75.5574C71.393 63.3174 66.9336 72.3386 66.3025 91.8211C66.0081 101.266 63.2735 134.81 65.7136 143.407C67.9012 142.984 69.8785 141.882 69.9206 141.882C69.9626 141.882 69.9206 141.882 69.9206 141.882C78.587 89.6187 63.6942 38.6255 63.6942 38.6255Z" fill="url(#paint15_linear_24_3854)"/>
<path d="M71.7295 85.8918C71.6454 84.6212 71.5192 83.3929 71.393 82.1223C67.9012 86.4 62.7686 90.7624 57.6361 90.8047C57.6361 91.3553 57.594 91.9483 57.594 92.4988C59.9499 92.753 64.5356 91.9906 71.7295 85.8918Z" fill="url(#paint16_linear_24_3854)"/>
<path d="M57.5518 77.8874C57.5938 78.4804 57.5938 79.1157 57.5938 79.7086C60.4125 79.2427 65.7975 77.5062 70.0466 70.7721C69.8783 69.4168 69.6679 68.0615 69.4576 66.7485C68.0693 70.8991 62.6002 75.7698 57.5518 77.8874Z" fill="url(#paint17_linear_24_3854)"/>
<path d="M72.4028 97.073C67.3544 101.266 63.6523 102.833 56.9631 104.104C56.921 104.57 56.879 105.035 56.8369 105.501C64.1571 105.332 69.7103 102.325 72.529 100.419C72.487 99.2754 72.487 98.1742 72.4028 97.073Z" fill="url(#paint18_linear_24_3854)"/>
<path d="M71.2667 132.311C71.3929 131.125 71.5191 129.897 71.6453 128.711C66.9335 131.591 58.225 133.962 52.1248 134.386C51.9566 135.064 51.7883 135.741 51.62 136.461C60.034 136.758 68.4059 133.539 71.2667 132.311Z" fill="url(#paint19_linear_24_3854)"/>
<path d="M72.4869 115.794C72.5289 114.354 72.571 112.914 72.6131 111.474C72.6131 111.516 72.571 111.516 72.571 111.516C69.6261 114.862 63.3156 120.156 55.0699 119.732C54.9857 120.283 54.9016 120.834 54.7754 121.384C62.348 122.909 70.0468 117.657 72.4869 115.794Z" fill="url(#paint20_linear_24_3854)"/>
<path d="M56.9207 66.6639C56.9627 67.1721 57.0048 67.638 57.0048 68.1462C60.4966 67.1297 65.1664 64.7156 68.1954 59.0403C68.0272 58.0662 67.8589 57.1344 67.6906 56.2026C65.8816 59.8027 62.8105 64.038 56.9207 66.6639Z" fill="url(#paint21_linear_24_3854)"/>
<path d="M13.5466 88.0942C18.6371 75.7271 27.1353 70.9412 32.5623 61.0306C36.9376 52.9835 39.4618 42.9034 42.7012 37.9481C45.9406 32.9928 43.6688 25.0728 43.6688 25.0728C43.6688 25.0728 12.3687 33.1622 7.78305 54.9317C3.19742 76.7012 13.5466 88.0942 13.5466 88.0942Z" fill="#76AB50"/>
<path d="M13.5466 88.0942C18.6371 75.7271 27.1353 70.9412 32.5623 61.0306C36.9376 52.9835 39.4618 42.9034 42.7012 37.9481C45.9406 32.9928 43.6688 25.0728 43.6688 25.0728C43.6688 25.0728 12.3687 33.1622 7.78305 54.9317C3.19742 76.7012 13.5466 88.0942 13.5466 88.0942Z" fill="url(#paint22_linear_24_3854)"/>
<path d="M43.7109 25.116C43.7109 25.116 41.0605 25.7936 37.148 27.3183C37.4845 32.7819 33.7403 37.8219 32.2678 39.0078C30.6271 40.3631 19.8993 49.5961 16.6599 61.9632C13.4205 74.3303 11.1487 76.5327 9.67624 68.0197C8.49828 61.2008 9.42382 50.8243 19.3944 37.356C13.9674 41.8031 9.38175 47.6055 7.82516 54.9326C3.23953 76.7444 13.5467 88.0951 13.5467 88.0951C18.6372 75.728 27.1353 70.9421 32.5623 61.0314C36.9376 52.9843 39.4618 42.9043 42.7012 37.949C45.9406 32.9937 43.7109 25.116 43.7109 25.116Z" fill="url(#paint23_linear_24_3854)"/>
<path d="M17.3328 61.8356C19.1418 62.5556 19.857 68.485 21.1191 70.3486C21.5398 70.9839 28.4814 61.8356 28.4814 61.8356C28.4814 61.8356 26.5041 53.8308 23.1385 50.7814C23.1385 50.7814 27.051 52.2638 29.1124 56.7955C31.1738 61.3273 33.3194 49.6379 33.5298 47.6049C33.7401 45.572 30.669 40.1084 29.6173 39.0496C29.6173 39.0496 33.6139 43.7508 35.4229 42.6072C37.2319 41.4637 39.3354 39.0496 38.8727 35.4495C38.4099 31.8495 40.4293 27.2754 40.4293 27.2754L40.3451 33.7978L36.8112 49.6379L29.1124 65.5626L14.7245 83.1816L12.621 88.3063C12.621 88.3063 12.4106 80.0474 19.1418 73.9062L19.7308 70.645L17.3328 61.8356Z" fill="url(#paint24_linear_24_3854)"/>
<path d="M44.2576 33.7128C44.9308 29.4351 43.6687 25.0728 43.6687 25.0728C43.6687 25.0728 42.6169 25.3269 40.85 25.9198C40.3451 26.0892 39.3775 31.3834 39.8403 35.2375C40.0086 36.6352 39.672 37.9905 38.9568 39.1764C34.7077 46.5458 35.3388 55.2706 27.9765 64.3765C21.1191 72.8471 15.2293 79.2001 12.621 86.866C13.21 87.6707 13.5886 88.0942 13.5886 88.0942C18.6791 75.7271 27.1772 70.9412 32.6042 61.0306C36.9795 52.9835 39.5037 42.9034 42.7431 37.9481C43.5424 36.7199 44.0052 35.3222 44.2576 33.9246C44.2576 33.8822 44.2576 33.8822 44.2576 33.8399C44.2576 33.8399 44.2576 33.7975 44.2576 33.7128C44.2576 33.7551 44.2576 33.7551 44.2576 33.7128Z" fill="#407817"/>
<path d="M93.9425 68.0614C89.3989 62.979 78.2083 61.2425 74.1696 55.6943C70.1309 50.146 67.775 47.5201 69.7522 39.2189C71.1826 33.2048 70.9723 27.0212 69.4998 22.7859C66.6391 20.0753 63.568 19.6094 62.1376 18.8894C64.9142 21.2188 69.4578 26.5553 68.5743 32.5695C67.9432 36.9742 66.8915 41.6754 64.9983 46.7154C70.4674 57.1766 77.8297 61.2849 84.0981 63.9955C93.8163 68.1461 96.7612 75.8967 96.7612 75.8967C96.8874 75.1344 97.0136 74.3297 97.0978 73.5673C96.7191 72.085 95.8357 70.1791 93.9425 68.0614Z" fill="#407817"/>
<path d="M49.6006 72.4238C54.691 65.6473 41.5652 53.2802 41.5652 36.9742C41.5652 18.72 49.7688 14.527 53.1765 16.3482C53.1765 16.3482 68.5741 16.0094 68.8265 32.3154C69.0369 43.8354 63.4837 68.3155 49.6006 72.4238Z" fill="url(#paint25_linear_24_3854)"/>
<path d="M61.4643 18.5076C64.1568 22.277 66.3444 28.1217 66.0499 37.0159C65.2927 58.6583 52.7979 65.3501 55.6166 55.4395C58.0987 46.6724 45.1411 32.5265 44.6784 21.3029C42.9114 24.6064 41.5652 29.6464 41.5652 36.9312C41.5652 53.2795 54.691 65.6466 49.6006 72.3808C63.4837 68.2725 69.0369 43.75 68.8686 32.23C68.7424 24.5217 65.1665 20.5405 61.4643 18.5076Z" fill="url(#paint26_linear_24_3854)"/>
<path d="M21.3295 29.2661C25.4103 22.7013 29.8697 19.5248 31.889 19.0166C31.889 19.0166 24.3585 24.3954 24.1061 28.7578" fill="url(#paint27_linear_24_3854)"/>
<path d="M35.1705 4.99762C37.6527 4.91292 40.0927 5.84469 40.3872 5.92939C40.6817 6.0141 40.6817 6.31057 39.3775 5.92939C38.0734 5.54821 36.2223 5.71763 36.2223 5.71763" fill="#407817"/>
<path d="M39.4614 8.68262C44.8884 8.89438 46.2347 10.292 44.9305 9.7838C43.6684 9.31791 41.3545 8.97909 40.3028 9.57203C39.251 10.165 39.4614 8.68262 39.4614 8.68262Z" fill="#407817"/>
<path d="M73.244 4.15039C70.1308 4.48922 67.27 6.05628 66.9335 6.2257C66.5969 6.39511 66.639 6.73393 68.1956 6.05628C69.7522 5.37863 72.1081 5.25157 72.1081 5.25157" fill="#407817"/>
<path d="M69.4995 9.35962C62.8525 10.969 61.5483 13.002 62.9787 12.0702C64.4091 11.1808 67.1857 10.1643 68.6581 10.6726C70.1306 11.1808 69.4995 9.35962 69.4995 9.35962Z" fill="#407817"/>
<path d="M100.884 19.1861C89.8195 14.2732 85.907 15.7132 88.8939 16.0097C91.8389 16.3061 96.8452 17.9156 98.3597 20.1603C99.8743 22.4473 100.884 19.1861 100.884 19.1861Z" fill="#407817"/>
<path d="M93.3533 23.9291C79.1336 18.8467 74.2114 21.3032 77.9977 21.2608C81.7419 21.2608 88.1366 22.7432 90.1559 25.5809C92.2174 28.4609 93.3533 23.9291 93.3533 23.9291Z" fill="#407817"/>
<path d="M29.7015 64.4616C28.818 53.4075 20.7406 48.1557 23.433 51.3745C25.8731 54.2545 27.7242 59.9722 28.229 67.4264C28.7339 66.7487 29.2808 66.1134 29.7856 65.3934C29.7856 65.0969 29.7436 64.8005 29.7015 64.4616Z" fill="url(#paint28_linear_24_3854)"/>
<path d="M36.3904 52.6868C35.3807 49.5103 33.5717 44.3433 31.3841 41.2091C28.7337 37.482 28.6916 38.3291 31.2158 42.8609C33.3193 46.588 34.329 51.7127 34.9179 56.2445C35.4228 55.0586 35.9276 53.8727 36.3904 52.6868Z" fill="url(#paint29_linear_24_3854)"/>
<path d="M20.1935 76.9979C20.1094 70.3908 18.4687 61.2001 17.3328 61.8354C17.3328 62.5978 17.459 63.4025 17.6693 64.1225C19.3521 69.6708 18.5949 73.9061 18.7631 78.9038C19.2259 78.2261 19.6887 77.5908 20.1935 76.9979Z" fill="url(#paint30_linear_24_3854)"/>
<path d="M78.2503 59.2097C75.2213 55.7791 75.4316 45.8684 77.0303 41.2943C78.5448 36.8896 73.7909 41.3367 74.1695 58.1509C75.5999 59.3367 77.0723 60.3109 78.5448 61.1579C79.1338 60.9462 79.26 60.3532 78.2503 59.2097Z" fill="#407817"/>
<path d="M87.253 63.487C84.6026 61.4541 83.9716 55.4399 84.4764 51.9246C84.9812 48.5787 82.1625 52.3905 84.6447 64.2494C85.5702 64.6729 86.4537 65.1388 87.2951 65.647C88.0944 65.1388 88.5151 64.4612 87.253 63.487Z" fill="#407817"/>
<path d="M29.3228 30.8757C28.3131 31.384 27.3035 31.9769 26.2938 32.5699C1.05176 56.33 12.8314 89.3654 12.8314 89.3654L13.5886 88.1372C5.55325 63.1065 18.5529 40.7864 29.3228 30.8757Z" fill="url(#paint31_linear_24_3854)"/>
<path d="M56.3739 19.1859C55.6167 18.0847 54.9435 17.1529 54.3546 16.3906C53.6394 16.3482 53.2187 16.3482 53.2187 16.3482C53.0504 16.2635 52.8821 16.2212 52.7138 16.1364C52.0407 15.9247 51.2414 16.0094 50.3579 16.3482C56.3739 20.6259 60.4547 34.3059 59.0243 46.5884C58.9823 46.6307 63.8624 30.3248 56.3739 19.1859Z" fill="url(#paint32_linear_24_3854)"/>
<path d="M54.8593 16.2639C53.8917 16.2215 53.3028 16.2215 53.3028 16.2215C52.9241 16.0945 52.5034 16.0521 52.0406 16.0098C58.0146 19.3557 61.1698 32.7393 59.445 44.0052C59.4029 44.1746 59.0243 46.6311 59.0243 46.6311C59.3608 46.6734 60.4547 44.6405 60.5809 43.7511C62.1375 31.0875 58.6877 21.1768 54.8593 16.2639Z" fill="url(#paint33_linear_24_3854)"/>
<path d="M20.1934 19.4404C20.1934 19.4404 13.8409 23.9722 12.9574 27.9534C16.1547 27.4028 19.2679 27.3181 22.339 27.5722L22.5073 27.4875C22.5073 27.4875 17.7954 27.5299 15.3133 26.5558C13.925 25.9628 20.1934 19.4404 20.1934 19.4404Z" fill="url(#paint34_linear_24_3854)"/>
<path d="M31.8892 18.9745C31.8892 18.9745 25.4525 23.591 24.2745 27.6992C28.187 28.0804 32.0996 27.1487 35.2969 24.9039C38.368 22.7439 42.9957 19.5251 49.5166 15.0356C43.3743 16.8145 34.8341 23.2098 32.1416 25.2851C29.4492 27.3604 26.4201 27.1487 26.5884 25.5816C26.8408 23.591 31.8892 18.9745 31.8892 18.9745Z" fill="url(#paint35_linear_24_3854)"/>
<path d="M14.7246 17.7881C6.18441 23.3787 1.38843 31.214 0.715305 32.1882C-0.378515 33.7976 0.126325 34.5176 0.126325 34.5176L5.34301 31.8493C7.57272 31.0446 9.76036 30.5787 11.9059 30.4093C12.8735 28.207 13.6308 25.9622 12.9577 25.8775C11.6535 25.7081 3.66021 31.2564 5.04852 28.5881C6.0582 26.7246 10.139 21.5152 14.7246 17.7881Z" fill="url(#paint36_linear_24_3854)"/>
<path d="M26.2937 32.57C33.698 28.1652 40.4712 27.5299 42.6168 26.937C45.0148 19.0593 50.1053 15.2475 52.7557 16.1793C52.1667 15.9252 51.0729 15.5017 49.5584 15.0781C43.0375 19.5676 38.4098 22.7864 35.3387 24.9464C32.0572 27.2335 28.1027 28.1652 24.1481 27.7417C18.3424 27.1064 12.663 27.4029 6.22625 29.817C0.252309 32.0194 0.126099 34.5182 0.126099 34.5182L3.9124 32.57C5.13243 31.9347 6.4366 31.4264 7.78284 31.0876C16.1968 28.97 23.9798 31.6382 26.2937 32.57Z" fill="#407817"/>
<path d="M10.2654 29.0969C14.0938 22.9134 18.2587 19.9487 20.1518 19.4404C20.1518 19.4404 13.0841 24.5228 12.8317 28.5887" fill="url(#paint37_linear_24_3854)"/>
<path d="M48.3806 53.8732C45.604 51.0779 44.1315 44.1744 44.1315 44.1744L45.3936 41.1673C45.3936 41.1673 43.6267 41.9297 43.0377 39.092C40.1769 25.3272 47.3709 20.8801 51.5779 16.4754L51.3255 15.9248C47.455 16.1366 41.6073 21.5154 41.6073 36.932C41.6073 53.2803 54.7332 65.6474 49.6427 72.3816C55.0276 68.3157 51.1572 56.6686 48.3806 53.8732Z" fill="url(#paint38_linear_24_3854)"/>
<path d="M49.7266 32.1465C49.1376 34.6877 47.3286 39.6006 43.0375 46.8007C43.2058 47.3936 43.374 47.9866 43.5844 48.5372C43.5844 48.5372 45.183 46.6313 46.1086 44.3018C47.4969 40.8289 49.2218 35.4077 49.7266 32.1465Z" fill="url(#paint39_linear_24_3854)"/>
<path d="M43.0378 46.8001C42.9115 46.3766 42.8274 45.9531 42.7012 45.5295C42.8274 45.9531 42.9115 46.3766 43.0378 46.8001Z" fill="#4B8C1C"/>
<path d="M42.2384 43.4118C42.4488 44.5553 42.7432 45.6988 43.0377 46.8C51.4097 32.8658 50.2738 27.4446 49.3482 31.3835C48.4227 35.28 45.4357 41.5906 42.2384 43.4118Z" fill="url(#paint40_linear_24_3854)"/>
<path d="M48.633 54.6354L46.6558 56.4142C47.0344 57.2613 47.413 58.066 47.7496 58.8707C52.2511 53.7884 53.2187 44.7671 53.5973 42.1836L52.2511 47.3083L48.633 54.6354Z" fill="url(#paint41_linear_24_3854)"/>
<path d="M52.9243 42.819C51.9988 46.6308 49.0959 52.8567 45.9407 54.7626C46.3193 55.6944 46.74 56.5415 47.1186 57.4309C54.9857 44.0896 53.8498 38.9225 52.9243 42.819Z" fill="url(#paint42_linear_24_3854)"/>
<path d="M57.2572 11.859C62.4318 12.0284 65.6712 6.69194 70.5513 3.17663C71.4769 2.54134 72.1921 1.86369 72.781 1.18604C68.1113 2.83781 61.7166 6.35312 57.2572 11.859Z" fill="url(#paint43_linear_24_3854)"/>
<defs>
<linearGradient id="paint0_linear_24_3854" x1="44.9613" y1="37.6354" x2="35.517" y2="58.5373" gradientUnits="userSpaceOnUse">
<stop stop-color="#3C2200"/>
<stop offset="1" stop-color="#643800"/>
</linearGradient>
<linearGradient id="paint1_linear_24_3854" x1="67.4363" y1="18.1092" x2="64.6143" y2="2.93909" gradientUnits="userSpaceOnUse">
<stop stop-color="#4B8C1C"/>
<stop offset="1" stop-color="#76AB50"/>
</linearGradient>
<linearGradient id="paint2_linear_24_3854" x1="74.0671" y1="18.4352" x2="59.2006" y2="-0.146827" gradientUnits="userSpaceOnUse">
<stop stop-color="#4B8C1C"/>
<stop offset="1" stop-color="#4B8C1C" stop-opacity="0"/>
</linearGradient>
<linearGradient id="paint3_linear_24_3854" x1="44.6685" y1="16.0101" x2="40.1937" y2="5.1447" gradientUnits="userSpaceOnUse">
<stop stop-color="#4B8C1C"/>
<stop offset="1" stop-color="#76AB50"/>
</linearGradient>
<linearGradient id="paint4_linear_24_3854" x1="41.0606" y1="12.7642" x2="42.617" y2="3.98294" gradientUnits="userSpaceOnUse">
<stop stop-color="#4B8C1C"/>
<stop offset="1" stop-color="#4B8C1C" stop-opacity="0"/>
</linearGradient>
<linearGradient id="paint5_linear_24_3854" x1="69.9386" y1="24.3434" x2="93.6974" y2="21.4137" gradientUnits="userSpaceOnUse">
<stop stop-color="#4B8C1C"/>
<stop offset="1" stop-color="#76AB50"/>
</linearGradient>
<linearGradient id="paint6_linear_24_3854" x1="78.0708" y1="19.7579" x2="90.1075" y2="10.4446" gradientUnits="userSpaceOnUse">
<stop stop-color="#76AB50" stop-opacity="0"/>
<stop offset="1" stop-color="#76AB50"/>
</linearGradient>
<linearGradient id="paint7_linear_24_3854" x1="95.3383" y1="33.2534" x2="94.508" y2="9.58176" gradientUnits="userSpaceOnUse">
<stop stop-color="#4B8C1C"/>
<stop offset="1" stop-color="#4B8C1C" stop-opacity="0"/>
</linearGradient>
<linearGradient id="paint8_linear_24_3854" x1="30.5412" y1="47.1103" x2="24.3162" y2="12.9779" gradientUnits="userSpaceOnUse">
<stop stop-color="#4B8C1C"/>
<stop offset="1" stop-color="#76AB50"/>
</linearGradient>
<linearGradient id="paint9_linear_24_3854" x1="51.5578" y1="104.889" x2="17.4548" y2="-2.47774" gradientUnits="userSpaceOnUse">
<stop stop-color="#4B8C1C"/>
<stop offset="1" stop-color="#4B8C1C" stop-opacity="0"/>
</linearGradient>
<linearGradient id="paint10_linear_24_3854" x1="53.0886" y1="41.2362" x2="93.5808" y2="50.3552" gradientUnits="userSpaceOnUse">
<stop stop-color="#4B8C1C"/>
<stop offset="1" stop-color="#76AB50"/>
</linearGradient>
<linearGradient id="paint11_linear_24_3854" x1="63.9442" y1="73.0591" x2="94.7458" y2="15.1576" gradientUnits="userSpaceOnUse">
<stop stop-color="#4B8C1C"/>
<stop offset="1" stop-color="#4B8C1C" stop-opacity="0"/>
</linearGradient>
<linearGradient id="paint12_linear_24_3854" x1="77.4086" y1="57.6794" x2="84.1157" y2="44.9719" gradientUnits="userSpaceOnUse">
<stop stop-color="#4B8C1C"/>
<stop offset="1" stop-color="#4B8C1C" stop-opacity="0"/>
</linearGradient>
<linearGradient id="paint13_linear_24_3854" x1="57.901" y1="91.4486" x2="80.8364" y2="90.7977" gradientUnits="userSpaceOnUse">
<stop stop-color="#A3541E"/>
<stop offset="1" stop-color="#512D00"/>
</linearGradient>
<linearGradient id="paint14_linear_24_3854" x1="41.4221" y1="101.239" x2="70.6643" y2="100.995" gradientUnits="userSpaceOnUse">
<stop stop-color="#C86F34"/>
<stop offset="1" stop-color="#A3541E"/>
</linearGradient>
<linearGradient id="paint15_linear_24_3854" x1="22.945" y1="104.868" x2="87.0371" y2="83.9822" gradientUnits="userSpaceOnUse">
<stop stop-color="#A3541E"/>
<stop offset="1" stop-color="#512D00"/>
</linearGradient>
<linearGradient id="paint16_linear_24_3854" x1="72.7431" y1="83.6478" x2="62.8784" y2="89.527" gradientUnits="userSpaceOnUse">
<stop stop-color="#3C2200"/>
<stop offset="1" stop-color="#643800"/>
</linearGradient>
<linearGradient id="paint17_linear_24_3854" x1="70.4488" y1="69.0587" x2="61.0621" y2="76.4198" gradientUnits="userSpaceOnUse">
<stop stop-color="#3C2200"/>
<stop offset="1" stop-color="#643800"/>
</linearGradient>
<linearGradient id="paint18_linear_24_3854" x1="72.4685" y1="99.5283" x2="58.4478" y2="103.438" gradientUnits="userSpaceOnUse">
<stop stop-color="#3C2200"/>
<stop offset="1" stop-color="#643800"/>
</linearGradient>
<linearGradient id="paint19_linear_24_3854" x1="72.23" y1="131.618" x2="60.4332" y2="132.839" gradientUnits="userSpaceOnUse">
<stop stop-color="#3C2200"/>
<stop offset="1" stop-color="#643800"/>
</linearGradient>
<linearGradient id="paint20_linear_24_3854" x1="71.1045" y1="115.374" x2="59.3059" y2="118.145" gradientUnits="userSpaceOnUse">
<stop stop-color="#3C2200"/>
<stop offset="1" stop-color="#643800"/>
</linearGradient>
<linearGradient id="paint21_linear_24_3854" x1="64.6569" y1="61.1676" x2="56.0208" y2="66.8049" gradientUnits="userSpaceOnUse">
<stop stop-color="#3C2200"/>
<stop offset="1" stop-color="#643800"/>
</linearGradient>
<linearGradient id="paint22_linear_24_3854" x1="43.1665" y1="27.8057" x2="21.1115" y2="55.621" gradientUnits="userSpaceOnUse">
<stop stop-color="#4B8C1C"/>
<stop offset="1" stop-color="#76AB50"/>
</linearGradient>
<linearGradient id="paint23_linear_24_3854" x1="48.7495" y1="108.048" x2="16.6744" y2="29.5077" gradientUnits="userSpaceOnUse">
<stop stop-color="#4B8C1C"/>
<stop offset="1" stop-color="#4B8C1C" stop-opacity="0"/>
</linearGradient>
<linearGradient id="paint24_linear_24_3854" x1="32.0353" y1="61.9277" x2="19.2084" y2="52.3719" gradientUnits="userSpaceOnUse">
<stop stop-color="#4B8C1C"/>
<stop offset="1" stop-color="#4B8C1C" stop-opacity="0"/>
</linearGradient>
<linearGradient id="paint25_linear_24_3854" x1="39.5269" y1="75.6843" x2="56.017" y2="35.0622" gradientUnits="userSpaceOnUse">
<stop stop-color="#4B8C1C"/>
<stop offset="1" stop-color="#76AB50"/>
</linearGradient>
<linearGradient id="paint26_linear_24_3854" x1="55.224" y1="154.18" x2="55.224" y2="1.01327" gradientUnits="userSpaceOnUse">
<stop stop-color="#4B8C1C"/>
<stop offset="1" stop-color="#4B8C1C" stop-opacity="0"/>
</linearGradient>
<linearGradient id="paint27_linear_24_3854" x1="27.9625" y1="16.6371" x2="25.8046" y2="28.5088" gradientUnits="userSpaceOnUse">
<stop stop-color="#4B8C1C"/>
<stop offset="0.9987" stop-color="#407817"/>
</linearGradient>
<linearGradient id="paint28_linear_24_3854" x1="20.0561" y1="50.0219" x2="26.6706" y2="59.7129" gradientUnits="userSpaceOnUse">
<stop stop-color="#4B8C1C"/>
<stop offset="0.9987" stop-color="#407817"/>
</linearGradient>
<linearGradient id="paint29_linear_24_3854" x1="25.9264" y1="40.9241" x2="32.1966" y2="47.4802" gradientUnits="userSpaceOnUse">
<stop stop-color="#4B8C1C"/>
<stop offset="0.9987" stop-color="#407817"/>
</linearGradient>
<linearGradient id="paint30_linear_24_3854" x1="16.6384" y1="62.7719" x2="19.1277" y2="73.3219" gradientUnits="userSpaceOnUse">
<stop stop-color="#4B8C1C"/>
<stop offset="0.9987" stop-color="#407817"/>
</linearGradient>
<linearGradient id="paint31_linear_24_3854" x1="19.5107" y1="43.0864" x2="20.3411" y2="76.6559" gradientUnits="userSpaceOnUse">
<stop stop-color="#4B8C1C"/>
<stop offset="0.9987" stop-color="#407817"/>
</linearGradient>
<linearGradient id="paint32_linear_24_3854" x1="42.3142" y1="13.8749" x2="59.8487" y2="35.1288" gradientUnits="userSpaceOnUse">
<stop stop-color="#4B8C1C"/>
<stop offset="1" stop-color="#76AB50"/>
</linearGradient>
<linearGradient id="paint33_linear_24_3854" x1="58.2468" y1="33.529" x2="43.1052" y2="8.25615" gradientUnits="userSpaceOnUse">
<stop stop-color="#4B8C1C"/>
<stop offset="0.9987" stop-color="#407817"/>
</linearGradient>
<linearGradient id="paint34_linear_24_3854" x1="17.6192" y1="30.1157" x2="18.1173" y2="20.5896" gradientUnits="userSpaceOnUse">
<stop stop-color="#4B8C1C"/>
<stop offset="1" stop-color="#4B8C1C" stop-opacity="0"/>
</linearGradient>
<linearGradient id="paint35_linear_24_3854" x1="36.3969" y1="31.4333" x2="37.1846" y2="16.3709" gradientUnits="userSpaceOnUse">
<stop stop-color="#4B8C1C"/>
<stop offset="1" stop-color="#4B8C1C" stop-opacity="0"/>
</linearGradient>
<linearGradient id="paint36_linear_24_3854" x1="7.78168" y1="32.7563" x2="7.15894" y2="22.7353" gradientUnits="userSpaceOnUse">
<stop stop-color="#4B8C1C"/>
<stop offset="1" stop-color="#4B8C1C" stop-opacity="0"/>
</linearGradient>
<linearGradient id="paint37_linear_24_3854" x1="16.962" y1="14.6373" x2="14.804" y2="26.5091" gradientUnits="userSpaceOnUse">
<stop stop-color="#4B8C1C"/>
<stop offset="0.9987" stop-color="#407817"/>
</linearGradient>
<linearGradient id="paint38_linear_24_3854" x1="42.188" y1="19.9812" x2="57.8951" y2="65.201" gradientUnits="userSpaceOnUse">
<stop stop-color="#4B8C1C"/>
<stop offset="1" stop-color="#4B8C1C" stop-opacity="0"/>
</linearGradient>
<linearGradient id="paint39_linear_24_3854" x1="43.407" y1="48.4766" x2="49.9944" y2="32.2491" gradientUnits="userSpaceOnUse">
<stop stop-color="#4B8C1C"/>
<stop offset="1" stop-color="#4B8C1C" stop-opacity="0"/>
</linearGradient>
<linearGradient id="paint40_linear_24_3854" x1="49.8536" y1="36.3379" x2="41.7132" y2="41.361" gradientUnits="userSpaceOnUse">
<stop stop-color="#4B8C1C"/>
<stop offset="0.9987" stop-color="#407817"/>
</linearGradient>
<linearGradient id="paint41_linear_24_3854" x1="47.8204" y1="58.3708" x2="52.0503" y2="44.5301" gradientUnits="userSpaceOnUse">
<stop stop-color="#4B8C1C"/>
<stop offset="1" stop-color="#4B8C1C" stop-opacity="0"/>
</linearGradient>
<linearGradient id="paint42_linear_24_3854" x1="55.8333" y1="46.0304" x2="47.6928" y2="51.0535" gradientUnits="userSpaceOnUse">
<stop stop-color="#4B8C1C"/>
<stop offset="0.9987" stop-color="#407817"/>
</linearGradient>
<linearGradient id="paint43_linear_24_3854" x1="86.2879" y1="29.4172" x2="65.3414" y2="7.13626" gradientUnits="userSpaceOnUse">
<stop stop-color="#4B8C1C"/>
<stop offset="1" stop-color="#76AB50"/>
</linearGradient>
</defs>
</svg>
