<svg width="139" height="134" viewBox="0 0 139 134" fill="none" xmlns="http://www.w3.org/2000/svg">
<path d="M125.758 10.7289L115.294 6.16183C109.386 3.60739 102.513 5.19424 98.3048 10.0709C87.455 22.727 63.3228 46.6459 26.5647 60.4244C11.1587 65.1462 0 79.4666 0 96.4188C0 117.164 16.796 134 37.4917 134C60.8131 134 94.4823 112.519 129.966 31.4353L125.758 10.7289Z" fill="url(#paint0_radial_24_3465)"/>
<path d="M84.0572 70.3705C74.0954 107.216 42.0479 118.053 28.225 106.133C18.1474 97.4243 19.2285 76.3308 27.5686 60.0366C27.2211 60.1914 26.8736 60.3075 26.4875 60.4623C11.1587 65.1455 0 79.4659 0 96.4181C0 117.163 16.796 133.999 37.4917 133.999C60.8131 133.999 94.4823 112.519 129.966 31.4346L125.758 10.7668C119.078 15.1017 94.0189 33.5246 84.0572 70.3705Z" fill="url(#paint1_radial_24_3465)"/>
<path opacity="0.5" d="M129.966 31.3964L127.495 19.2434C120.082 13.8249 113.634 12.8573 115.332 28.1066C119.001 60.9273 88.0342 94.4059 64.9831 111.358C41.9321 128.31 9.45981 128.426 0.386115 91.0387C0.115834 92.7804 0 94.5995 0 96.4185C0 117.164 16.796 134 37.4917 134C60.8131 134 94.4823 112.519 129.966 31.3964Z" fill="url(#paint2_radial_24_3465)"/>
<path opacity="0.75" d="M125.758 10.7289L115.294 6.16183C109.386 3.60739 102.513 5.19424 98.3048 10.0709C87.455 22.727 63.3228 46.6459 26.5647 60.4244C11.1587 65.1462 0 79.4666 0 96.4188C0 117.164 16.796 134 37.4917 134C60.8131 134 94.4823 112.519 129.966 31.4353L125.758 10.7289Z" fill="url(#paint3_radial_24_3465)"/>
<path opacity="0.75" d="M125.758 10.7289L115.294 6.16183C109.386 3.60739 102.513 5.19424 98.3048 10.0709C87.455 22.727 63.3228 46.6459 26.5647 60.4244C11.1587 65.1462 0 79.4666 0 96.4188C0 117.164 16.796 134 37.4917 134C60.8131 134 94.4823 112.519 129.966 31.4353L125.758 10.7289Z" fill="url(#paint4_radial_24_3465)"/>
<path d="M137.611 2.71715L138.924 4.61364C138.924 4.61364 136.028 10.8449 127.843 18.1212L120.468 8.94845C120.468 8.94845 130.005 5.77475 133.596 0.201416L137.611 2.71715Z" fill="url(#paint5_linear_24_3465)"/>
<path d="M133.595 0.201416C133.402 0.511045 133.171 0.820675 132.939 1.0916C133.055 1.63345 133.557 2.02049 133.866 2.56234C134.406 3.45252 135.526 4.49752 134.483 6.23919C133.441 7.98085 132.669 10.0321 126.607 10.6901L128.614 17.3858C136.221 10.4192 138.924 4.61363 138.924 4.61363L137.611 2.71715L133.595 0.201416Z" fill="url(#paint6_linear_24_3465)"/>
<path d="M125.757 10.7289L115.294 6.16183C109.386 3.60739 102.513 5.19424 98.3046 10.0709C95.5632 13.2833 91.9723 17.1924 87.5706 21.4498C88.3042 21.9142 90.0804 21.3337 90.5051 21.1789C95.2157 19.7855 97.2235 19.9403 101.278 19.2437C98.266 24.4687 97.9185 33.4866 97.4165 39.7179C97.4165 39.9114 97.6096 40.0275 97.764 39.9114C101.548 36.4668 110.776 33.8737 120.236 28.9196C119.386 35.9637 121.317 43.24 121.665 49.4712C124.445 43.7818 127.225 37.7827 130.005 31.3966L125.757 10.7289Z" fill="#391838"/>
<path d="M124.831 16.7275C114.715 28.0677 122.012 43.046 120.043 53.1863C119.927 53.7669 120.584 54.1926 121.047 53.8443C125.14 50.8254 136.376 41.343 135.526 28.6095C134.947 19.8238 126.684 6.08398 126.684 6.08398L124.831 16.7275Z" fill="url(#paint7_linear_24_3465)"/>
<path d="M135.565 28.6108C135.256 23.8502 132.669 17.6189 130.391 12.9358L130.352 21.4119C130.893 23.7341 128.731 30.9717 127.264 32.8682C125.796 34.7259 128.615 34.0293 131.318 28.7269C134.021 23.4245 131.009 36.3515 127.457 39.0221C124.754 41.0733 126.877 42.428 132.051 36.5837C136.028 32.0941 132.437 40.8024 127.611 44.4406C125.179 46.2596 129.503 45.6017 131.434 43.0085C134.059 38.9446 135.912 34.068 135.565 28.6108Z" fill="url(#paint8_linear_24_3465)"/>
<path d="M123.866 41.5759C123.866 33.0611 124.484 29.5391 126.569 26.2106C128.383 23.3078 132.36 19.9793 132.438 17.4249C132.051 16.5347 131.665 15.6445 131.279 14.793C130.005 13.8641 127.65 14.3286 125.101 15.3736L124.87 16.7282C114.715 28.1071 122.128 43.1628 120.082 53.3031C120.005 53.6515 120.468 53.8063 120.622 53.5354C121.819 51.5615 123.866 47.4589 123.866 41.5759Z" fill="url(#paint9_linear_24_3465)"/>
<path d="M123.441 11.6967C130.507 8.63909 132.36 5.6202 133.132 4.07206C133.905 2.56261 132.553 1.55632 131.511 2.64002C128.538 5.73631 126.182 6.35557 125.063 6.82002C123.943 7.36187 123.441 11.6967 123.441 11.6967Z" fill="url(#paint10_linear_24_3465)"/>
<path d="M137.611 2.71715L138.924 4.61364C138.924 4.61364 136.028 10.8449 127.843 18.1212L120.468 8.94845C120.468 8.94845 130.005 5.77475 133.596 0.201416L137.611 2.71715Z" fill="url(#paint11_linear_24_3465)"/>
<path d="M133.557 0.201495C133.132 0.743347 134.986 1.47872 135.874 2.25279C136.8 3.02687 138.499 5.11687 138.924 4.57502C139.349 4.03316 137.881 1.90446 137.225 1.2465C136.26 0.278903 133.982 -0.340357 133.557 0.201495Z" fill="url(#paint12_linear_24_3465)"/>
<path d="M133.557 0.201495C133.132 0.743347 134.986 1.47872 135.874 2.25279C136.8 3.02687 138.499 5.11687 138.924 4.57502C139.349 4.03316 137.881 1.90446 137.225 1.2465C136.26 0.278903 133.982 -0.340357 133.557 0.201495Z" fill="url(#paint13_linear_24_3465)"/>
<path d="M84.9452 19.9402C85.1769 20.1724 85.5244 20.2885 86.6055 20.1337C87.0302 20.0563 87.4935 19.9789 88.0727 19.7467C95.0228 17.3084 99.27 18.3921 105.486 16.4569C110.776 14.8313 116.414 11.5802 119.889 10.8062C123.364 10.0321 126.298 5.85209 126.298 5.85209C126.298 5.85209 111.819 -2.93364 99.965 4.34264C92.5516 8.90967 89.3083 13.9412 87.9569 17.1149C87.1074 19.0113 84.9452 19.9402 84.9452 19.9402Z" fill="url(#paint14_linear_24_3465)"/>
<path d="M119.85 10.845C123.325 10.071 126.26 5.89097 126.26 5.89097C126.26 5.89097 124.175 4.61375 120.97 3.45264C110.854 4.96208 105.178 9.56782 102.513 12.4706C101.201 13.9026 99.5018 14.9476 97.5712 15.3347C90.8528 16.7667 86.567 20.1726 86.567 20.1726C87.1847 20.0952 87.6867 19.9404 88.0342 19.7856C94.9843 17.4634 99.2315 18.431 105.448 16.4958C110.776 14.8702 116.414 11.6191 119.85 10.845Z" fill="url(#paint15_linear_24_3465)"/>
<path d="M96.1811 34.9181C96.0267 35.0342 95.8336 34.9181 95.8336 34.7246C97.1464 23.4231 100.506 13.128 113.209 6.66446C121.588 2.40705 130.082 6.54835 130.082 6.54835C132.785 8.1352 135.565 18.0433 123.209 25.8228C113.132 32.2089 98.8453 32.9829 96.1811 34.9181Z" fill="url(#paint16_linear_24_3465)"/>
<path d="M130.082 6.54932C134.909 15.8769 118.074 26.7526 109.927 28.4169C103.518 29.7328 98.2664 32.9452 96.5289 34.7256C99.8109 32.9452 113.479 31.9776 123.248 25.8237C135.565 18.0443 132.785 8.13617 130.082 6.54932Z" fill="url(#paint17_linear_24_3465)"/>
<path d="M130.777 7.1292C130.545 6.85828 130.314 6.66476 130.082 6.54865C130.082 6.54865 127.727 5.38754 124.252 4.9231C111.201 10.2642 102.745 20.9464 99.8879 26.6359C96.4128 33.5251 102.398 24.8168 105.255 22.6494C108.112 20.482 112.591 19.5918 115.603 20.0562C118.614 20.5207 114.753 18.3533 111.085 18.1985C107.417 18.0436 115.255 14.6377 119.811 15.9536C124.367 17.3083 121.201 13.0509 115.719 13.3992C110.969 13.7475 122.167 8.79346 130.777 7.1292Z" fill="url(#paint18_linear_24_3465)"/>
<path d="M99.9267 4.3434C93.0538 8.5621 89.7719 13.2452 88.2274 16.4189C88.4205 17.5801 88.8838 17.9671 89.4244 16.4189C90.5827 13.1291 95.525 7.71062 94.9072 9.87802C94.2894 12.0454 93.7875 16.3802 95.1003 12.9356C96.413 9.49099 102.629 2.95007 100.892 7.16877C99.1545 11.3875 99.3475 12.5873 102.128 8.32988C104.908 4.07247 111.472 0.860069 109.502 3.56933C107.533 6.27858 108.344 7.32358 110.12 5.3497C111.163 4.18859 113.093 2.75655 115.255 1.94377C110.622 1.05359 105.023 1.2084 99.9267 4.3434Z" fill="url(#paint19_linear_24_3465)"/>
<g opacity="0.24">
<path opacity="0.24" d="M133.943 2.91109C132.669 3.14332 132.167 4.49794 130.815 4.22702C131.394 2.67887 132.205 2.29184 133.943 2.91109Z" fill="#4B8C1C"/>
<path opacity="0.24" d="M118.692 23.7725C118.267 22.9985 117.726 22.2244 118.653 21.3729C118.885 21.1407 118.885 20.6762 119.039 20.2505C120.12 21.6051 118.846 22.6114 118.692 23.7725Z" fill="#4B8C1C"/>
<path opacity="0.24" d="M105.139 4.34302C105.718 4.73005 106.143 5.03968 106.529 5.31061C106.182 5.65894 105.795 6.04598 105.409 6.43301C104.946 5.58153 104.946 5.58153 105.139 4.34302Z" fill="#4B8C1C"/>
<path opacity="0.24" d="M95.6407 16.5733C95.4863 16.6507 95.3318 16.8055 95.1774 16.8829C94.714 17.1151 94.2121 17.5022 93.8259 16.9603C93.4398 16.4572 94.0962 16.3023 94.3279 16.0314C94.8299 15.4122 95.216 15.7992 95.5635 16.2249C95.6021 16.3023 95.6021 16.4184 95.6407 16.5733Z" fill="#4B8C1C"/>
<path opacity="0.24" d="M99.8106 31.0874C99.3087 31.397 98.9998 31.5518 98.6909 31.7841C98.4206 31.9776 98.2276 32.2872 97.9959 32.5194C97.687 32.3646 97.3009 32.1324 96.992 31.9389C98.5365 30.9326 98.5365 30.9326 99.8106 31.0874Z" fill="#4B8C1C"/>
<path opacity="0.24" d="M131.202 26.0946C131.511 25.4366 131.819 24.8174 132.09 24.1594C132.167 24.1981 132.244 24.2368 132.321 24.2755C132.128 25.0496 131.897 25.8237 131.665 26.7526C131.124 26.5977 130.584 26.4429 130.043 26.2494C130.043 26.172 130.082 26.0946 130.082 26.0172C130.507 26.0559 130.893 26.0946 131.202 26.0946Z" fill="#4B8C1C"/>
<path opacity="0.24" d="M127.688 41.6926C126.569 42.5828 128.113 43.3568 127.611 44.3244C127.341 44.1309 126.916 43.9761 126.839 43.7439C126.684 43.3568 126.684 42.8537 126.684 42.4279C126.646 41.8087 126.993 41.6539 127.688 41.6926Z" fill="#4B8C1C"/>
<path opacity="0.24" d="M124.561 5.23413C125.14 5.65987 125.294 6.24043 124.869 6.66617C124.483 7.0145 123.866 7.05321 123.325 6.47265C123.711 6.04691 124.136 5.65987 124.561 5.23413Z" fill="#4B8C1C"/>
<path opacity="0.24" d="M130.584 23.3848C130.931 23.1139 131.279 22.8816 131.703 22.572C132.051 23.1139 132.36 23.617 132.669 24.1202C132.785 24.0815 132.862 24.004 132.978 23.9653C132.746 24.004 132.398 24.1976 132.244 24.0815C131.742 23.6944 131.279 23.3461 130.468 24.004C130.507 23.8105 130.545 23.617 130.584 23.3848Z" fill="#4B8C1C"/>
<path opacity="0.24" d="M111.664 11.1159C111.355 11.5803 111.046 12.0061 110.66 12.5479C110.39 12.3544 110.12 12.1609 109.888 11.9674C110.583 10.845 110.583 10.845 111.664 11.1159Z" fill="#4B8C1C"/>
<path opacity="0.24" d="M125.294 23.7335C124.754 23.0368 124.252 22.3014 123.518 21.3726C124.406 21.5661 125.063 21.4887 125.101 22.4563C125.101 22.8046 125.41 23.1529 125.565 23.5013C125.487 23.54 125.41 23.6561 125.294 23.7335Z" fill="#4B8C1C"/>
<path opacity="0.24" d="M111.973 16.0315C112.9 17.8506 112.9 17.8506 111.973 18.315C111.973 17.5409 111.973 16.7669 111.973 16.0315Z" fill="#4B8C1C"/>
<path opacity="0.24" d="M135.14 8.0585C134.638 7.71017 134.291 7.59406 134.213 7.36184C134.02 6.85869 133.943 6.35554 133.866 5.81369C133.827 5.65888 133.905 5.46536 133.943 5.31055C134.136 5.42666 134.407 5.50407 134.445 5.65888C134.677 6.31684 134.831 7.01351 135.14 8.0585Z" fill="#4B8C1C"/>
<path opacity="0.24" d="M109.425 25.088C110.197 23.8882 110.197 23.8882 111.24 24.1591C110.892 25.2815 110.892 25.2815 109.425 25.088Z" fill="#4B8C1C"/>
<path opacity="0.24" d="M125.449 42.5432C125.526 43.356 125.101 43.8204 124.522 44.2075C124.329 44.3236 124.059 44.3236 123.827 44.2849C123.711 44.2462 123.557 43.8979 123.634 43.7817C123.711 43.6269 123.981 43.5108 124.174 43.4334C124.754 43.3173 124.754 43.3173 125.449 42.5432Z" fill="#4B8C1C"/>
<path opacity="0.24" d="M105.988 21.373C105.178 20.2893 105.332 19.9023 106.799 19.0508C106.529 19.8249 106.297 20.5215 105.988 21.373Z" fill="#4B8C1C"/>
<path opacity="0.24" d="M129.117 35.9248C129.194 35.77 129.233 35.6926 129.271 35.6926C129.851 35.383 130.314 35.4604 130.661 36.041C130.7 36.1184 130.623 36.3506 130.546 36.428C129.851 36.8537 129.503 36.3893 129.117 35.9248Z" fill="#4B8C1C"/>
<path opacity="0.24" d="M111.78 19.6313C111.665 20.328 111.665 20.8699 110.97 21.0634C110.815 21.1021 110.468 21.0634 110.468 21.0247C110.429 20.7925 110.39 20.4441 110.506 20.3667C110.854 20.0571 111.24 19.9023 111.78 19.6313Z" fill="#4B8C1C"/>
<path opacity="0.24" d="M123.093 31.9007C121.974 32.5973 121.781 32.5199 121.279 31.1653C121.935 31.4362 122.514 31.6684 123.093 31.9007Z" fill="#4B8C1C"/>
<path opacity="0.24" d="M129.734 18.1598C129.734 18.4308 129.773 18.7017 129.734 18.9726C129.696 19.2435 129.58 19.4758 129.464 19.708C129.464 19.7467 129.117 19.6693 129.078 19.5919C128.962 19.3209 128.846 19.0113 128.885 18.7791C128.962 18.4695 129.194 18.1985 129.387 17.8889C129.541 18.005 129.657 18.0824 129.734 18.1598Z" fill="#4B8C1C"/>
<path opacity="0.24" d="M96.6059 11.9292C96.9148 12.5098 97.1851 13.0129 97.4553 13.516C96.3742 13.6709 96.1039 13.2064 96.6059 11.9292Z" fill="#4B8C1C"/>
<path opacity="0.24" d="M115.332 6.51077C115.217 6.31725 114.985 6.08502 115.023 5.8915C115.062 5.65928 115.41 5.23354 115.448 5.27224C115.796 5.42706 116.105 5.65928 116.413 5.8915C116.066 6.08502 115.718 6.27854 115.332 6.51077Z" fill="#4B8C1C"/>
<path opacity="0.24" d="M128.615 24.8178C128.229 25.0113 127.843 25.2048 127.457 25.3984C127.264 25.1661 126.878 24.8565 127.38 24.5469C127.804 24.3147 128.422 23.8889 128.576 24.8565L128.615 24.8178Z" fill="#4B8C1C"/>
<path opacity="0.24" d="M127.688 14.3283C127.843 14.4444 128.074 14.5605 128.113 14.7153C128.19 14.9475 128.113 15.2571 128.074 15.5281C127.843 15.4894 127.572 15.5668 127.418 15.4507C126.993 15.2184 127.109 14.9088 127.418 14.5992C127.534 14.4831 127.65 14.4057 127.727 14.2896L127.688 14.3283Z" fill="#4B8C1C"/>
<path opacity="0.24" d="M124.368 37.4734C124.754 37.8604 124.947 38.0926 125.217 38.3636C125.024 38.5184 124.87 38.7119 124.715 38.7119C124.484 38.7506 124.252 38.6345 124.02 38.5958C124.098 38.2475 124.213 37.9378 124.368 37.4734Z" fill="#4B8C1C"/>
<path opacity="0.24" d="M121.703 46.4525C121.858 46.1428 121.896 45.9493 122.051 45.8719C122.36 45.6784 122.669 45.5623 122.977 45.4075C122.977 45.4075 123.132 45.601 123.093 45.6397C122.862 45.9106 122.63 46.2202 122.36 46.4525C122.282 46.4912 122.051 46.4138 121.703 46.4525Z" fill="#4B8C1C"/>
<path opacity="0.24" d="M120.661 17.9668C120.854 17.0379 120.854 17.0379 121.935 16.8831C121.395 17.3862 121.009 17.6571 120.661 17.9668Z" fill="#4B8C1C"/>
<path opacity="0.24" d="M96.6059 8.79417C96.3356 8.44583 96.104 8.29102 96.0267 8.0588C95.9881 7.98139 96.2584 7.63306 96.4129 7.63306C96.6059 7.63306 96.9921 7.82657 96.9921 7.90398C96.9921 8.17491 96.799 8.40713 96.6059 8.79417Z" fill="#4B8C1C"/>
<path opacity="0.24" d="M104.985 23.4629C105.564 24.3918 104.83 24.8175 104.251 25.282C104.483 24.7014 104.753 24.1209 104.985 23.4629Z" fill="#4B8C1C"/>
<path opacity="0.24" d="M120.777 25.9786C120.506 26.2882 120.313 26.4818 120.12 26.6753C119.966 26.5205 119.618 26.3269 119.657 26.2495C119.695 26.0173 119.889 25.7464 120.12 25.6303C120.197 25.5916 120.468 25.8238 120.777 25.9786Z" fill="#4B8C1C"/>
<path opacity="0.24" d="M127.727 13.0513C127.688 12.4321 128.036 12.316 128.46 12.5482C128.846 12.7804 129.155 13.2061 129.734 13.748C128.846 13.4384 128.267 13.2061 127.688 13.0126L127.727 13.0513Z" fill="#4B8C1C"/>
<path opacity="0.24" d="M125.178 26.1331C124.406 26.2492 124.29 25.7074 123.981 25.0881C124.831 25.1268 125.217 25.4365 125.14 26.1718L125.178 26.1331Z" fill="#4B8C1C"/>
<path opacity="0.24" d="M106.722 11.9292C105.911 12.2776 105.757 11.697 105.332 11.1165C106.22 11.31 106.22 11.31 106.722 11.9292Z" fill="#4B8C1C"/>
<path opacity="0.24" d="M106.761 8.63928C106.606 8.67798 106.452 8.75539 106.336 8.67798C106.104 8.56187 105.872 8.40706 105.641 8.25224C105.602 8.25224 105.718 8.02002 105.718 8.02002C105.988 8.05872 106.259 8.09743 106.529 8.17483C106.683 8.21354 106.799 8.29095 106.954 8.36835C106.876 8.44576 106.838 8.56187 106.761 8.63928Z" fill="#4B8C1C"/>
<path opacity="0.24" d="M101.548 28.3782C101.664 28.4943 101.702 28.533 101.702 28.5717C101.625 28.92 101.587 29.2683 101.509 29.6554C101.432 29.6167 101.278 29.6167 101.239 29.578C100.969 29.0748 100.93 28.6878 101.548 28.3782Z" fill="#4B8C1C"/>
<path opacity="0.24" d="M132.669 35.8867C132.437 36.3125 132.244 36.6995 132.013 37.1252C131.935 36.5447 131.588 35.8867 132.669 35.8867Z" fill="#4B8C1C"/>
<path opacity="0.24" d="M128.229 33.6418C128.268 33.5644 128.306 33.4482 128.345 33.4095C128.654 33.1773 129.001 32.9838 129.31 32.7903C129.349 32.8677 129.465 33.0225 129.426 33.0225C129.078 33.3321 128.77 33.6031 128.422 33.9127C128.345 33.7966 128.306 33.7192 128.229 33.6418Z" fill="#4B8C1C"/>
<path opacity="0.24" d="M125.681 19.5931C125.642 19.5931 125.565 19.6318 125.565 19.6318C125.294 19.3996 125.024 19.2061 124.754 18.9352C124.754 18.9352 124.908 18.703 124.908 18.7417C125.256 18.8965 125.565 19.09 125.874 19.2835C125.796 19.3609 125.758 19.477 125.681 19.5931Z" fill="#4B8C1C"/>
<path opacity="0.24" d="M126.954 36.2736C126.877 36.4284 126.877 36.5058 126.839 36.5058C126.491 36.5832 126.144 36.6606 125.835 36.738C125.835 36.6606 125.757 36.5445 125.796 36.4671C126.066 35.964 126.414 35.8866 126.954 36.2736Z" fill="#4B8C1C"/>
<path opacity="0.24" d="M109.579 29.6165C109.154 30.0035 108.73 30.3906 108.112 30.9324C108.266 29.9648 108.923 29.81 109.232 29.3069C109.386 29.3843 109.502 29.5004 109.579 29.6165Z" fill="#4B8C1C"/>
<path opacity="0.24" d="M102.861 14.0959C102.822 14.7152 102.784 15.1409 102.745 15.8763C102.011 15.0248 101.973 14.5991 102.861 14.0959Z" fill="#4B8C1C"/>
<path opacity="0.24" d="M90.4667 16.1091C90.4667 16.4962 90.5053 16.9219 90.4667 17.3089C90.4281 17.4638 90.1578 17.5412 89.9647 17.6573C89.8875 17.4638 89.6558 17.1928 89.7331 17.0767C89.9261 16.7284 90.235 16.4575 90.5053 16.1478L90.4667 16.1091Z" fill="#4B8C1C"/>
<path opacity="0.24" d="M122.437 29.3072C122.746 28.7654 123.055 28.2235 123.364 27.6816L123.325 27.7203C123.48 27.9139 123.634 28.0687 123.789 28.2622C123.325 28.6105 122.862 28.9202 122.437 29.2685V29.3072Z" fill="#4B8C1C"/>
<path opacity="0.24" d="M116.877 28.2625C116.568 28.4947 116.336 28.6496 116.143 28.8044C116.066 28.6496 115.873 28.4173 115.912 28.3399C115.989 28.1464 116.22 27.9529 116.414 27.8368C116.452 27.7981 116.645 28.0303 116.877 28.2625Z" fill="#4B8C1C"/>
<path opacity="0.24" d="M116.838 13.0123C116.606 13.3219 116.413 13.6316 116.066 14.096C115.834 13.2058 116.105 12.9349 116.838 13.0123Z" fill="#4B8C1C"/>
<path opacity="0.24" d="M103.324 17.8889C103.517 18.0824 103.672 18.276 103.788 18.4695C103.826 18.5082 103.556 18.7404 103.556 18.7404C103.363 18.5856 103.131 18.4308 102.938 18.2373C103.054 18.1598 103.17 18.0437 103.324 17.8889Z" fill="#4B8C1C"/>
<path opacity="0.24" d="M113.904 5.00105C113.672 4.73013 113.44 4.4592 113.209 4.18828C113.209 4.14957 113.325 4.03346 113.363 3.95605C113.672 4.18828 113.981 4.4205 114.29 4.65272C114.174 4.76883 114.02 4.88494 113.904 5.00105Z" fill="#4B8C1C"/>
<path opacity="0.24" d="M107.61 4.14966C107.61 4.5754 107.61 5.00114 107.61 5.38817C107.07 4.76892 107.07 4.76892 107.61 4.14966Z" fill="#4B8C1C"/>
<path opacity="0.24" d="M113.633 11.8905C113.981 11.5809 114.251 11.3487 114.56 11.1165C114.637 11.31 114.753 11.3874 114.715 11.4648C114.599 11.9292 114.444 12.3163 113.633 11.8905Z" fill="#4B8C1C"/>
<path opacity="0.24" d="M90.5055 16.1479C90.4668 15.9544 90.351 15.7609 90.351 15.5673C90.3896 15.3738 90.5055 15.1416 90.6213 14.9868C90.6599 14.9481 91.0074 15.0642 91.0074 15.1029C91.046 15.3351 91.0074 15.5673 90.9302 15.7609C90.8529 15.9157 90.6213 15.9931 90.4668 16.1092L90.5055 16.1479Z" fill="#4B8C1C"/>
<path opacity="0.24" d="M125.681 16.6126C125.449 16.1482 125.256 15.7224 124.908 14.9871C125.758 15.4515 126.028 15.8385 126.067 16.4191C125.912 16.4965 125.796 16.5352 125.681 16.6126Z" fill="#4B8C1C"/>
<path opacity="0.24" d="M108.266 28.8033C108.459 28.4549 108.537 28.184 108.691 28.1066C108.807 28.0292 109.039 28.1066 109.232 28.1453C109.154 28.3775 109.116 28.6097 108.961 28.8033C108.884 28.842 108.614 28.8033 108.266 28.8033Z" fill="#4B8C1C"/>
<path opacity="0.24" d="M98.4594 25.7075C98.5752 25.3592 98.6139 25.0883 98.7297 25.0109C98.9228 24.8948 99.193 24.9335 99.4247 24.8948C99.3475 25.0883 99.3089 25.3592 99.1544 25.4753C99.0772 25.5914 98.8069 25.5914 98.4594 25.7075Z" fill="#4B8C1C"/>
<path opacity="0.24" d="M134.059 26.1332C133.75 26.0945 133.441 26.0558 133.171 25.9783C133.132 25.9783 133.132 25.7074 133.132 25.5913C133.48 25.5913 133.827 25.5913 134.175 25.5913C134.136 25.7848 134.098 25.9396 134.059 26.1332Z" fill="#4B8C1C"/>
<path opacity="0.24" d="M128.422 24.3907C128.615 24.1197 128.847 23.8101 129.04 23.5779C129.503 23.7714 129.387 23.9262 128.422 24.3907Z" fill="#4B8C1C"/>
<path opacity="0.24" d="M114.56 15.8372C114.251 16.4951 114.097 16.8435 113.865 17.3853C113.749 16.4951 113.749 16.4951 114.56 15.8372Z" fill="#4B8C1C"/>
<path opacity="0.24" d="M108.769 6.39424C109.116 6.0459 109.464 5.73627 109.811 5.38794C109.888 5.46535 109.966 5.50405 110.004 5.58146C109.657 5.92979 109.309 6.27813 109 6.62646C108.923 6.54905 108.846 6.47165 108.769 6.39424Z" fill="#4B8C1C"/>
<path opacity="0.24" d="M118.885 15.2183C118.807 15.4892 118.73 15.7601 118.614 16.0311C118.614 16.0698 118.305 15.9537 118.151 15.8763C118.305 15.6053 118.46 15.3344 118.614 15.0635C118.653 15.1409 118.769 15.1796 118.885 15.2183Z" fill="#4B8C1C"/>
<path opacity="0.24" d="M99.5789 12.6646C99.9263 12.1227 100.158 11.7744 100.467 11.2712C100.544 12.2001 100.544 12.2001 99.5789 12.6646Z" fill="#4B8C1C"/>
<path opacity="0.24" d="M133.326 11.0779C134.214 11.6197 133.441 11.9294 133.326 12.3938C133.326 11.9681 133.326 11.5036 133.326 11.0779Z" fill="#4B8C1C"/>
<path opacity="0.24" d="M126.105 12.0837C126.337 12.316 126.568 12.5482 126.8 12.8191C126.684 12.8965 126.491 13.0513 126.452 13.0126C126.221 12.8578 126.028 12.6256 125.835 12.4321C125.873 12.316 125.989 12.1999 126.105 12.0837Z" fill="#4B8C1C"/>
<path opacity="0.24" d="M119.155 13.3997C118.923 13.7867 118.653 14.1737 118.421 14.5608C118.306 13.7867 118.306 13.7867 119.194 13.4384L119.155 13.3997Z" fill="#4B8C1C"/>
<path opacity="0.24" d="M130.198 31.3191C130.661 31.1642 130.97 31.0481 131.395 30.8933C131.009 31.5513 131.009 31.5513 130.198 31.3191Z" fill="#4B8C1C"/>
<path opacity="0.24" d="M122.167 22.804C122.514 23.0362 122.9 23.2684 123.364 23.578C122.475 23.8489 122.282 23.3845 121.974 23.0362C122.051 22.9588 122.128 22.8814 122.167 22.804Z" fill="#4B8C1C"/>
<path opacity="0.24" d="M128.422 6.66505C128.267 6.27801 127.186 5.96838 128.306 5.34912C128.344 5.85227 128.383 6.27801 128.422 6.66505Z" fill="#4B8C1C"/>
<path opacity="0.24" d="M112.977 20.9082C112.977 21.2565 112.938 21.6049 112.938 22.1467C112.359 21.6049 112.282 21.2565 112.977 20.9082Z" fill="#4B8C1C"/>
<path opacity="0.24" d="M113.75 28.7265C113.479 28.8813 113.209 28.9974 112.939 29.1135L112.746 28.7652C112.977 28.5717 113.248 28.4556 113.479 28.3008C113.595 28.4556 113.672 28.5717 113.75 28.7265Z" fill="#4B8C1C"/>
<path opacity="0.24" d="M125.95 41.0731C126.182 40.7634 126.375 40.4151 126.607 40.1055C126.684 40.1829 126.839 40.2603 126.839 40.2603C126.645 40.5699 126.452 40.9182 126.259 41.2279C126.182 41.1892 126.066 41.1118 125.95 41.0731Z" fill="#4B8C1C"/>
<path opacity="0.24" d="M119.387 11.3103C119.425 11.0006 119.464 10.6523 119.541 10.304C119.966 10.691 119.966 10.691 119.387 11.3103Z" fill="#4B8C1C"/>
<path opacity="0.24" d="M121.433 8.63916C121.511 8.94879 121.626 9.14231 121.588 9.25842C121.549 9.41324 121.356 9.49064 121.202 9.60676C121.124 9.45194 120.931 9.29713 120.97 9.14231C120.97 8.98749 121.202 8.87138 121.433 8.63916Z" fill="#4B8C1C"/>
<path opacity="0.24" d="M123.441 9.0654C123.094 9.02669 122.785 8.98799 122.399 8.94929C122.901 8.29132 122.901 8.29132 123.402 9.1041L123.441 9.0654Z" fill="#4B8C1C"/>
<path opacity="0.24" d="M133.75 8.87168C133.596 8.52335 133.48 8.17501 133.326 7.82668C133.48 7.78797 133.634 7.74927 133.634 7.74927C133.75 8.0976 133.866 8.44594 133.982 8.79427C133.905 8.83298 133.827 8.83298 133.75 8.87168Z" fill="#4B8C1C"/>
<path opacity="0.24" d="M110.931 8.17494C110.66 8.05882 110.429 7.98142 110.197 7.8266C110.197 7.8266 110.274 7.59438 110.351 7.47827C110.622 7.59438 110.853 7.71049 111.124 7.8266C111.008 7.98142 110.969 8.05882 110.931 8.17494Z" fill="#4B8C1C"/>
<path opacity="0.24" d="M98.6912 7.94291C98.4981 7.7881 98.3051 7.63328 98.3051 7.59458C98.3823 7.40106 98.5367 7.20755 98.6526 7.05273C98.7684 7.13014 98.9614 7.24625 98.9614 7.28495C98.9228 7.47847 98.807 7.67199 98.6912 7.94291Z" fill="#4B8C1C"/>
<path opacity="0.24" d="M119.541 6.35544C119.309 6.54896 119.194 6.66507 119.078 6.78118C118.923 6.58766 118.769 6.43285 118.692 6.23933C118.653 6.16192 118.885 6.00711 118.962 5.85229C119.116 6.00711 119.309 6.12322 119.541 6.35544Z" fill="#4B8C1C"/>
<path opacity="0.24" d="M109.116 25.6687C109.425 25.6687 109.772 25.63 110.197 25.5913C109.695 26.1719 109.695 26.1719 109.116 25.6687Z" fill="#4B8C1C"/>
<path opacity="0.24" d="M106.452 16.341C105.95 16.4958 105.564 16.6119 105.023 16.7281C105.409 16.0314 105.795 15.8379 106.452 16.341Z" fill="#4B8C1C"/>
<path opacity="0.24" d="M126.028 34.8023C126.337 34.7249 126.607 34.6475 126.916 34.5701C126.954 34.6862 126.993 34.7636 126.993 34.8797C126.723 34.9958 126.414 35.1119 126.144 35.228C126.105 35.0732 126.066 34.9184 126.028 34.8023Z" fill="#4B8C1C"/>
<path opacity="0.24" d="M99 29.5389C98.7297 29.5002 98.5752 29.5002 98.4208 29.4615C98.4594 29.3454 98.4594 29.1519 98.5366 29.1132C98.6911 29.0358 98.8841 29.0358 99.0772 28.9971C99.0386 29.1519 99.0386 29.3067 99 29.5389Z" fill="#4B8C1C"/>
<path opacity="0.24" d="M98.8451 16.3803C98.7293 16.5739 98.6906 16.69 98.652 16.7287C98.4976 16.8835 98.3045 16.9996 98.1501 17.1544C98.1114 17.077 97.9956 16.9222 97.9956 16.9222C98.1887 16.7287 98.3817 16.5352 98.6134 16.3803C98.6134 16.3416 98.652 16.3416 98.8451 16.3803Z" fill="#4B8C1C"/>
<path opacity="0.24" d="M102.05 7.05188C101.239 7.16799 100.931 6.70355 100.699 5.77466C101.278 6.35521 101.664 6.74225 102.05 7.12929C102.05 7.09058 102.05 7.05188 102.05 7.05188Z" fill="#4B8C1C"/>
<path opacity="0.24" d="M125.642 31.32C125.526 31.6683 125.41 32.0166 125.256 32.4811C125.14 32.2489 125.024 32.1327 125.063 32.0166C125.14 31.7457 125.294 31.4748 125.41 31.2039C125.488 31.2426 125.565 31.2813 125.642 31.32Z" fill="#4B8C1C"/>
<path opacity="0.24" d="M122.9 49.7038C122.746 49.936 122.63 50.1295 122.475 50.3617C122.36 50.2843 122.244 50.2069 122.167 50.1295C122.321 49.936 122.475 49.7038 122.63 49.5103C122.707 49.5877 122.823 49.6651 122.9 49.7038Z" fill="#4B8C1C"/>
<path opacity="0.24" d="M102.05 7.09047C102.397 6.70343 102.745 6.39381 103.401 6.89695C102.938 7.20658 102.513 7.16787 102.05 7.05176V7.09047Z" fill="#4B8C1C"/>
<path opacity="0.24" d="M115.68 22.9213C115.41 23.1149 115.255 23.231 115.062 23.3471C115.062 23.3471 114.831 23.1149 114.869 23.0762C114.946 22.8826 115.101 22.6891 115.217 22.4956C115.332 22.6117 115.448 22.7278 115.68 22.9213Z" fill="#4B8C1C"/>
<path opacity="0.24" d="M115.101 15.9545C115.178 15.49 115.255 14.9869 115.333 14.5225C115.448 14.5225 115.526 14.5612 115.641 14.5612C115.564 15.0256 115.526 15.5288 115.448 15.9932C115.332 15.9545 115.217 15.9545 115.101 15.9545Z" fill="#4B8C1C"/>
<path opacity="0.24" d="M117.417 24.74C117.688 24.6626 117.997 24.5852 118.267 24.5078C118.306 24.6239 118.344 24.7013 118.344 24.8174C118.074 24.8948 117.804 25.011 117.533 25.0884C117.495 24.9722 117.456 24.8561 117.417 24.74Z" fill="#4B8C1C"/>
<path opacity="0.24" d="M121.395 35.3828C121.124 35.4602 120.931 35.5763 120.893 35.4989C120.738 35.344 120.661 35.1505 120.545 34.957C120.661 34.957 120.854 34.8796 120.931 34.9183C121.086 34.9957 121.202 35.1505 121.395 35.3828Z" fill="#4B8C1C"/>
<path opacity="0.24" d="M131.549 25.9395C131.395 25.7073 131.202 25.475 131.047 25.2428C131.125 25.2041 131.279 25.1267 131.279 25.1267C131.472 25.3202 131.627 25.5137 131.82 25.746C131.704 25.7847 131.627 25.8621 131.549 25.9395Z" fill="#4B8C1C"/>
<path opacity="0.24" d="M109.888 14.1348C109.618 14.2896 109.386 14.4058 109.116 14.5606C109.078 14.4832 109 14.4058 108.962 14.367C109.193 14.1735 109.425 14.0187 109.695 13.8252C109.734 13.9026 109.811 14.0187 109.888 14.1348Z" fill="#4B8C1C"/>
<path opacity="0.24" d="M121.935 33.1772C122.089 33.6417 122.205 33.9513 122.398 34.4932C121.819 34.1061 121.626 33.7965 121.935 33.1772Z" fill="#4B8C1C"/>
<path opacity="0.24" d="M131.549 21.721C131.665 21.4887 131.82 21.2178 131.935 20.9856C132.013 21.0243 132.167 21.1017 132.167 21.1404C132.051 21.4113 131.935 21.6436 131.82 21.9145C131.704 21.8371 131.626 21.7984 131.549 21.721Z" fill="#4B8C1C"/>
<path opacity="0.24" d="M119.194 13.4387C119.194 13.013 119.194 12.5873 119.194 12.1228C119.271 12.0841 119.348 12.0841 119.425 12.0454C119.503 12.2389 119.696 12.4711 119.657 12.626C119.58 12.8969 119.348 13.1291 119.155 13.3613L119.194 13.4387Z" fill="#4B8C1C"/>
<path opacity="0.24" d="M93.2467 12.1225C93.0923 11.9677 92.9764 11.8903 92.8606 11.8129C93.0536 11.6967 93.2467 11.5806 93.4398 11.5032C93.517 11.4645 93.5942 11.5419 93.71 11.5806C93.5556 11.7354 93.4398 11.929 93.2467 12.1225Z" fill="#4B8C1C"/>
<path opacity="0.24" d="M123.286 11.1165C123.286 11.4261 123.286 11.697 123.286 12.0066C123.209 12.0066 123.132 12.0066 123.055 12.0066C123.055 11.697 123.055 11.4261 123.055 11.1165C123.132 11.1165 123.209 11.1165 123.286 11.1165Z" fill="#4B8C1C"/>
<path opacity="0.24" d="M125.217 12.5482C125.024 12.703 124.869 12.8965 124.792 12.8578C124.599 12.7417 124.445 12.5869 124.251 12.4321C124.329 12.3547 124.483 12.1611 124.522 12.1611C124.753 12.2385 124.946 12.3934 125.217 12.5482Z" fill="#4B8C1C"/>
<path opacity="0.24" d="M127.457 29.6939C127.264 29.4617 127.071 29.2295 126.839 28.9973C126.955 28.8811 127.071 28.765 127.186 28.6489C127.341 28.9199 127.495 29.1908 127.688 29.4617C127.611 29.5778 127.534 29.6165 127.457 29.6939Z" fill="#4B8C1C"/>
<path opacity="0.24" d="M116.375 3.84029C116.182 3.99511 116.066 4.11122 115.95 4.22733C115.834 4.07251 115.68 3.9177 115.68 3.76288C115.68 3.68548 115.873 3.53066 115.95 3.41455C116.066 3.53066 116.182 3.64677 116.375 3.84029Z" fill="#4B8C1C"/>
<path opacity="0.24" d="M123.827 20.4827C123.711 20.5214 123.557 20.6375 123.479 20.5988C123.402 20.5988 123.364 20.4053 123.286 20.3279C123.402 20.2892 123.557 20.2505 123.673 20.2505C123.75 20.2505 123.788 20.4053 123.827 20.4827Z" fill="#4B8C1C"/>
<path opacity="0.24" d="M123.325 20.2498C123.171 20.095 122.978 20.0176 122.978 19.9015C122.978 19.7467 123.093 19.5919 123.171 19.5145C123.209 19.4758 123.48 19.6306 123.48 19.6693C123.518 19.8628 123.402 20.0176 123.325 20.2498Z" fill="#4B8C1C"/>
<path opacity="0.24" d="M113.904 22.2236C114.02 22.4559 114.097 22.6881 114.213 22.9203C114.097 22.959 113.981 22.9977 113.865 23.0751C113.827 22.8042 113.749 22.572 113.711 22.301C113.788 22.2623 113.827 22.2623 113.904 22.2236Z" fill="#4B8C1C"/>
<path opacity="0.24" d="M122.63 48.9679C122.36 49.0066 122.167 49.0453 122.128 49.0066C122.012 48.8905 121.973 48.697 121.896 48.5035C122.012 48.4648 122.167 48.3874 122.244 48.4648C122.36 48.5422 122.437 48.7357 122.63 48.9679Z" fill="#4B8C1C"/>
<path opacity="0.24" d="M108.962 15.7996C108.73 15.9544 108.614 16.0705 108.46 16.1866C108.382 16.0705 108.228 15.9544 108.266 15.9157C108.344 15.7609 108.498 15.6447 108.653 15.5673C108.691 15.5286 108.807 15.6834 108.962 15.7996Z" fill="#4B8C1C"/>
<path opacity="0.24" d="M92.7448 14.0188C92.9378 14.0962 93.1695 14.1349 93.3625 14.2123C93.3239 14.2897 93.2853 14.4445 93.2853 14.4445C93.0923 14.4058 92.8606 14.3284 92.6675 14.2897C92.6675 14.1736 92.7062 14.0962 92.7448 14.0188Z" fill="#4B8C1C"/>
<path opacity="0.24" d="M130.043 28.3782C130.159 28.533 130.236 28.6104 130.314 28.7265C130.198 28.8039 130.082 28.9587 129.966 28.92C129.85 28.92 129.773 28.7652 129.696 28.6491C129.812 28.5717 129.889 28.4943 130.043 28.3782Z" fill="#4B8C1C"/>
<path opacity="0.24" d="M133.673 29.9646C133.711 30.1581 133.789 30.3129 133.75 30.429C133.711 30.5451 133.557 30.5838 133.441 30.6612C133.402 30.5451 133.287 30.3903 133.325 30.2742C133.364 30.1968 133.518 30.1194 133.673 29.9646Z" fill="#4B8C1C"/>
<path opacity="0.24" d="M132.862 10.1871C132.63 10.3806 132.399 10.6128 132.167 10.8063C132.051 10.7289 131.974 10.6515 131.858 10.5354C132.051 10.3032 132.244 10.0323 132.437 9.80005C132.592 9.95486 132.708 10.071 132.862 10.1871Z" fill="#4B8C1C"/>
<path opacity="0.24" d="M121.626 14.9474C121.549 14.7152 121.433 14.4443 121.356 14.2121C121.472 14.1734 121.587 14.1347 121.742 14.0959C121.781 14.3669 121.819 14.5991 121.858 14.87C121.781 14.9087 121.703 14.9474 121.626 14.9474Z" fill="#4B8C1C"/>
<path opacity="0.24" d="M134.754 30.429C134.947 30.1967 135.14 30.0032 135.333 29.771C135.372 29.8097 135.449 29.8484 135.488 29.8871C135.333 30.1193 135.14 30.3516 134.986 30.6225C134.947 30.5451 134.831 30.5064 134.754 30.429Z" fill="#4B8C1C"/>
<path opacity="0.24" d="M121.549 41.8855C121.819 41.8081 122.051 41.7307 122.321 41.6533C122.321 41.6533 122.36 41.8081 122.398 41.8855C122.128 41.9242 121.858 42.0016 121.587 42.0403C121.549 42.0016 121.549 41.9629 121.549 41.8855Z" fill="#4B8C1C"/>
<path opacity="0.24" d="M122.089 38.1321C122.321 38.403 122.437 38.4804 122.437 38.5965C122.437 38.7513 122.321 38.9449 122.282 39.0997C122.205 38.9836 122.051 38.9062 122.012 38.79C122.012 38.6739 122.051 38.4804 122.089 38.1321Z" fill="#4B8C1C"/>
<path opacity="0.24" d="M103.015 23.1139C103.093 22.959 103.17 22.8429 103.247 22.7268C103.363 22.8042 103.517 22.8429 103.517 22.9203C103.517 23.0364 103.44 23.1526 103.363 23.2687C103.286 23.23 103.17 23.1913 103.015 23.1139Z" fill="#4B8C1C"/>
<path opacity="0.24" d="M111.008 24.6238C111.201 24.8947 111.356 25.0495 111.356 25.1656C111.356 25.3204 111.163 25.4753 111.085 25.5914C111.008 25.4366 110.892 25.243 110.854 25.0882C110.815 25.0108 110.892 24.8947 111.008 24.6238Z" fill="#4B8C1C"/>
<path opacity="0.24" d="M103.672 10.5745C103.517 10.6519 103.363 10.7293 103.363 10.7293C103.247 10.5745 103.17 10.4196 103.093 10.2261C103.17 10.1874 103.286 10.11 103.324 10.1487C103.44 10.2261 103.556 10.3809 103.672 10.5745Z" fill="#4B8C1C"/>
<path opacity="0.24" d="M128.345 11.6196C128.345 12.0454 128.345 12.4711 128.345 12.9355L128.383 12.8968C127.727 12.3163 127.727 12.2776 128.383 11.6583L128.345 11.6196Z" fill="#4B8C1C"/>
<path opacity="0.24" d="M104.251 28.6495C104.328 28.4947 104.367 28.3012 104.444 28.2625C104.56 28.2238 104.714 28.3012 104.869 28.3399C104.83 28.456 104.83 28.6882 104.753 28.6882C104.599 28.727 104.444 28.6882 104.251 28.6495Z" fill="#4B8C1C"/>
<path opacity="0.24" d="M126.839 9.64591C126.684 9.6072 126.607 9.5685 126.53 9.5685C126.646 9.41368 126.723 9.25887 126.839 9.10405C126.839 9.06535 126.993 9.14276 127.071 9.18146C126.955 9.33628 126.877 9.49109 126.839 9.64591Z" fill="#4B8C1C"/>
<path opacity="0.24" d="M102.359 32.4035C102.282 32.4809 102.166 32.6357 102.089 32.7519C102.012 32.6357 101.896 32.5196 101.934 32.4809C102.012 32.3261 102.166 32.21 102.282 32.0552C102.282 32.1326 102.32 32.21 102.359 32.4035Z" fill="#4B8C1C"/>
<path opacity="0.24" d="M107.842 11.1166C107.687 10.9231 107.649 10.8844 107.571 10.8069C107.687 10.6908 107.803 10.6134 107.919 10.4973C107.958 10.5747 108.035 10.6521 108.035 10.7295C108.035 10.8844 107.919 11.0005 107.842 11.1166Z" fill="#4B8C1C"/>
<path opacity="0.24" d="M109.695 10.3418C109.772 10.5353 109.888 10.6901 109.849 10.7288C109.811 10.8449 109.656 10.8836 109.541 10.9611C109.502 10.8836 109.386 10.7675 109.425 10.7288C109.463 10.6514 109.579 10.5353 109.695 10.3418Z" fill="#4B8C1C"/>
<path opacity="0.24" d="M116.722 11.9679C116.606 12.0454 116.568 12.1228 116.491 12.1615C116.452 12.0454 116.375 11.9292 116.336 11.8131C116.336 11.7744 116.375 11.7357 116.413 11.697C116.529 11.7744 116.606 11.8518 116.722 11.9679Z" fill="#4B8C1C"/>
<path opacity="0.24" d="M123.402 9.10353C123.673 9.14224 123.943 9.21964 124.213 9.25835C124.174 9.33575 124.136 9.41316 124.097 9.49057C123.866 9.33576 123.634 9.18094 123.441 9.02612L123.402 9.10353Z" fill="#4B8C1C"/>
<path opacity="0.24" d="M125.063 29.7325C124.985 29.8099 124.87 29.8873 124.754 29.9647C124.715 29.8486 124.599 29.6938 124.638 29.6164C124.715 29.5003 124.87 29.4616 124.985 29.4229C124.985 29.539 125.024 29.6164 125.063 29.7325Z" fill="#4B8C1C"/>
<path opacity="0.24" d="M118.885 15.218C119.039 15.2954 119.193 15.3341 119.193 15.3728C119.193 15.4889 119.155 15.6438 119.116 15.7599C119.039 15.7212 118.885 15.6825 118.885 15.6438C118.846 15.5277 118.846 15.3728 118.885 15.218Z" fill="#4B8C1C"/>
<path opacity="0.24" d="M128.422 6.89697C128.537 7.09049 128.653 7.28401 128.769 7.47753C128.73 7.51623 128.692 7.51623 128.653 7.55494C128.46 7.40012 128.306 7.28401 128.113 7.1292C128.229 7.05179 128.344 6.97438 128.422 6.89697Z" fill="#4B8C1C"/>
<path opacity="0.24" d="M130.777 7.55585C130.584 7.59455 130.43 7.67196 130.275 7.71067C130.275 7.71067 130.16 7.47844 130.198 7.47844C130.353 7.36233 130.507 7.28493 130.661 7.20752C130.661 7.32363 130.7 7.40104 130.777 7.55585Z" fill="#4B8C1C"/>
<path opacity="0.24" d="M129.889 16.3412C129.773 16.4574 129.657 16.5348 129.58 16.6122C129.503 16.4961 129.348 16.4186 129.348 16.3412C129.348 16.2251 129.503 16.1477 129.619 16.0703C129.696 16.109 129.773 16.2251 129.889 16.3412Z" fill="#4B8C1C"/>
<path opacity="0.24" d="M110.004 14.8312C109.888 14.8699 109.811 14.9086 109.734 14.9474C109.695 14.8312 109.656 14.6764 109.618 14.5603C109.618 14.5216 109.772 14.4829 109.849 14.4829C109.888 14.5603 109.927 14.7151 110.004 14.8312Z" fill="#4B8C1C"/>
<path opacity="0.24" d="M100.39 14.87C100.313 14.9862 100.236 15.0636 100.158 15.1797C100.12 15.0636 100.043 14.9475 100.043 14.8313C100.043 14.7539 100.197 14.6765 100.236 14.5991C100.274 14.6765 100.313 14.7539 100.39 14.87Z" fill="#4B8C1C"/>
<path opacity="0.24" d="M126.067 28.1075C125.835 28.0688 125.565 28.0301 125.333 27.9914C125.333 27.914 125.333 27.8753 125.333 27.7979C125.565 27.7979 125.835 27.8366 126.067 27.8366C126.105 27.9527 126.105 28.0301 126.067 28.1075Z" fill="#4B8C1C"/>
<path opacity="0.24" d="M107.649 10.0323C107.533 10.1484 107.378 10.2258 107.224 10.3419C107.185 10.2645 107.069 10.1484 107.108 10.1097C107.185 9.95488 107.34 9.87747 107.456 9.72266C107.533 9.80006 107.571 9.87747 107.649 10.0323Z" fill="#4B8C1C"/>
<path opacity="0.24" d="M119.387 7.51587C119.464 7.74809 119.541 8.01901 119.58 8.25123C119.503 8.28994 119.425 8.28994 119.387 8.32864C119.309 8.09642 119.232 7.8255 119.194 7.59328C119.232 7.55457 119.309 7.55457 119.387 7.51587Z" fill="#4B8C1C"/>
<path opacity="0.24" d="M115.371 8.52316C115.255 8.44575 115.139 8.40705 115.101 8.36835C115.101 8.25224 115.139 8.13613 115.178 8.02002C115.255 8.05872 115.371 8.09743 115.41 8.13613C115.41 8.25224 115.371 8.36835 115.371 8.52316Z" fill="#4B8C1C"/>
<path opacity="0.24" d="M117.34 8.21338C117.572 8.29079 117.765 8.36819 117.997 8.4456C117.997 8.4456 117.958 8.60041 117.958 8.67782C117.726 8.60041 117.533 8.4843 117.302 8.40689C117.302 8.32949 117.34 8.29079 117.34 8.21338Z" fill="#4B8C1C"/>
<path opacity="0.24" d="M102.668 27.0229C102.591 26.8681 102.514 26.752 102.514 26.7133C102.591 26.5972 102.707 26.5198 102.822 26.4424C102.861 26.5198 102.977 26.6359 102.938 26.7133C102.9 26.8294 102.784 26.9068 102.668 27.0229Z" fill="#4B8C1C"/>
<path opacity="0.24" d="M101.857 9.4904C101.78 9.64521 101.703 9.80003 101.625 9.99355C101.548 9.95484 101.394 9.87744 101.394 9.83873C101.432 9.64521 101.471 9.4904 101.51 9.29688C101.664 9.37428 101.741 9.41299 101.857 9.4904Z" fill="#4B8C1C"/>
<path opacity="0.24" d="M130.005 38.6728C130.121 38.5954 130.236 38.5567 130.352 38.4792C130.391 38.5954 130.507 38.7502 130.468 38.7889C130.391 38.8663 130.236 38.905 130.121 38.9437C130.082 38.905 130.043 38.8276 130.005 38.6728Z" fill="#4B8C1C"/>
<path opacity="0.24" d="M103.054 30.4683C102.899 30.6231 102.783 30.778 102.668 30.8941C102.629 30.9328 102.513 30.8554 102.436 30.8167C102.552 30.6618 102.629 30.507 102.745 30.3909C102.783 30.3522 102.899 30.4296 103.054 30.4683Z" fill="#4B8C1C"/>
<path opacity="0.24" d="M129.31 21.3726C129.233 21.179 129.155 21.0629 129.194 20.9468C129.233 20.8694 129.348 20.792 129.464 20.7146C129.541 20.8307 129.657 20.9468 129.619 21.0242C129.58 21.1403 129.464 21.2564 129.31 21.3726Z" fill="#4B8C1C"/>
<path opacity="0.24" d="M117.572 18.6629C117.418 18.7403 117.263 18.8177 117.109 18.8564C117.07 18.8564 116.993 18.6629 116.993 18.6629C117.147 18.5468 117.263 18.4694 117.418 18.3533C117.456 18.4307 117.495 18.5081 117.572 18.6629Z" fill="#4B8C1C"/>
<path opacity="0.24" d="M121.858 19.7081C121.703 19.6307 121.665 19.592 121.587 19.5533C121.665 19.4372 121.742 19.3211 121.858 19.2049C121.896 19.1662 122.012 19.2049 122.089 19.2049C122.012 19.3598 121.935 19.5146 121.858 19.7081Z" fill="#4B8C1C"/>
<path opacity="0.24" d="M109.695 19.7076C109.579 19.785 109.502 19.8237 109.425 19.8624C109.348 19.7463 109.309 19.6302 109.232 19.4754C109.348 19.4367 109.463 19.3593 109.579 19.3206C109.618 19.4367 109.657 19.5528 109.695 19.7076Z" fill="#4B8C1C"/>
<path opacity="0.24" d="M101.973 32.3262C101.78 32.2488 101.625 32.2488 101.548 32.1326C101.471 32.0552 101.51 31.8617 101.51 31.7456C101.664 31.7843 101.857 31.7843 102.012 31.8617C102.089 31.9004 102.012 32.1326 101.973 32.3262Z" fill="#4B8C1C"/>
<path opacity="0.24" d="M110.738 17.8889C110.892 18.0437 111.008 18.1211 111.085 18.1985C111.008 18.2759 110.931 18.3921 110.815 18.4695C110.776 18.5082 110.622 18.3921 110.583 18.3146C110.583 18.1985 110.661 18.0824 110.738 17.8889Z" fill="#4B8C1C"/>
<path opacity="0.24" d="M131.781 32.4803C131.665 32.5577 131.549 32.6739 131.549 32.6352C131.434 32.519 131.356 32.4029 131.279 32.2481C131.356 32.2094 131.472 32.132 131.511 32.1707C131.627 32.2868 131.704 32.4029 131.781 32.4803Z" fill="#4B8C1C"/>
<path opacity="0.24" d="M107.494 18.045C107.417 18.1611 107.34 18.2385 107.224 18.3546C107.147 18.2772 106.992 18.1224 106.992 18.0837C107.031 17.9676 107.185 17.8902 107.263 17.8127C107.379 17.8514 107.417 17.9289 107.494 18.045Z" fill="#4B8C1C"/>
<path opacity="0.24" d="M129.773 10.9608C130.121 10.6899 130.275 10.5351 130.468 10.4189C130.391 10.5738 130.352 10.7286 130.275 10.8834C130.236 10.9221 130.082 10.8834 129.773 10.9608Z" fill="#4B8C1C"/>
<path opacity="0.24" d="M120.97 22.2634C121.047 22.4569 121.163 22.6118 121.124 22.6892C121.086 22.7666 120.931 22.844 120.815 22.8827C120.777 22.8053 120.7 22.6892 120.7 22.6505C120.738 22.5731 120.854 22.4569 120.97 22.2634Z" fill="#4B8C1C"/>
<path opacity="0.24" d="M123.402 36.3124C123.209 36.4285 123.016 36.5446 122.823 36.6995C122.784 36.6608 122.746 36.622 122.707 36.5446C122.861 36.3898 123.054 36.2737 123.209 36.1189C123.325 36.1963 123.363 36.2737 123.402 36.3124Z" fill="#4B8C1C"/>
<path opacity="0.24" d="M123.132 23.8875C122.978 23.9262 122.823 24.0036 122.669 24.081C122.669 24.0036 122.669 23.8875 122.707 23.8101C122.785 23.7327 122.939 23.6553 123.055 23.5779C123.094 23.6553 123.093 23.7327 123.132 23.8875Z" fill="#4B8C1C"/>
<path opacity="0.24" d="M101.741 20.0957C101.819 20.2505 101.934 20.4053 101.896 20.4827C101.857 20.5989 101.664 20.6763 101.548 20.6763C101.471 20.6763 101.317 20.444 101.355 20.4053C101.432 20.3279 101.587 20.2505 101.741 20.0957Z" fill="#4B8C1C"/>
<path opacity="0.24" d="M108.421 23.3074C108.305 23.3848 108.228 23.5009 108.112 23.5396C108.035 23.5783 107.957 23.4622 107.88 23.4235C107.957 23.3074 108.035 23.1913 108.151 23.1526C108.189 23.1526 108.305 23.23 108.421 23.3074Z" fill="#4B8C1C"/>
<path opacity="0.24" d="M110.544 7.98174C110.467 8.05915 110.351 8.21396 110.351 8.17526C110.236 8.09785 110.12 8.02044 110.004 7.94304C110.081 7.86563 110.197 7.71081 110.236 7.74952C110.351 7.82692 110.429 7.90433 110.544 7.98174Z" fill="#4B8C1C"/>
</g>
<defs>
<radialGradient id="paint0_radial_24_3465" cx="0" cy="0" r="1" gradientUnits="userSpaceOnUse" gradientTransform="translate(39.4877 79.2454) rotate(-34.9905) scale(74.1985 41.4915)">
<stop stop-color="#7F226D"/>
<stop offset="0.286" stop-color="#7B2069"/>
<stop offset="0.5783" stop-color="#6F195E"/>
<stop offset="0.8727" stop-color="#5A0F4B"/>
<stop offset="1" stop-color="#4F0940"/>
</radialGradient>
<radialGradient id="paint1_radial_24_3465" cx="0" cy="0" r="1" gradientUnits="userSpaceOnUse" gradientTransform="translate(38.9313 69.5049) rotate(-34.9905) scale(73.3251 47.3333)">
<stop stop-color="#7F226D"/>
<stop offset="0.286" stop-color="#7B2069"/>
<stop offset="0.5783" stop-color="#6F195E"/>
<stop offset="0.8727" stop-color="#5A0F4B"/>
<stop offset="1" stop-color="#4F0940"/>
</radialGradient>
<radialGradient id="paint2_radial_24_3465" cx="0" cy="0" r="1" gradientUnits="userSpaceOnUse" gradientTransform="translate(15.9896 120.461) rotate(-35.8647) scale(107.851 38.6745)">
<stop stop-color="#4F0940"/>
<stop offset="0.247" stop-color="#4E0B3C"/>
<stop offset="0.4996" stop-color="#4A0F30"/>
<stop offset="0.7539" stop-color="#44171B"/>
<stop offset="1" stop-color="#3C2200"/>
</radialGradient>
<radialGradient id="paint3_radial_24_3465" cx="0" cy="0" r="1" gradientUnits="userSpaceOnUse" gradientTransform="translate(52.7526 61.3008) rotate(-32.0617) scale(45.9085 9.40839)">
<stop stop-color="white" stop-opacity="0.25"/>
<stop offset="1" stop-color="white" stop-opacity="0"/>
</radialGradient>
<radialGradient id="paint4_radial_24_3465" cx="0" cy="0" r="1" gradientUnits="userSpaceOnUse" gradientTransform="translate(67.6791 101.755) rotate(-43.1403) scale(70.6406 14.464)">
<stop stop-color="#391838" stop-opacity="0.25"/>
<stop offset="1" stop-color="#391838" stop-opacity="0"/>
</radialGradient>
<linearGradient id="paint5_linear_24_3465" x1="139.736" y1="19.9176" x2="123.976" y2="-0.708588" gradientUnits="userSpaceOnUse">
<stop stop-color="#76AB50"/>
<stop offset="1" stop-color="#D8F88D"/>
</linearGradient>
<linearGradient id="paint6_linear_24_3465" x1="136.11" y1="12.5294" x2="125.032" y2="3.41237" gradientUnits="userSpaceOnUse">
<stop stop-color="#76AB50"/>
<stop offset="1" stop-color="#D8F88D"/>
</linearGradient>
<linearGradient id="paint7_linear_24_3465" x1="128.172" y1="36.0468" x2="85.201" y2="-19.6817" gradientUnits="userSpaceOnUse">
<stop stop-color="#76AB50"/>
<stop offset="1" stop-color="#D8F88D"/>
</linearGradient>
<linearGradient id="paint8_linear_24_3465" x1="141.179" y1="29.795" x2="73.3909" y2="26.486" gradientUnits="userSpaceOnUse">
<stop stop-color="#4B8C1C"/>
<stop offset="1" stop-color="#D8F88D"/>
</linearGradient>
<linearGradient id="paint9_linear_24_3465" x1="124.836" y1="20.5633" x2="128.586" y2="60.5555" gradientUnits="userSpaceOnUse">
<stop stop-color="#4B8C1C"/>
<stop offset="1" stop-color="#76AB50"/>
</linearGradient>
<linearGradient id="paint10_linear_24_3465" x1="127.865" y1="16.3859" x2="128.907" y2="-1.06854" gradientUnits="userSpaceOnUse">
<stop stop-color="#76AB50"/>
<stop offset="1" stop-color="#D8F88D"/>
</linearGradient>
<linearGradient id="paint11_linear_24_3465" x1="126.786" y1="12.0406" x2="137.397" y2="-7.05509" gradientUnits="userSpaceOnUse">
<stop stop-color="#407817"/>
<stop offset="1" stop-color="#4B8C1C" stop-opacity="0"/>
</linearGradient>
<linearGradient id="paint12_linear_24_3465" x1="134.967" y1="4.25095" x2="138.218" y2="-0.415752" gradientUnits="userSpaceOnUse">
<stop stop-color="#76AB50"/>
<stop offset="1" stop-color="#D8F88D"/>
</linearGradient>
<linearGradient id="paint13_linear_24_3465" x1="135.607" y1="3.32825" x2="138.857" y2="-1.33845" gradientUnits="userSpaceOnUse">
<stop stop-color="#76AB50"/>
<stop offset="1" stop-color="#D8F88D"/>
</linearGradient>
<linearGradient id="paint14_linear_24_3465" x1="117.047" y1="28.6171" x2="92.9256" y2="-4.36752" gradientUnits="userSpaceOnUse">
<stop stop-color="#76AB50"/>
<stop offset="1" stop-color="#D8F88D"/>
</linearGradient>
<linearGradient id="paint15_linear_24_3465" x1="112.762" y1="23.4725" x2="99.4519" y2="1.55256" gradientUnits="userSpaceOnUse">
<stop stop-color="#4B8C1C"/>
<stop offset="1" stop-color="#B0D55B"/>
</linearGradient>
<linearGradient id="paint16_linear_24_3465" x1="158.711" y1="24.544" x2="45.1492" y2="13.7937" gradientUnits="userSpaceOnUse">
<stop stop-color="#76AB50"/>
<stop offset="1" stop-color="#D8F88D"/>
</linearGradient>
<linearGradient id="paint17_linear_24_3465" x1="127.305" y1="65.2343" x2="114.917" y2="24.5229" gradientUnits="userSpaceOnUse">
<stop stop-color="#4B8C1C"/>
<stop offset="1" stop-color="#76AB50"/>
</linearGradient>
<linearGradient id="paint18_linear_24_3465" x1="150.287" y1="-9.03291" x2="87.3769" y2="34.6711" gradientUnits="userSpaceOnUse">
<stop stop-color="#76AB50"/>
<stop offset="1" stop-color="#D8F88D"/>
</linearGradient>
<linearGradient id="paint19_linear_24_3465" x1="111.896" y1="30.7472" x2="97.3282" y2="0.020372" gradientUnits="userSpaceOnUse">
<stop stop-color="#76AB50"/>
<stop offset="1" stop-color="#D8F88D"/>
</linearGradient>
</defs>
</svg>
