<svg width="40" height="40" viewBox="0 0 40 40" fill="none" xmlns="http://www.w3.org/2000/svg">
<path d="M38.3334 11.6666H36.6668C35.7451 11.6666 35.0001 12.4133 35.0001 13.3333C35.0001 14.2533 35.745 15 36.6667 15H38.3333C39.255 15 40 14.2533 40 13.3333C40 12.4133 39.255 11.6666 38.3334 11.6666Z" fill="#FFC530"/>
<path d="M5 13.3334C5 12.4134 4.255 11.6667 3.33336 11.6667H1.66664C0.745 11.6667 0 12.4134 0 13.3334C0 14.2534 0.745 15 1.66664 15H3.33328C4.255 15 5 14.2534 5 13.3334Z" fill="#FFC530"/>
<path d="M34.1601 6.20676C34.4601 6.20676 34.7635 6.12676 35.0368 5.95676L36.4534 5.07676C37.2368 4.59012 37.4751 3.56341 36.9901 2.78012C36.5051 2.00012 35.4767 1.75848 34.6951 2.24512L33.28 3.12348C32.4967 3.61012 32.2567 4.63848 32.7417 5.42012C33.0585 5.92848 33.6035 6.20676 34.1601 6.20676Z" fill="#FFC530"/>
<path d="M4.9625 20.7105L3.54586 21.5905C2.76422 22.0755 2.52422 23.1039 3.00922 23.8855C3.32586 24.3939 3.87086 24.6722 4.42758 24.6722C4.72594 24.6722 5.03094 24.5922 5.30422 24.4222L6.72086 23.5422C7.5025 23.0572 7.7425 22.0288 7.2575 21.2472C6.7725 20.4655 5.74414 20.2239 4.9625 20.7105Z" fill="#FFC530"/>
<path d="M36.5413 21.4135L35.1163 20.5485C34.3296 20.0701 33.3046 20.3235 32.8263 21.1101C32.3479 21.8985 32.6013 22.9218 33.3863 23.3985L34.8129 24.2635C35.0829 24.4285 35.3813 24.5051 35.6746 24.5051C36.2379 24.5051 36.7879 24.2201 37.1029 23.7035C37.5796 22.9151 37.3279 21.8901 36.5413 21.4135Z" fill="#FFC530"/>
<path d="M3.45866 5.25319L4.88366 6.11819C5.1553 6.28155 5.45201 6.35983 5.74701 6.35983C6.31037 6.35983 6.86037 6.07319 7.17365 5.55648C7.65201 4.76812 7.39865 3.74484 6.61365 3.26812L5.18701 2.40319C4.40037 1.92484 3.37537 2.17655 2.89701 2.96319C2.4203 3.75148 2.67201 4.77648 3.45866 5.25319Z" fill="#FFC530"/>
<path d="M20 0C12.6483 0 6.66663 5.98164 6.66663 13.3334C6.66663 18.0834 9.25163 22.5 13.3333 24.8667V26.6667H26.6666V24.8667C30.7483 22.5001 33.3333 18.0834 33.3333 13.3334C33.3333 5.98164 27.3516 0 20 0ZM20 10C18.1616 10 16.6666 11.495 16.6666 13.3334C16.6666 14.2534 15.9216 15 15 15C14.0783 15 13.3333 14.2534 13.3333 13.3334C13.3333 9.65672 16.3233 6.66672 20 6.66672C20.9216 6.66672 21.6666 7.41336 21.6666 8.33336C21.6666 9.25336 20.9216 10 20 10Z" fill="#FDFF91"/>
<path d="M13.3334 35C13.3334 35.92 14.0784 36.6666 15 36.6666V38.3333C15 39.2533 15.745 39.9999 16.6667 39.9999H23.3333C24.2549 39.9999 24.9999 39.2533 24.9999 38.3333V36.6666C25.9216 36.6666 26.6666 35.92 26.6666 35V30H13.3334V35Z" fill="#FFC530"/>
</svg>
