<svg width="40" height="40" viewBox="0 0 40 40" fill="none" xmlns="http://www.w3.org/2000/svg">
<path d="M29.9656 2.021C32.4174 1.09654 34.6484 0.478013 36.3393 0.0804293C36.5657 0.0269999 36.7973 0 37.0274 0C37.9378 0 38.7871 0.412795 39.3572 1.13248C39.9242 1.84835 40.1293 2.76977 39.9198 3.66077C39.5222 5.35169 38.9035 7.5826 37.979 10.0345L29.9656 2.021ZM32.4444 27.6354C32.5233 28.0307 32.4317 28.4406 32.1916 28.7644L24.2867 39.4233C24.0094 39.7969 23.5795 40 23.1405 40C22.9114 40 22.68 39.9449 22.4663 39.83C21.843 39.495 21.5593 38.7536 21.8004 38.0881C21.8188 38.037 23.3616 33.7174 23.0007 30.7385C22.8585 29.5651 22.5379 28.5691 22.2073 27.7947C21.7047 27.8928 21.2037 27.9462 20.7044 27.9624L19.8311 30.8444C19.6856 31.3241 19.2993 31.6922 18.8131 31.8141C18.6982 31.8428 18.5819 31.8569 18.4665 31.8569C18.0928 31.8569 17.7287 31.7099 17.458 31.4391L17.2321 31.2132C16.5527 32.5838 15.4326 34.3334 13.7316 35.599C10.9479 37.67 5.45403 37.8311 3.83594 37.8311C3.83613 37.8311 3.83575 37.8311 3.83594 37.8311C3.66272 37.8311 3.56746 37.829 3.56746 37.829C2.80347 37.8124 2.18704 37.1968 2.17126 36.4328C2.15643 35.7192 2.0933 29.3704 4.40122 26.2684C5.66661 24.5676 7.41647 23.4473 8.78681 22.7682L8.56092 22.5421C8.20669 22.1877 8.06428 21.6731 8.18597 21.1871C8.30804 20.701 8.67596 20.3144 9.15587 20.1691L12.0355 19.2966C12.0513 18.7976 12.1099 18.2968 12.2078 17.7947C11.4324 17.4631 10.4355 17.1419 9.26178 16.9997C8.96934 16.9641 8.64725 16.9463 8.30442 16.9463C5.40231 16.9463 1.94708 18.1869 1.91267 18.1995C1.24699 18.4411 0.505439 18.1573 0.170412 17.5338C-0.164805 16.9101 0.00841248 16.1353 0.577122 15.7136L11.2354 7.80849C11.5592 7.56834 11.9696 7.47651 12.3645 7.55541C12.5103 7.58451 13.1218 7.73034 14.8764 8.38195C15.737 8.70158 16.6483 9.14461 17.3954 9.53801C20.3532 6.75017 23.8163 4.6997 27.1144 3.20329L36.7966 12.8852C35.3002 16.1834 33.2497 19.6466 30.462 22.6043C30.8554 23.3513 31.2985 24.2627 31.6181 25.1234C32.2697 26.878 32.4154 27.4897 32.4444 27.6354ZM15.0738 29.0551L10.9436 24.9249C9.87498 25.3546 7.92053 26.3162 6.68937 27.9708C5.53522 29.5219 5.14448 32.8106 5.04675 34.952C7.60509 34.8404 10.6066 34.3688 12.0291 33.3107C13.6751 32.086 14.6412 30.1256 15.0738 29.0551ZM29.3058 18.6012C30.3618 17.5452 30.9433 16.1412 30.9433 14.6476C30.9433 13.1543 30.3616 11.7501 29.3058 10.6943C28.2496 9.63821 26.8458 9.05657 25.3522 9.05657C23.8587 9.05657 22.4549 9.63821 21.3986 10.6943C20.3426 11.7503 19.7611 13.1543 19.7611 14.6476C19.7611 16.141 20.3428 17.5452 21.3986 18.6012C22.4549 19.6573 23.8587 20.2389 25.3522 20.2389C26.8458 20.2389 28.2498 19.6573 29.3058 18.6012ZM25.3524 11.9087C24.6207 11.9087 23.933 12.1937 23.4156 12.7109C22.8981 13.2282 22.6132 13.916 22.6132 14.6476C22.6132 15.3793 22.8981 16.067 23.4156 16.5846C23.933 17.102 24.6207 17.3868 25.3524 17.3868C26.0841 17.3868 26.7718 17.1018 27.2892 16.5846C27.8067 16.0672 28.0916 15.3795 28.0916 14.6476C28.0916 13.916 27.8067 13.2282 27.2892 12.7109C26.7716 12.1937 26.0839 11.9087 25.3524 11.9087Z" fill="#0500FF"/>
</svg>
