<svg width="40" height="40" viewBox="0 0 40 40" fill="none" xmlns="http://www.w3.org/2000/svg">
<g clip-path="url(#clip0_24_4666)">
<path d="M39.9111 15.3562C39.6971 14.6978 39.128 14.2179 38.4431 14.1185L26.8262 12.4307L21.6309 1.90316C21.3245 1.28244 20.6923 0.889404 20.0002 0.889404C19.3079 0.889404 18.6757 1.28244 18.3695 1.90316L13.1745 12.4306L1.5573 14.1184C0.872329 14.2179 0.303138 14.6978 0.0892819 15.3561C-0.124574 16.0145 0.0537605 16.7372 0.549484 17.2203L8.95569 25.4135L6.97049 36.9847C6.8535 37.667 7.13391 38.3565 7.69389 38.7633C8.01067 38.9936 8.38589 39.1107 8.76293 39.1107C9.05231 39.1107 9.34291 39.0417 9.60902 38.9018L20.0001 33.4391L30.391 38.9018C30.6587 39.0425 30.9518 39.1096 31.2422 39.1107C32.2454 39.1092 33.0581 38.2956 33.0581 37.2922C33.0581 37.1525 33.0423 37.0164 33.0125 36.8858L31.0445 25.4136L39.4507 17.2203C39.9466 16.7372 40.1249 16.0145 39.9111 15.3562Z" fill="#92FF07"/>
</g>
<defs>
<clipPath id="clip0_24_4666">
<rect width="40" height="40" fill="white"/>
</clipPath>
</defs>
</svg>
