<svg width="38" height="40" viewBox="0 0 38 40" fill="none" xmlns="http://www.w3.org/2000/svg">
<path d="M27.1477 14.3038L23.6708 15.0376L26.0523 17.6749L25.6758 21.2084L28.92 19.7583L32.1642 21.2084L31.7877 17.6749L34.1692 15.0376L30.6923 14.3038L28.92 11.2238L27.1477 14.3038Z" fill="#FFC123"/>
<path d="M37.6814 28.6309L35.4037 28.1501L34.2426 26.1321L33.0814 28.1501L30.8037 28.6309L32.3639 30.3586L32.1173 32.6734L34.2427 31.7235L36.3683 32.6734L36.1213 30.3585L37.6814 28.6309Z" fill="#FFC123"/>
<path d="M18.1649 20C18.1649 12.1611 22.6753 5.37688 29.2418 2.09758C26.5555 0.756044 23.5256 0 20.3187 0C9.27301 0 0.318726 8.95429 0.318726 20C0.318726 31.0457 9.27301 40 20.3187 40C23.5256 40 26.5555 39.244 29.2418 37.9024C22.6753 34.6231 18.1649 27.8389 18.1649 20Z" fill="#FFEAB3"/>
</svg>
